G04*
G04 #@! TF.GenerationSoftware,Altium Limited,Altium Designer,18.0.7 (293)*
G04*
G04 Layer_Color=255*
%FSLAX25Y25*%
%MOIN*%
G70*
G01*
G75*
%ADD30C,0.05315*%
%ADD31R,0.05315X0.05315*%
%ADD32C,0.04724*%
%ADD33C,0.05906*%
%ADD34R,0.05906X0.05906*%
%ADD35R,0.05906X0.05906*%
%ADD36C,0.08000*%
%ADD37C,0.09000*%
%ADD38C,0.05512*%
%ADD39C,0.06299*%
%ADD40R,0.06299X0.06299*%
%ADD41C,0.06299*%
%ADD42R,0.06299X0.06299*%
%ADD45R,0.03150X0.06299*%
%ADD46R,0.06299X0.03150*%
D30*
X248158Y228000D02*
D03*
D31*
X267843Y228000D02*
D03*
D32*
X332000Y149000D02*
D03*
X342000D02*
D03*
X332000Y161000D02*
D03*
X342000D02*
D03*
X332000Y185000D02*
D03*
X342000D02*
D03*
X332000Y173000D02*
D03*
X342000D02*
D03*
X360000Y230000D02*
D03*
X350000D02*
D03*
X360000Y245000D02*
D03*
X350000D02*
D03*
X360000Y260000D02*
D03*
X350000D02*
D03*
D33*
X366000Y190000D02*
D03*
Y200000D02*
D03*
Y180000D02*
D03*
Y170000D02*
D03*
Y160000D02*
D03*
Y150000D02*
D03*
X336000Y255000D02*
D03*
Y245000D02*
D03*
Y235000D02*
D03*
X340000Y285000D02*
D03*
X350000D02*
D03*
X20000Y295000D02*
D03*
Y305000D02*
D03*
Y285000D02*
D03*
Y275000D02*
D03*
Y265000D02*
D03*
Y255000D02*
D03*
X50000Y295000D02*
D03*
Y305000D02*
D03*
Y285000D02*
D03*
Y275000D02*
D03*
Y265000D02*
D03*
Y255000D02*
D03*
X80000Y295000D02*
D03*
Y305000D02*
D03*
Y285000D02*
D03*
Y275000D02*
D03*
Y265000D02*
D03*
Y255000D02*
D03*
X110000Y295000D02*
D03*
Y305000D02*
D03*
Y285000D02*
D03*
Y275000D02*
D03*
Y265000D02*
D03*
Y255000D02*
D03*
X140000Y295000D02*
D03*
Y305000D02*
D03*
Y285000D02*
D03*
Y275000D02*
D03*
Y265000D02*
D03*
Y255000D02*
D03*
X170000Y295000D02*
D03*
Y305000D02*
D03*
Y285000D02*
D03*
Y275000D02*
D03*
Y265000D02*
D03*
Y255000D02*
D03*
Y165000D02*
D03*
Y200000D02*
D03*
Y210000D02*
D03*
Y220000D02*
D03*
X90000Y130000D02*
D03*
X100000D02*
D03*
X110000D02*
D03*
X140000Y200000D02*
D03*
Y210000D02*
D03*
Y220000D02*
D03*
D34*
X366000Y210000D02*
D03*
X20000Y315000D02*
D03*
X50000D02*
D03*
X80000D02*
D03*
X110000D02*
D03*
X140000D02*
D03*
X170000D02*
D03*
Y175000D02*
D03*
Y230000D02*
D03*
X140000D02*
D03*
D35*
X360000Y285000D02*
D03*
D36*
X380000Y240000D02*
D03*
X20000D02*
D03*
X380000Y300000D02*
D03*
Y130000D02*
D03*
X20000D02*
D03*
D37*
X340000Y320000D02*
D03*
X360000D02*
D03*
X30000Y160000D02*
D03*
Y180000D02*
D03*
Y200000D02*
D03*
Y220000D02*
D03*
D38*
X145000Y150000D02*
D03*
X185000D02*
D03*
X145000Y140000D02*
D03*
X185000D02*
D03*
X60000Y195000D02*
D03*
Y155000D02*
D03*
X120000Y185000D02*
D03*
X80000D02*
D03*
D39*
X110000Y159000D02*
D03*
X100000D02*
D03*
D40*
X90000D02*
D03*
D41*
X210000Y310000D02*
D03*
Y300000D02*
D03*
Y250000D02*
D03*
Y240000D02*
D03*
Y230000D02*
D03*
Y220000D02*
D03*
Y210000D02*
D03*
Y200000D02*
D03*
Y180000D02*
D03*
Y170000D02*
D03*
Y160000D02*
D03*
Y150000D02*
D03*
Y140000D02*
D03*
X300000Y130000D02*
D03*
Y140000D02*
D03*
Y150000D02*
D03*
Y160000D02*
D03*
Y170000D02*
D03*
Y180000D02*
D03*
Y190000D02*
D03*
Y200000D02*
D03*
Y210000D02*
D03*
Y220000D02*
D03*
Y230000D02*
D03*
Y240000D02*
D03*
Y250000D02*
D03*
Y270000D02*
D03*
Y280000D02*
D03*
Y290000D02*
D03*
Y300000D02*
D03*
Y310000D02*
D03*
X210000Y290000D02*
D03*
Y280000D02*
D03*
Y270000D02*
D03*
Y260000D02*
D03*
X310000Y130000D02*
D03*
Y140000D02*
D03*
Y150000D02*
D03*
Y160000D02*
D03*
Y170000D02*
D03*
Y180000D02*
D03*
Y190000D02*
D03*
Y200000D02*
D03*
Y210000D02*
D03*
Y220000D02*
D03*
Y230000D02*
D03*
Y240000D02*
D03*
Y250000D02*
D03*
Y270000D02*
D03*
Y280000D02*
D03*
Y290000D02*
D03*
Y300000D02*
D03*
Y310000D02*
D03*
D42*
X210000Y190000D02*
D03*
Y130000D02*
D03*
X300000Y260000D02*
D03*
X310000D02*
D03*
D45*
X98100Y175000D02*
D03*
X101900D02*
D03*
D46*
X60000Y140600D02*
D03*
Y144400D02*
D03*
X30000Y140000D02*
D03*
Y143800D02*
D03*
X70000Y173100D02*
D03*
Y176900D02*
D03*
M02*
