G04*
G04 #@! TF.GenerationSoftware,Altium Limited,Altium Designer,18.0.7 (293)*
G04*
G04 Layer_Physical_Order=1*
G04 Layer_Color=255*
%FSLAX25Y25*%
%MOIN*%
G70*
G01*
G75*
%ADD13C,0.01500*%
%ADD30C,0.03000*%
%ADD31C,0.05512*%
%ADD32C,0.05906*%
%ADD33R,0.05906X0.05906*%
%ADD34R,0.05906X0.05906*%
%ADD35R,0.06299X0.06299*%
%ADD36C,0.06299*%
%ADD37C,0.05315*%
%ADD38R,0.05315X0.05315*%
%ADD39C,0.04724*%
%ADD40C,0.19685*%
%ADD41C,0.09000*%
%ADD42C,0.06299*%
%ADD43R,0.06299X0.06299*%
%ADD44C,0.02362*%
%ADD45C,0.07087*%
%ADD46C,0.03150*%
G36*
X392000Y112000D02*
X2000D01*
Y338000D01*
X392000D01*
Y112000D01*
D02*
G37*
%LPC*%
G36*
X230500Y333921D02*
Y330500D01*
X233921D01*
X233851Y331032D01*
X233453Y331993D01*
X232819Y332819D01*
X231993Y333453D01*
X231032Y333851D01*
X230500Y333921D01*
D02*
G37*
G36*
X229500D02*
X228968Y333851D01*
X228007Y333453D01*
X227181Y332819D01*
X226547Y331993D01*
X226149Y331032D01*
X226079Y330500D01*
X229500D01*
Y333921D01*
D02*
G37*
G36*
X240000Y333583D02*
X239073Y333461D01*
X238208Y333103D01*
X237466Y332534D01*
X236897Y331792D01*
X236539Y330927D01*
X236417Y330000D01*
X236539Y329073D01*
X236897Y328208D01*
X237466Y327466D01*
X238208Y326897D01*
X239073Y326539D01*
X240000Y326417D01*
X240927Y326539D01*
X241792Y326897D01*
X242534Y327466D01*
X243103Y328208D01*
X243275Y328624D01*
X246938D01*
X247069Y328308D01*
X247606Y327607D01*
X248308Y327069D01*
X249124Y326730D01*
X250000Y326615D01*
X250876Y326730D01*
X251692Y327069D01*
X252394Y327607D01*
X252931Y328308D01*
X253270Y329124D01*
X253385Y330000D01*
X253270Y330876D01*
X252931Y331692D01*
X252394Y332394D01*
X251692Y332931D01*
X250876Y333270D01*
X250000Y333385D01*
X249124Y333270D01*
X248308Y332931D01*
X247606Y332394D01*
X247069Y331692D01*
X246938Y331377D01*
X243275D01*
X243103Y331792D01*
X242534Y332534D01*
X241792Y333103D01*
X240927Y333461D01*
X240000Y333583D01*
D02*
G37*
G36*
X233921Y329500D02*
X230500D01*
Y326079D01*
X231032Y326149D01*
X231993Y326547D01*
X232819Y327181D01*
X233453Y328007D01*
X233851Y328968D01*
X233921Y329500D01*
D02*
G37*
G36*
X229500D02*
X226079D01*
X226149Y328968D01*
X226547Y328007D01*
X227181Y327181D01*
X228007Y326547D01*
X228968Y326149D01*
X229500Y326079D01*
Y329500D01*
D02*
G37*
G36*
X340500Y325482D02*
Y320500D01*
X345482D01*
X345358Y321436D01*
X344804Y322774D01*
X343923Y323923D01*
X342774Y324804D01*
X341436Y325358D01*
X340500Y325482D01*
D02*
G37*
G36*
X339500D02*
X338564Y325358D01*
X337226Y324804D01*
X336077Y323923D01*
X335196Y322774D01*
X334642Y321436D01*
X334518Y320500D01*
X339500D01*
Y325482D01*
D02*
G37*
G36*
X209000Y323141D02*
X159000D01*
X158181Y322978D01*
X157486Y322514D01*
X155000Y320028D01*
X152514Y322514D01*
X151819Y322978D01*
X151000Y323141D01*
X130000D01*
X129181Y322978D01*
X128486Y322514D01*
X125000Y319028D01*
X121514Y322514D01*
X120819Y322978D01*
X120000Y323141D01*
X100000D01*
X99181Y322978D01*
X98486Y322514D01*
X93486Y317514D01*
X93022Y316819D01*
X92859Y316000D01*
Y309887D01*
X90113Y307141D01*
X82835D01*
X82534Y307534D01*
X81792Y308103D01*
X80927Y308461D01*
X80000Y308583D01*
X79073Y308461D01*
X78208Y308103D01*
X77466Y307534D01*
X77165Y307141D01*
X52835D01*
X52534Y307534D01*
X51792Y308103D01*
X50927Y308461D01*
X50000Y308583D01*
X49073Y308461D01*
X48208Y308103D01*
X47466Y307534D01*
X47165Y307141D01*
X22835D01*
X22534Y307534D01*
X21792Y308103D01*
X20927Y308461D01*
X20000Y308583D01*
X19073Y308461D01*
X18208Y308103D01*
X17466Y307534D01*
X16897Y306792D01*
X16539Y305927D01*
X16417Y305000D01*
X16539Y304073D01*
X16897Y303208D01*
X17466Y302466D01*
X18208Y301897D01*
X19073Y301539D01*
X20000Y301417D01*
X20927Y301539D01*
X21792Y301897D01*
X22534Y302466D01*
X22835Y302859D01*
X47165D01*
X47466Y302466D01*
X48208Y301897D01*
X49073Y301539D01*
X50000Y301417D01*
X50927Y301539D01*
X51792Y301897D01*
X52534Y302466D01*
X52835Y302859D01*
X77165D01*
X77466Y302466D01*
X78208Y301897D01*
X79073Y301539D01*
X80000Y301417D01*
X80927Y301539D01*
X81792Y301897D01*
X82534Y302466D01*
X82835Y302859D01*
X91000D01*
X91819Y303022D01*
X92514Y303486D01*
X95000Y305972D01*
X97486Y303486D01*
X98181Y303022D01*
X99000Y302859D01*
X107165D01*
X107466Y302466D01*
X108208Y301897D01*
X109073Y301539D01*
X110000Y301417D01*
X110927Y301539D01*
X111792Y301897D01*
X112534Y302466D01*
X113103Y303208D01*
X113461Y304073D01*
X113583Y305000D01*
X113461Y305927D01*
X113103Y306792D01*
X112534Y307534D01*
X111792Y308103D01*
X110927Y308461D01*
X110000Y308583D01*
X109073Y308461D01*
X108208Y308103D01*
X107466Y307534D01*
X107165Y307141D01*
X99887D01*
X97141Y309887D01*
Y315113D01*
X100887Y318859D01*
X106074D01*
X106447Y318553D01*
X106447Y318359D01*
Y311447D01*
X111606D01*
X134027Y289027D01*
X134473Y288728D01*
X135000Y288623D01*
X138158D01*
X138257Y288123D01*
X138208Y288103D01*
X137466Y287534D01*
X136897Y286792D01*
X136725Y286377D01*
X113275D01*
X113103Y286792D01*
X112534Y287534D01*
X111792Y288103D01*
X110927Y288461D01*
X110000Y288583D01*
X109073Y288461D01*
X108208Y288103D01*
X107466Y287534D01*
X106897Y286792D01*
X106725Y286377D01*
X83275D01*
X83103Y286792D01*
X82534Y287534D01*
X81792Y288103D01*
X80927Y288461D01*
X80000Y288583D01*
X79073Y288461D01*
X78208Y288103D01*
X77466Y287534D01*
X76897Y286792D01*
X76725Y286377D01*
X53275D01*
X53103Y286792D01*
X52534Y287534D01*
X51792Y288103D01*
X50927Y288461D01*
X50000Y288583D01*
X49073Y288461D01*
X48208Y288103D01*
X47466Y287534D01*
X46897Y286792D01*
X46725Y286377D01*
X23275D01*
X23103Y286792D01*
X22534Y287534D01*
X21792Y288103D01*
X20927Y288461D01*
X20000Y288583D01*
X19073Y288461D01*
X18208Y288103D01*
X17466Y287534D01*
X16897Y286792D01*
X16539Y285927D01*
X16417Y285000D01*
X16539Y284073D01*
X16897Y283208D01*
X17466Y282466D01*
X18208Y281897D01*
X19073Y281539D01*
X20000Y281417D01*
X20927Y281539D01*
X21792Y281897D01*
X22534Y282466D01*
X23103Y283208D01*
X23275Y283624D01*
X46725D01*
X46897Y283208D01*
X47466Y282466D01*
X48208Y281897D01*
X49073Y281539D01*
X50000Y281417D01*
X50927Y281539D01*
X51792Y281897D01*
X52534Y282466D01*
X53103Y283208D01*
X53275Y283624D01*
X76725D01*
X76897Y283208D01*
X77466Y282466D01*
X78208Y281897D01*
X79073Y281539D01*
X80000Y281417D01*
X80927Y281539D01*
X81792Y281897D01*
X82534Y282466D01*
X83103Y283208D01*
X83275Y283624D01*
X106725D01*
X106897Y283208D01*
X107466Y282466D01*
X108208Y281897D01*
X109073Y281539D01*
X110000Y281417D01*
X110927Y281539D01*
X111792Y281897D01*
X112534Y282466D01*
X113103Y283208D01*
X113275Y283624D01*
X136725D01*
X136897Y283208D01*
X137466Y282466D01*
X138208Y281897D01*
X139073Y281539D01*
X140000Y281417D01*
X140927Y281539D01*
X141792Y281897D01*
X142534Y282466D01*
X143103Y283208D01*
X143275Y283624D01*
X166725D01*
X166897Y283208D01*
X167466Y282466D01*
X168208Y281897D01*
X169073Y281539D01*
X170000Y281417D01*
X170927Y281539D01*
X171792Y281897D01*
X172534Y282466D01*
X173103Y283208D01*
X173461Y284073D01*
X173583Y285000D01*
X173461Y285927D01*
X173103Y286792D01*
X172534Y287534D01*
X171792Y288103D01*
X171743Y288123D01*
X171842Y288623D01*
X176930D01*
X189624Y275930D01*
Y245900D01*
X189124Y245748D01*
X188973Y245973D01*
X188973Y245973D01*
X178973Y255973D01*
X178527Y256272D01*
X178000Y256377D01*
X173275D01*
X173103Y256792D01*
X172534Y257534D01*
X171792Y258103D01*
X170927Y258461D01*
X170000Y258583D01*
X169073Y258461D01*
X168208Y258103D01*
X167466Y257534D01*
X166897Y256792D01*
X166725Y256377D01*
X143275D01*
X143103Y256792D01*
X142534Y257534D01*
X141792Y258103D01*
X140927Y258461D01*
X140000Y258583D01*
X139073Y258461D01*
X138208Y258103D01*
X137466Y257534D01*
X136897Y256792D01*
X136725Y256377D01*
X113275D01*
X113103Y256792D01*
X112534Y257534D01*
X111792Y258103D01*
X110927Y258461D01*
X110000Y258583D01*
X109073Y258461D01*
X108208Y258103D01*
X107466Y257534D01*
X106897Y256792D01*
X106725Y256377D01*
X83275D01*
X83103Y256792D01*
X82534Y257534D01*
X81792Y258103D01*
X80927Y258461D01*
X80000Y258583D01*
X79073Y258461D01*
X78208Y258103D01*
X77466Y257534D01*
X76897Y256792D01*
X76725Y256377D01*
X53275D01*
X53103Y256792D01*
X52534Y257534D01*
X51792Y258103D01*
X50927Y258461D01*
X50000Y258583D01*
X49073Y258461D01*
X48208Y258103D01*
X47466Y257534D01*
X46897Y256792D01*
X46725Y256377D01*
X23275D01*
X23103Y256792D01*
X22534Y257534D01*
X21792Y258103D01*
X20927Y258461D01*
X20000Y258583D01*
X19073Y258461D01*
X18208Y258103D01*
X17466Y257534D01*
X16897Y256792D01*
X16539Y255927D01*
X16417Y255000D01*
X16539Y254073D01*
X16897Y253208D01*
X17466Y252466D01*
X18208Y251897D01*
X19073Y251539D01*
X20000Y251417D01*
X20927Y251539D01*
X21792Y251897D01*
X22534Y252466D01*
X23103Y253208D01*
X23275Y253624D01*
X46725D01*
X46897Y253208D01*
X47466Y252466D01*
X48208Y251897D01*
X49073Y251539D01*
X50000Y251417D01*
X50927Y251539D01*
X51792Y251897D01*
X52534Y252466D01*
X53103Y253208D01*
X53275Y253624D01*
X76725D01*
X76897Y253208D01*
X77466Y252466D01*
X78208Y251897D01*
X79073Y251539D01*
X80000Y251417D01*
X80927Y251539D01*
X81792Y251897D01*
X82534Y252466D01*
X83103Y253208D01*
X83275Y253624D01*
X106725D01*
X106897Y253208D01*
X107466Y252466D01*
X108208Y251897D01*
X109073Y251539D01*
X110000Y251417D01*
X110927Y251539D01*
X111792Y251897D01*
X112534Y252466D01*
X113103Y253208D01*
X113275Y253624D01*
X136725D01*
X136897Y253208D01*
X137466Y252466D01*
X138208Y251897D01*
X139073Y251539D01*
X140000Y251417D01*
X140927Y251539D01*
X141792Y251897D01*
X142534Y252466D01*
X143103Y253208D01*
X143275Y253624D01*
X166725D01*
X166897Y253208D01*
X167466Y252466D01*
X168208Y251897D01*
X169073Y251539D01*
X170000Y251417D01*
X170927Y251539D01*
X171792Y251897D01*
X172534Y252466D01*
X173103Y253208D01*
X173275Y253624D01*
X177430D01*
X186624Y244430D01*
Y198900D01*
X186124Y198748D01*
X185973Y198973D01*
X185973Y198973D01*
X178973Y205973D01*
X178527Y206272D01*
X178000Y206377D01*
X173553D01*
Y208553D01*
X166447D01*
Y206377D01*
X143553D01*
Y208553D01*
X136447D01*
Y201447D01*
X143553D01*
Y203624D01*
X166447D01*
Y201447D01*
X173553D01*
Y203624D01*
X177430D01*
X183624Y197430D01*
Y160000D01*
X183728Y159473D01*
X184027Y159027D01*
X193053Y150000D01*
X186192Y143139D01*
X185876Y143270D01*
X185000Y143385D01*
X184124Y143270D01*
X183308Y142931D01*
X182606Y142394D01*
X182069Y141692D01*
X181876Y141228D01*
X181376Y141328D01*
Y190000D01*
X181377Y190000D01*
X181272Y190527D01*
X180973Y190973D01*
X175973Y195973D01*
X175527Y196272D01*
X175000Y196376D01*
X173275D01*
X173103Y196792D01*
X172534Y197534D01*
X171792Y198103D01*
X170927Y198461D01*
X170000Y198583D01*
X169073Y198461D01*
X168208Y198103D01*
X167466Y197534D01*
X166897Y196792D01*
X166725Y196376D01*
X143275D01*
X143103Y196792D01*
X142534Y197534D01*
X141792Y198103D01*
X140927Y198461D01*
X140000Y198583D01*
X139073Y198461D01*
X138208Y198103D01*
X137466Y197534D01*
X136897Y196792D01*
X136539Y195927D01*
X136417Y195000D01*
X136539Y194073D01*
X136897Y193208D01*
X137466Y192466D01*
X138208Y191897D01*
X139073Y191539D01*
X140000Y191417D01*
X140927Y191539D01*
X141792Y191897D01*
X142534Y192466D01*
X143103Y193208D01*
X143275Y193624D01*
X166725D01*
X166897Y193208D01*
X167466Y192466D01*
X168208Y191897D01*
X169073Y191539D01*
X170000Y191417D01*
X170927Y191539D01*
X171792Y191897D01*
X172534Y192466D01*
X173103Y193208D01*
X173275Y193624D01*
X174430D01*
X178624Y189430D01*
Y135000D01*
X178728Y134473D01*
X179027Y134027D01*
X181861Y131192D01*
X181730Y130876D01*
X181615Y130000D01*
X181730Y129124D01*
X182069Y128308D01*
X182606Y127606D01*
X183308Y127069D01*
X184124Y126731D01*
X185000Y126615D01*
X185876Y126731D01*
X186692Y127069D01*
X187393Y127606D01*
X187931Y128308D01*
X188269Y129124D01*
X188385Y130000D01*
X188269Y130876D01*
X188139Y131192D01*
X195570Y138624D01*
X206512D01*
X206725Y138109D01*
X207326Y137326D01*
X208109Y136725D01*
X209021Y136347D01*
X210000Y136218D01*
X210979Y136347D01*
X211891Y136725D01*
X212674Y137326D01*
X213275Y138109D01*
X213653Y139021D01*
X213782Y140000D01*
X213653Y140979D01*
X213275Y141891D01*
X212674Y142674D01*
X211891Y143275D01*
X210979Y143653D01*
X210000Y143782D01*
X209021Y143653D01*
X208109Y143275D01*
X207326Y142674D01*
X206725Y141891D01*
X206512Y141376D01*
X195000D01*
X195000Y141376D01*
X194473Y141272D01*
X194027Y140973D01*
X194027Y140973D01*
X186192Y133139D01*
X185876Y133270D01*
X185000Y133385D01*
X184124Y133270D01*
X183808Y133139D01*
X181376Y135570D01*
Y138672D01*
X181876Y138771D01*
X182069Y138308D01*
X182606Y137607D01*
X183308Y137069D01*
X184124Y136731D01*
X185000Y136615D01*
X185876Y136731D01*
X186692Y137069D01*
X187393Y137607D01*
X187931Y138308D01*
X188269Y139124D01*
X188385Y140000D01*
X188269Y140876D01*
X188139Y141192D01*
X195570Y148624D01*
X206512D01*
X206725Y148109D01*
X207326Y147326D01*
X208109Y146725D01*
X209021Y146347D01*
X210000Y146218D01*
X210979Y146347D01*
X211891Y146725D01*
X212674Y147326D01*
X213275Y148109D01*
X213653Y149021D01*
X213782Y150000D01*
X213653Y150979D01*
X213275Y151891D01*
X212674Y152674D01*
X211891Y153275D01*
X210979Y153653D01*
X210000Y153782D01*
X209021Y153653D01*
X208109Y153275D01*
X207326Y152674D01*
X206725Y151891D01*
X206512Y151376D01*
X195570D01*
X186376Y160570D01*
Y191100D01*
X186876Y191252D01*
X187027Y191027D01*
X199027Y179027D01*
X199473Y178728D01*
X200000Y178624D01*
X206512D01*
X206725Y178109D01*
X207326Y177326D01*
X208109Y176725D01*
X209021Y176347D01*
X210000Y176218D01*
X210979Y176347D01*
X211891Y176725D01*
X212674Y177326D01*
X213275Y178109D01*
X213653Y179021D01*
X213782Y180000D01*
X213653Y180979D01*
X213275Y181891D01*
X212674Y182674D01*
X211891Y183275D01*
X210979Y183653D01*
X210000Y183782D01*
X209021Y183653D01*
X208109Y183275D01*
X207326Y182674D01*
X206725Y181891D01*
X206512Y181376D01*
X200570D01*
X189376Y192570D01*
Y208100D01*
X189876Y208252D01*
X190027Y208027D01*
X199027Y199027D01*
X199473Y198728D01*
X200000Y198624D01*
X206512D01*
X206725Y198109D01*
X207326Y197326D01*
X208109Y196725D01*
X209021Y196347D01*
X210000Y196218D01*
X210979Y196347D01*
X211891Y196725D01*
X212674Y197326D01*
X213275Y198109D01*
X213653Y199021D01*
X213782Y200000D01*
X213653Y200979D01*
X213275Y201891D01*
X212674Y202674D01*
X211891Y203275D01*
X210979Y203653D01*
X210000Y203782D01*
X209021Y203653D01*
X208109Y203275D01*
X207326Y202674D01*
X206725Y201891D01*
X206512Y201376D01*
X200570D01*
X192376Y209570D01*
Y215100D01*
X192876Y215252D01*
X193027Y215027D01*
X199027Y209027D01*
X199473Y208728D01*
X200000Y208624D01*
X206512D01*
X206725Y208109D01*
X207326Y207326D01*
X208109Y206725D01*
X209021Y206347D01*
X210000Y206218D01*
X210979Y206347D01*
X211891Y206725D01*
X212674Y207326D01*
X213275Y208109D01*
X213653Y209021D01*
X213782Y210000D01*
X213653Y210979D01*
X213275Y211891D01*
X212674Y212674D01*
X211891Y213275D01*
X210979Y213653D01*
X210000Y213782D01*
X209021Y213653D01*
X208109Y213275D01*
X207326Y212674D01*
X206725Y211891D01*
X206512Y211377D01*
X200570D01*
X195376Y216570D01*
Y222100D01*
X195876Y222252D01*
X196027Y222027D01*
X199027Y219027D01*
X199473Y218728D01*
X200000Y218623D01*
X206512D01*
X206725Y218109D01*
X207326Y217326D01*
X208109Y216725D01*
X209021Y216347D01*
X210000Y216218D01*
X210979Y216347D01*
X211891Y216725D01*
X212674Y217326D01*
X213275Y218109D01*
X213653Y219021D01*
X213782Y220000D01*
X213653Y220979D01*
X213275Y221891D01*
X212674Y222674D01*
X211891Y223275D01*
X210979Y223653D01*
X210000Y223782D01*
X209021Y223653D01*
X208109Y223275D01*
X207326Y222674D01*
X206725Y221891D01*
X206512Y221376D01*
X200570D01*
X198376Y223570D01*
Y288000D01*
X198377Y288000D01*
X198272Y288527D01*
X197973Y288973D01*
X197973Y288973D01*
X173553Y313394D01*
Y318359D01*
X173553Y318553D01*
X173926Y318859D01*
X208113D01*
X265701Y261271D01*
Y231258D01*
X264585D01*
Y224743D01*
X265701D01*
Y155157D01*
X265864Y154338D01*
X266329Y153644D01*
X291486Y128486D01*
X292181Y128022D01*
X293000Y127859D01*
X296917D01*
X297326Y127326D01*
X298109Y126725D01*
X299021Y126347D01*
X300000Y126218D01*
X300979Y126347D01*
X301891Y126725D01*
X302674Y127326D01*
X303275Y128109D01*
X303488Y128624D01*
X306512D01*
X306725Y128109D01*
X307326Y127326D01*
X308109Y126725D01*
X309021Y126347D01*
X310000Y126218D01*
X310979Y126347D01*
X311891Y126725D01*
X312674Y127326D01*
X313275Y128109D01*
X313653Y129021D01*
X313782Y130000D01*
X313653Y130979D01*
X313275Y131891D01*
X312674Y132674D01*
X311891Y133275D01*
X310979Y133653D01*
X310000Y133782D01*
X309021Y133653D01*
X308109Y133275D01*
X307326Y132674D01*
X306725Y131891D01*
X306512Y131376D01*
X303488D01*
X303275Y131891D01*
X302674Y132674D01*
X301891Y133275D01*
X300979Y133653D01*
X300000Y133782D01*
X299021Y133653D01*
X298109Y133275D01*
X297326Y132674D01*
X296917Y132141D01*
X293887D01*
X269984Y156044D01*
Y224743D01*
X271100D01*
Y231258D01*
X269984D01*
Y262158D01*
X269821Y262977D01*
X269356Y263671D01*
X210514Y322514D01*
X209819Y322978D01*
X209000Y323141D01*
D02*
G37*
G36*
X360000Y325144D02*
X358669Y324969D01*
X357428Y324455D01*
X356363Y323637D01*
X355545Y322572D01*
X355031Y321331D01*
X354856Y320000D01*
X355031Y318669D01*
X355545Y317428D01*
X356363Y316363D01*
X357428Y315545D01*
X358669Y315031D01*
X360000Y314856D01*
X361331Y315031D01*
X362572Y315545D01*
X363637Y316363D01*
X364455Y317428D01*
X364969Y318669D01*
X365144Y320000D01*
X364969Y321331D01*
X364455Y322572D01*
X363637Y323637D01*
X362572Y324455D01*
X361331Y324969D01*
X360000Y325144D01*
D02*
G37*
G36*
X345482Y319500D02*
X340500D01*
Y314518D01*
X341436Y314642D01*
X342774Y315196D01*
X343923Y316077D01*
X344804Y317226D01*
X345358Y318564D01*
X345482Y319500D01*
D02*
G37*
G36*
X339500D02*
X334518D01*
X334642Y318564D01*
X335196Y317226D01*
X336077Y316077D01*
X337226Y315196D01*
X338564Y314642D01*
X339500Y314518D01*
Y319500D01*
D02*
G37*
G36*
X83553Y318553D02*
X76447D01*
Y311447D01*
X83553D01*
Y318553D01*
D02*
G37*
G36*
X53553D02*
X46447D01*
Y311447D01*
X53553D01*
Y318553D01*
D02*
G37*
G36*
X23553D02*
X16447D01*
Y311447D01*
X23553D01*
Y318553D01*
D02*
G37*
G36*
X290000Y333385D02*
X289124Y333270D01*
X288308Y332931D01*
X287607Y332394D01*
X287069Y331692D01*
X286731Y330876D01*
X286615Y330000D01*
X286731Y329124D01*
X287069Y328308D01*
X287607Y327607D01*
X288308Y327069D01*
X289124Y326730D01*
X290000Y326615D01*
X290876Y326730D01*
X291192Y326861D01*
X298623Y319430D01*
Y313488D01*
X298109Y313275D01*
X297326Y312674D01*
X296725Y311891D01*
X296347Y310979D01*
X296218Y310000D01*
X296347Y309021D01*
X296725Y308109D01*
X297326Y307326D01*
X298109Y306725D01*
X299021Y306347D01*
X300000Y306218D01*
X300979Y306347D01*
X301891Y306725D01*
X302674Y307326D01*
X303275Y308109D01*
X303488Y308624D01*
X306512D01*
X306725Y308109D01*
X307326Y307326D01*
X308109Y306725D01*
X309021Y306347D01*
X310000Y306218D01*
X310979Y306347D01*
X311891Y306725D01*
X312674Y307326D01*
X313275Y308109D01*
X313653Y309021D01*
X313782Y310000D01*
X313653Y310979D01*
X313275Y311891D01*
X312674Y312674D01*
X311891Y313275D01*
X310979Y313653D01*
X310000Y313782D01*
X309021Y313653D01*
X308109Y313275D01*
X307326Y312674D01*
X306725Y311891D01*
X306512Y311377D01*
X303488D01*
X303275Y311891D01*
X302674Y312674D01*
X301891Y313275D01*
X301377Y313488D01*
Y320000D01*
X301377Y320000D01*
X301272Y320527D01*
X300973Y320973D01*
X300973Y320973D01*
X293139Y328808D01*
X293269Y329124D01*
X293385Y330000D01*
X293269Y330876D01*
X292931Y331692D01*
X292393Y332394D01*
X291692Y332931D01*
X290876Y333270D01*
X290000Y333385D01*
D02*
G37*
G36*
X210000Y313782D02*
X209021Y313653D01*
X208109Y313275D01*
X207326Y312674D01*
X206725Y311891D01*
X206347Y310979D01*
X206218Y310000D01*
X206347Y309021D01*
X206725Y308109D01*
X207326Y307326D01*
X208109Y306725D01*
X209021Y306347D01*
X210000Y306218D01*
X210979Y306347D01*
X211891Y306725D01*
X212674Y307326D01*
X213275Y308109D01*
X213653Y309021D01*
X213782Y310000D01*
X213653Y310979D01*
X213275Y311891D01*
X212674Y312674D01*
X211891Y313275D01*
X210979Y313653D01*
X210000Y313782D01*
D02*
G37*
G36*
X310000Y303782D02*
X309021Y303653D01*
X308109Y303275D01*
X307326Y302674D01*
X306725Y301891D01*
X306512Y301377D01*
X303488D01*
X303275Y301891D01*
X302674Y302674D01*
X301891Y303275D01*
X300979Y303653D01*
X300000Y303782D01*
X299021Y303653D01*
X298109Y303275D01*
X297326Y302674D01*
X296725Y301891D01*
X296347Y300979D01*
X296218Y300000D01*
X296347Y299021D01*
X296725Y298109D01*
X297326Y297326D01*
X298109Y296725D01*
X299021Y296347D01*
X300000Y296218D01*
X300979Y296347D01*
X301891Y296725D01*
X302674Y297326D01*
X303275Y298109D01*
X303488Y298623D01*
X306512D01*
X306725Y298109D01*
X307326Y297326D01*
X308109Y296725D01*
X309021Y296347D01*
X310000Y296218D01*
X310979Y296347D01*
X311891Y296725D01*
X312674Y297326D01*
X313275Y298109D01*
X313653Y299021D01*
X313782Y300000D01*
X313653Y300979D01*
X313275Y301891D01*
X312674Y302674D01*
X311891Y303275D01*
X310979Y303653D01*
X310000Y303782D01*
D02*
G37*
G36*
X210000D02*
X209021Y303653D01*
X208109Y303275D01*
X207326Y302674D01*
X206725Y301891D01*
X206347Y300979D01*
X206218Y300000D01*
X206347Y299021D01*
X206725Y298109D01*
X207326Y297326D01*
X208109Y296725D01*
X209021Y296347D01*
X210000Y296218D01*
X210979Y296347D01*
X211891Y296725D01*
X212674Y297326D01*
X213275Y298109D01*
X213653Y299021D01*
X213782Y300000D01*
X213653Y300979D01*
X213275Y301891D01*
X212674Y302674D01*
X211891Y303275D01*
X210979Y303653D01*
X210000Y303782D01*
D02*
G37*
G36*
X110500Y298921D02*
Y295500D01*
X113921D01*
X113851Y296032D01*
X113453Y296993D01*
X112819Y297819D01*
X111993Y298453D01*
X111032Y298851D01*
X110500Y298921D01*
D02*
G37*
G36*
X80500D02*
Y295500D01*
X83921D01*
X83851Y296032D01*
X83453Y296993D01*
X82819Y297819D01*
X81993Y298453D01*
X81032Y298851D01*
X80500Y298921D01*
D02*
G37*
G36*
X50500D02*
Y295500D01*
X53921D01*
X53851Y296032D01*
X53453Y296993D01*
X52819Y297819D01*
X51993Y298453D01*
X51032Y298851D01*
X50500Y298921D01*
D02*
G37*
G36*
X20500D02*
Y295500D01*
X23921D01*
X23851Y296032D01*
X23453Y296993D01*
X22819Y297819D01*
X21993Y298453D01*
X21032Y298851D01*
X20500Y298921D01*
D02*
G37*
G36*
X109500D02*
X108968Y298851D01*
X108007Y298453D01*
X107181Y297819D01*
X106547Y296993D01*
X106149Y296032D01*
X106079Y295500D01*
X109500D01*
Y298921D01*
D02*
G37*
G36*
X79500D02*
X78968Y298851D01*
X78007Y298453D01*
X77181Y297819D01*
X76547Y296993D01*
X76149Y296032D01*
X76079Y295500D01*
X79500D01*
Y298921D01*
D02*
G37*
G36*
X49500D02*
X48968Y298851D01*
X48007Y298453D01*
X47181Y297819D01*
X46547Y296993D01*
X46149Y296032D01*
X46079Y295500D01*
X49500D01*
Y298921D01*
D02*
G37*
G36*
X19500D02*
X18968Y298851D01*
X18007Y298453D01*
X17181Y297819D01*
X16547Y296993D01*
X16149Y296032D01*
X16079Y295500D01*
X19500D01*
Y298921D01*
D02*
G37*
G36*
X310000Y293782D02*
X309021Y293653D01*
X308109Y293275D01*
X307326Y292674D01*
X306725Y291891D01*
X306512Y291376D01*
X303488D01*
X303275Y291891D01*
X302674Y292674D01*
X301891Y293275D01*
X300979Y293653D01*
X300000Y293782D01*
X299021Y293653D01*
X298109Y293275D01*
X297326Y292674D01*
X296725Y291891D01*
X296347Y290979D01*
X296218Y290000D01*
X296347Y289021D01*
X296725Y288109D01*
X297326Y287326D01*
X298109Y286725D01*
X299021Y286347D01*
X300000Y286218D01*
X300979Y286347D01*
X301891Y286725D01*
X302674Y287326D01*
X303275Y288109D01*
X303488Y288623D01*
X306512D01*
X306725Y288109D01*
X307326Y287326D01*
X308109Y286725D01*
X309021Y286347D01*
X310000Y286218D01*
X310979Y286347D01*
X311891Y286725D01*
X312674Y287326D01*
X313275Y288109D01*
X313653Y289021D01*
X313782Y290000D01*
X313653Y290979D01*
X313275Y291891D01*
X312674Y292674D01*
X311891Y293275D01*
X310979Y293653D01*
X310000Y293782D01*
D02*
G37*
G36*
X113921Y294500D02*
X110500D01*
Y291079D01*
X111032Y291149D01*
X111993Y291547D01*
X112819Y292181D01*
X113453Y293007D01*
X113851Y293968D01*
X113921Y294500D01*
D02*
G37*
G36*
X83921D02*
X80500D01*
Y291079D01*
X81032Y291149D01*
X81993Y291547D01*
X82819Y292181D01*
X83453Y293007D01*
X83851Y293968D01*
X83921Y294500D01*
D02*
G37*
G36*
X53921D02*
X50500D01*
Y291079D01*
X51032Y291149D01*
X51993Y291547D01*
X52819Y292181D01*
X53453Y293007D01*
X53851Y293968D01*
X53921Y294500D01*
D02*
G37*
G36*
X23921D02*
X20500D01*
Y291079D01*
X21032Y291149D01*
X21993Y291547D01*
X22819Y292181D01*
X23453Y293007D01*
X23851Y293968D01*
X23921Y294500D01*
D02*
G37*
G36*
X109500D02*
X106079D01*
X106149Y293968D01*
X106547Y293007D01*
X107181Y292181D01*
X108007Y291547D01*
X108968Y291149D01*
X109500Y291079D01*
Y294500D01*
D02*
G37*
G36*
X79500D02*
X76079D01*
X76149Y293968D01*
X76547Y293007D01*
X77181Y292181D01*
X78007Y291547D01*
X78968Y291149D01*
X79500Y291079D01*
Y294500D01*
D02*
G37*
G36*
X49500D02*
X46079D01*
X46149Y293968D01*
X46547Y293007D01*
X47181Y292181D01*
X48007Y291547D01*
X48968Y291149D01*
X49500Y291079D01*
Y294500D01*
D02*
G37*
G36*
X19500D02*
X16079D01*
X16149Y293968D01*
X16547Y293007D01*
X17181Y292181D01*
X18007Y291547D01*
X18968Y291149D01*
X19500Y291079D01*
Y294500D01*
D02*
G37*
G36*
X380000Y310475D02*
X378361Y310346D01*
X376763Y309962D01*
X375244Y309333D01*
X373843Y308474D01*
X372593Y307407D01*
X371526Y306157D01*
X370667Y304755D01*
X370038Y303237D01*
X369654Y301639D01*
X369525Y300000D01*
X369654Y298361D01*
X370038Y296763D01*
X370667Y295245D01*
X371526Y293843D01*
X372593Y292593D01*
X373843Y291526D01*
X375244Y290667D01*
X376763Y290038D01*
X378361Y289654D01*
X380000Y289525D01*
X381639Y289654D01*
X383237Y290038D01*
X384755Y290667D01*
X386157Y291526D01*
X387407Y292593D01*
X388474Y293843D01*
X389333Y295245D01*
X389962Y296763D01*
X390346Y298361D01*
X390475Y300000D01*
X390346Y301639D01*
X389962Y303237D01*
X389333Y304755D01*
X388474Y306157D01*
X387407Y307407D01*
X386157Y308474D01*
X384755Y309333D01*
X383237Y309962D01*
X381639Y310346D01*
X380000Y310475D01*
D02*
G37*
G36*
X210000Y293782D02*
X209021Y293653D01*
X208109Y293275D01*
X207326Y292674D01*
X206725Y291891D01*
X206347Y290979D01*
X206218Y290000D01*
X206347Y289021D01*
X206725Y288109D01*
X207326Y287326D01*
X208109Y286725D01*
X209021Y286347D01*
X210000Y286218D01*
X210979Y286347D01*
X211891Y286725D01*
X212674Y287326D01*
X213275Y288109D01*
X213653Y289021D01*
X213782Y290000D01*
X213653Y290979D01*
X213275Y291891D01*
X212674Y292674D01*
X211891Y293275D01*
X210979Y293653D01*
X210000Y293782D01*
D02*
G37*
G36*
X340500Y288921D02*
Y285500D01*
X343921D01*
X343851Y286032D01*
X343453Y286993D01*
X342819Y287819D01*
X341993Y288453D01*
X341032Y288851D01*
X340500Y288921D01*
D02*
G37*
G36*
X339500D02*
X338968Y288851D01*
X338007Y288453D01*
X337181Y287819D01*
X336547Y286993D01*
X336149Y286032D01*
X336079Y285500D01*
X339500D01*
Y288921D01*
D02*
G37*
G36*
X363553Y288553D02*
X356447D01*
Y281447D01*
X363553D01*
Y288553D01*
D02*
G37*
G36*
X350000Y288583D02*
X349073Y288461D01*
X348208Y288103D01*
X347466Y287534D01*
X346897Y286792D01*
X346539Y285927D01*
X346417Y285000D01*
X346539Y284073D01*
X346897Y283208D01*
X347466Y282466D01*
X348208Y281897D01*
X349073Y281539D01*
X350000Y281417D01*
X350927Y281539D01*
X351792Y281897D01*
X352534Y282466D01*
X353103Y283208D01*
X353461Y284073D01*
X353583Y285000D01*
X353461Y285927D01*
X353103Y286792D01*
X352534Y287534D01*
X351792Y288103D01*
X350927Y288461D01*
X350000Y288583D01*
D02*
G37*
G36*
X310000Y283782D02*
X309021Y283653D01*
X308109Y283275D01*
X307326Y282674D01*
X306725Y281891D01*
X306512Y281377D01*
X303488D01*
X303275Y281891D01*
X302674Y282674D01*
X301891Y283275D01*
X300979Y283653D01*
X300000Y283782D01*
X299021Y283653D01*
X298109Y283275D01*
X297326Y282674D01*
X296725Y281891D01*
X296347Y280979D01*
X296218Y280000D01*
X296347Y279021D01*
X296725Y278109D01*
X297326Y277326D01*
X298109Y276725D01*
X299021Y276347D01*
X300000Y276218D01*
X300979Y276347D01*
X301891Y276725D01*
X302674Y277326D01*
X303275Y278109D01*
X303488Y278624D01*
X306512D01*
X306725Y278109D01*
X307326Y277326D01*
X308109Y276725D01*
X309021Y276347D01*
X310000Y276218D01*
X310979Y276347D01*
X311891Y276725D01*
X312674Y277326D01*
X313275Y278109D01*
X313653Y279021D01*
X313782Y280000D01*
X313653Y280979D01*
X313275Y281891D01*
X312674Y282674D01*
X311891Y283275D01*
X310979Y283653D01*
X310000Y283782D01*
D02*
G37*
G36*
X343921Y284500D02*
X340500D01*
Y281079D01*
X341032Y281149D01*
X341993Y281547D01*
X342819Y282181D01*
X343453Y283007D01*
X343851Y283968D01*
X343921Y284500D01*
D02*
G37*
G36*
X339500D02*
X336079D01*
X336149Y283968D01*
X336547Y283007D01*
X337181Y282181D01*
X338007Y281547D01*
X338968Y281149D01*
X339500Y281079D01*
Y284500D01*
D02*
G37*
G36*
X170000Y278583D02*
X169073Y278461D01*
X168208Y278103D01*
X167466Y277534D01*
X166897Y276792D01*
X166725Y276377D01*
X143275D01*
X143103Y276792D01*
X142534Y277534D01*
X141792Y278103D01*
X140927Y278461D01*
X140000Y278583D01*
X139073Y278461D01*
X138208Y278103D01*
X137466Y277534D01*
X136897Y276792D01*
X136725Y276377D01*
X113275D01*
X113103Y276792D01*
X112534Y277534D01*
X111792Y278103D01*
X110927Y278461D01*
X110000Y278583D01*
X109073Y278461D01*
X108208Y278103D01*
X107466Y277534D01*
X106897Y276792D01*
X106725Y276377D01*
X83275D01*
X83103Y276792D01*
X82534Y277534D01*
X81792Y278103D01*
X80927Y278461D01*
X80000Y278583D01*
X79073Y278461D01*
X78208Y278103D01*
X77466Y277534D01*
X76897Y276792D01*
X76725Y276377D01*
X53275D01*
X53103Y276792D01*
X52534Y277534D01*
X51792Y278103D01*
X50927Y278461D01*
X50000Y278583D01*
X49073Y278461D01*
X48208Y278103D01*
X47466Y277534D01*
X46897Y276792D01*
X46725Y276377D01*
X23275D01*
X23103Y276792D01*
X22534Y277534D01*
X21792Y278103D01*
X20927Y278461D01*
X20000Y278583D01*
X19073Y278461D01*
X18208Y278103D01*
X17466Y277534D01*
X16897Y276792D01*
X16539Y275927D01*
X16417Y275000D01*
X16539Y274073D01*
X16897Y273208D01*
X17466Y272466D01*
X18208Y271897D01*
X19073Y271539D01*
X20000Y271417D01*
X20927Y271539D01*
X21792Y271897D01*
X22534Y272466D01*
X23103Y273208D01*
X23275Y273623D01*
X46725D01*
X46897Y273208D01*
X47466Y272466D01*
X48208Y271897D01*
X49073Y271539D01*
X50000Y271417D01*
X50927Y271539D01*
X51792Y271897D01*
X52534Y272466D01*
X53103Y273208D01*
X53275Y273623D01*
X76725D01*
X76897Y273208D01*
X77466Y272466D01*
X78208Y271897D01*
X79073Y271539D01*
X80000Y271417D01*
X80927Y271539D01*
X81792Y271897D01*
X82534Y272466D01*
X83103Y273208D01*
X83275Y273623D01*
X106725D01*
X106897Y273208D01*
X107466Y272466D01*
X108208Y271897D01*
X109073Y271539D01*
X110000Y271417D01*
X110927Y271539D01*
X111792Y271897D01*
X112534Y272466D01*
X113103Y273208D01*
X113275Y273623D01*
X136725D01*
X136897Y273208D01*
X137466Y272466D01*
X138208Y271897D01*
X139073Y271539D01*
X140000Y271417D01*
X140927Y271539D01*
X141792Y271897D01*
X142534Y272466D01*
X143103Y273208D01*
X143275Y273623D01*
X166725D01*
X166897Y273208D01*
X167466Y272466D01*
X168208Y271897D01*
X169073Y271539D01*
X170000Y271417D01*
X170927Y271539D01*
X171792Y271897D01*
X172534Y272466D01*
X173103Y273208D01*
X173461Y274073D01*
X173583Y275000D01*
X173461Y275927D01*
X173103Y276792D01*
X172534Y277534D01*
X171792Y278103D01*
X170927Y278461D01*
X170000Y278583D01*
D02*
G37*
G36*
X210000Y283782D02*
X209021Y283653D01*
X208109Y283275D01*
X207326Y282674D01*
X206725Y281891D01*
X206347Y280979D01*
X206218Y280000D01*
X206347Y279021D01*
X206725Y278109D01*
X207326Y277326D01*
X208109Y276725D01*
X209021Y276347D01*
X210000Y276218D01*
X210979Y276347D01*
X211891Y276725D01*
X212674Y277326D01*
X213275Y278109D01*
X213653Y279021D01*
X213782Y280000D01*
X213653Y280979D01*
X213275Y281891D01*
X212674Y282674D01*
X211891Y283275D01*
X210979Y283653D01*
X210000Y283782D01*
D02*
G37*
G36*
X310000Y273782D02*
X309021Y273653D01*
X308109Y273275D01*
X307326Y272674D01*
X306725Y271891D01*
X306512Y271376D01*
X303488D01*
X303275Y271891D01*
X302674Y272674D01*
X301891Y273275D01*
X300979Y273653D01*
X300000Y273782D01*
X299021Y273653D01*
X298109Y273275D01*
X297326Y272674D01*
X296725Y271891D01*
X296347Y270979D01*
X296218Y270000D01*
X296347Y269021D01*
X296725Y268109D01*
X297326Y267326D01*
X298109Y266725D01*
X299021Y266347D01*
X300000Y266218D01*
X300979Y266347D01*
X301891Y266725D01*
X302674Y267326D01*
X303275Y268109D01*
X303488Y268623D01*
X306512D01*
X306725Y268109D01*
X307326Y267326D01*
X308109Y266725D01*
X309021Y266347D01*
X310000Y266218D01*
X310979Y266347D01*
X311891Y266725D01*
X312674Y267326D01*
X313275Y268109D01*
X313653Y269021D01*
X313782Y270000D01*
X313653Y270979D01*
X313275Y271891D01*
X312674Y272674D01*
X311891Y273275D01*
X310979Y273653D01*
X310000Y273782D01*
D02*
G37*
G36*
X170000Y268583D02*
X169073Y268461D01*
X168208Y268103D01*
X167466Y267534D01*
X166897Y266792D01*
X166725Y266376D01*
X143275D01*
X143103Y266792D01*
X142534Y267534D01*
X141792Y268103D01*
X140927Y268461D01*
X140000Y268583D01*
X139073Y268461D01*
X138208Y268103D01*
X137466Y267534D01*
X136897Y266792D01*
X136725Y266376D01*
X113275D01*
X113103Y266792D01*
X112534Y267534D01*
X111792Y268103D01*
X110927Y268461D01*
X110000Y268583D01*
X109073Y268461D01*
X108208Y268103D01*
X107466Y267534D01*
X106897Y266792D01*
X106725Y266376D01*
X83275D01*
X83103Y266792D01*
X82534Y267534D01*
X81792Y268103D01*
X80927Y268461D01*
X80000Y268583D01*
X79073Y268461D01*
X78208Y268103D01*
X77466Y267534D01*
X76897Y266792D01*
X76725Y266376D01*
X53275D01*
X53103Y266792D01*
X52534Y267534D01*
X51792Y268103D01*
X50927Y268461D01*
X50000Y268583D01*
X49073Y268461D01*
X48208Y268103D01*
X47466Y267534D01*
X46897Y266792D01*
X46725Y266376D01*
X23275D01*
X23103Y266792D01*
X22534Y267534D01*
X21792Y268103D01*
X20927Y268461D01*
X20000Y268583D01*
X19073Y268461D01*
X18208Y268103D01*
X17466Y267534D01*
X16897Y266792D01*
X16539Y265927D01*
X16417Y265000D01*
X16539Y264073D01*
X16897Y263208D01*
X17466Y262466D01*
X18208Y261897D01*
X19073Y261539D01*
X20000Y261417D01*
X20927Y261539D01*
X21792Y261897D01*
X22534Y262466D01*
X23103Y263208D01*
X23275Y263623D01*
X46725D01*
X46897Y263208D01*
X47466Y262466D01*
X48208Y261897D01*
X49073Y261539D01*
X50000Y261417D01*
X50927Y261539D01*
X51792Y261897D01*
X52534Y262466D01*
X53103Y263208D01*
X53275Y263623D01*
X76725D01*
X76897Y263208D01*
X77466Y262466D01*
X78208Y261897D01*
X79073Y261539D01*
X80000Y261417D01*
X80927Y261539D01*
X81792Y261897D01*
X82534Y262466D01*
X83103Y263208D01*
X83275Y263623D01*
X106725D01*
X106897Y263208D01*
X107466Y262466D01*
X108208Y261897D01*
X109073Y261539D01*
X110000Y261417D01*
X110927Y261539D01*
X111792Y261897D01*
X112534Y262466D01*
X113103Y263208D01*
X113275Y263623D01*
X136725D01*
X136897Y263208D01*
X137466Y262466D01*
X138208Y261897D01*
X139073Y261539D01*
X140000Y261417D01*
X140927Y261539D01*
X141792Y261897D01*
X142534Y262466D01*
X143103Y263208D01*
X143275Y263623D01*
X166725D01*
X166897Y263208D01*
X167466Y262466D01*
X168208Y261897D01*
X169073Y261539D01*
X170000Y261417D01*
X170927Y261539D01*
X171792Y261897D01*
X172534Y262466D01*
X173103Y263208D01*
X173461Y264073D01*
X173583Y265000D01*
X173461Y265927D01*
X173103Y266792D01*
X172534Y267534D01*
X171792Y268103D01*
X170927Y268461D01*
X170000Y268583D01*
D02*
G37*
G36*
X210000Y273782D02*
X209021Y273653D01*
X208109Y273275D01*
X207326Y272674D01*
X206725Y271891D01*
X206347Y270979D01*
X206218Y270000D01*
X206347Y269021D01*
X206725Y268109D01*
X207326Y267326D01*
X208109Y266725D01*
X209021Y266347D01*
X210000Y266218D01*
X210979Y266347D01*
X211891Y266725D01*
X212674Y267326D01*
X213275Y268109D01*
X213653Y269021D01*
X213782Y270000D01*
X213653Y270979D01*
X213275Y271891D01*
X212674Y272674D01*
X211891Y273275D01*
X210979Y273653D01*
X210000Y273782D01*
D02*
G37*
G36*
X309500Y264150D02*
X305850D01*
Y261377D01*
X304150D01*
Y264150D01*
X300500D01*
Y260000D01*
Y255850D01*
X304150D01*
Y258624D01*
X305850D01*
Y255850D01*
X309500D01*
Y260000D01*
Y264150D01*
D02*
G37*
G36*
X314150D02*
X310500D01*
Y260500D01*
X314150D01*
Y264150D01*
D02*
G37*
G36*
X299500D02*
X295850D01*
Y260500D01*
X299500D01*
Y264150D01*
D02*
G37*
G36*
X210000Y263782D02*
X209021Y263653D01*
X208109Y263275D01*
X207326Y262674D01*
X206725Y261891D01*
X206347Y260979D01*
X206218Y260000D01*
X206347Y259021D01*
X206725Y258109D01*
X207326Y257326D01*
X208109Y256725D01*
X209021Y256347D01*
X210000Y256218D01*
X210979Y256347D01*
X211891Y256725D01*
X212674Y257326D01*
X213275Y258109D01*
X213653Y259021D01*
X213782Y260000D01*
X213653Y260979D01*
X213275Y261891D01*
X212674Y262674D01*
X211891Y263275D01*
X210979Y263653D01*
X210000Y263782D01*
D02*
G37*
G36*
X314150Y259500D02*
X310500D01*
Y255850D01*
X314150D01*
Y259500D01*
D02*
G37*
G36*
X299500D02*
X295850D01*
Y255850D01*
X299500D01*
Y259500D01*
D02*
G37*
G36*
X360000Y259988D02*
X359227Y259886D01*
X358506Y259588D01*
X357887Y259113D01*
X357413Y258494D01*
X357114Y257773D01*
X357012Y257000D01*
X357114Y256227D01*
X357413Y255506D01*
X357887Y254887D01*
X358506Y254413D01*
X359227Y254114D01*
X360000Y254012D01*
X360773Y254114D01*
X361494Y254413D01*
X362113Y254887D01*
X362587Y255506D01*
X362886Y256227D01*
X362988Y257000D01*
X362886Y257773D01*
X362587Y258494D01*
X362113Y259113D01*
X361494Y259588D01*
X360773Y259886D01*
X360000Y259988D01*
D02*
G37*
G36*
X350000D02*
X349227Y259886D01*
X348506Y259588D01*
X347887Y259113D01*
X347412Y258494D01*
X347114Y257773D01*
X347012Y257000D01*
X347114Y256227D01*
X347412Y255506D01*
X347887Y254887D01*
X348506Y254413D01*
X349227Y254114D01*
X350000Y254012D01*
X350773Y254114D01*
X351494Y254413D01*
X352113Y254887D01*
X352588Y255506D01*
X352886Y256227D01*
X352988Y257000D01*
X352886Y257773D01*
X352588Y258494D01*
X352113Y259113D01*
X351494Y259588D01*
X350773Y259886D01*
X350000Y259988D01*
D02*
G37*
G36*
X336000Y258583D02*
X335073Y258461D01*
X334208Y258103D01*
X333466Y257534D01*
X332897Y256792D01*
X332539Y255927D01*
X332417Y255000D01*
X332539Y254073D01*
X332897Y253208D01*
X333466Y252466D01*
X334208Y251897D01*
X335073Y251539D01*
X336000Y251417D01*
X336927Y251539D01*
X337792Y251897D01*
X338534Y252466D01*
X339103Y253208D01*
X339461Y254073D01*
X339583Y255000D01*
X339461Y255927D01*
X339103Y256792D01*
X338534Y257534D01*
X337792Y258103D01*
X336927Y258461D01*
X336000Y258583D01*
D02*
G37*
G36*
X310000Y253782D02*
X309021Y253653D01*
X308109Y253275D01*
X307326Y252674D01*
X306725Y251891D01*
X306512Y251377D01*
X303488D01*
X303275Y251891D01*
X302674Y252674D01*
X301891Y253275D01*
X300979Y253653D01*
X300000Y253782D01*
X299021Y253653D01*
X298109Y253275D01*
X297326Y252674D01*
X296725Y251891D01*
X296347Y250979D01*
X296218Y250000D01*
X296347Y249021D01*
X296725Y248109D01*
X297326Y247326D01*
X298109Y246725D01*
X299021Y246347D01*
X300000Y246218D01*
X300979Y246347D01*
X301891Y246725D01*
X302674Y247326D01*
X303275Y248109D01*
X303488Y248623D01*
X306512D01*
X306725Y248109D01*
X307326Y247326D01*
X308109Y246725D01*
X309021Y246347D01*
X310000Y246218D01*
X310979Y246347D01*
X311891Y246725D01*
X312674Y247326D01*
X313275Y248109D01*
X313653Y249021D01*
X313782Y250000D01*
X313653Y250979D01*
X313275Y251891D01*
X312674Y252674D01*
X311891Y253275D01*
X310979Y253653D01*
X310000Y253782D01*
D02*
G37*
G36*
X210000D02*
X209021Y253653D01*
X208109Y253275D01*
X207326Y252674D01*
X206725Y251891D01*
X206347Y250979D01*
X206218Y250000D01*
X206347Y249021D01*
X206725Y248109D01*
X207326Y247326D01*
X208109Y246725D01*
X209021Y246347D01*
X210000Y246218D01*
X210979Y246347D01*
X211891Y246725D01*
X212674Y247326D01*
X213275Y248109D01*
X213653Y249021D01*
X213782Y250000D01*
X213653Y250979D01*
X213275Y251891D01*
X212674Y252674D01*
X211891Y253275D01*
X210979Y253653D01*
X210000Y253782D01*
D02*
G37*
G36*
X360000Y247988D02*
X359227Y247886D01*
X358506Y247587D01*
X357887Y247113D01*
X357413Y246494D01*
X357114Y245773D01*
X357012Y245000D01*
X357114Y244227D01*
X357413Y243506D01*
X357887Y242887D01*
X358506Y242412D01*
X359227Y242114D01*
X360000Y242012D01*
X360773Y242114D01*
X361494Y242412D01*
X362113Y242887D01*
X362587Y243506D01*
X362886Y244227D01*
X362988Y245000D01*
X362886Y245773D01*
X362587Y246494D01*
X362113Y247113D01*
X361494Y247587D01*
X360773Y247886D01*
X360000Y247988D01*
D02*
G37*
G36*
X350000D02*
X349227Y247886D01*
X348506Y247587D01*
X347887Y247113D01*
X347412Y246494D01*
X347114Y245773D01*
X347012Y245000D01*
X347114Y244227D01*
X347412Y243506D01*
X347887Y242887D01*
X348506Y242412D01*
X349227Y242114D01*
X350000Y242012D01*
X350773Y242114D01*
X351494Y242412D01*
X352113Y242887D01*
X352588Y243506D01*
X352886Y244227D01*
X352988Y245000D01*
X352886Y245773D01*
X352588Y246494D01*
X352113Y247113D01*
X351494Y247587D01*
X350773Y247886D01*
X350000Y247988D01*
D02*
G37*
G36*
X336000Y248583D02*
X335073Y248461D01*
X334208Y248103D01*
X333466Y247534D01*
X332897Y246792D01*
X332539Y245927D01*
X332417Y245000D01*
X332539Y244073D01*
X332897Y243208D01*
X333466Y242466D01*
X334208Y241897D01*
X335073Y241539D01*
X336000Y241417D01*
X336927Y241539D01*
X337792Y241897D01*
X338534Y242466D01*
X339103Y243208D01*
X339461Y244073D01*
X339583Y245000D01*
X339461Y245927D01*
X339103Y246792D01*
X338534Y247534D01*
X337792Y248103D01*
X336927Y248461D01*
X336000Y248583D01*
D02*
G37*
G36*
X310000Y243782D02*
X309021Y243653D01*
X308109Y243275D01*
X307326Y242674D01*
X306725Y241891D01*
X306512Y241376D01*
X303488D01*
X303275Y241891D01*
X302674Y242674D01*
X301891Y243275D01*
X300979Y243653D01*
X300000Y243782D01*
X299021Y243653D01*
X298109Y243275D01*
X297326Y242674D01*
X296725Y241891D01*
X296347Y240979D01*
X296218Y240000D01*
X296347Y239021D01*
X296725Y238109D01*
X297326Y237326D01*
X298109Y236725D01*
X299021Y236347D01*
X300000Y236218D01*
X300979Y236347D01*
X301891Y236725D01*
X302674Y237326D01*
X303275Y238109D01*
X303488Y238623D01*
X306512D01*
X306725Y238109D01*
X307326Y237326D01*
X308109Y236725D01*
X309021Y236347D01*
X310000Y236218D01*
X310979Y236347D01*
X311891Y236725D01*
X312674Y237326D01*
X313275Y238109D01*
X313653Y239021D01*
X313782Y240000D01*
X313653Y240979D01*
X313275Y241891D01*
X312674Y242674D01*
X311891Y243275D01*
X310979Y243653D01*
X310000Y243782D01*
D02*
G37*
G36*
X210000D02*
X209021Y243653D01*
X208109Y243275D01*
X207326Y242674D01*
X206725Y241891D01*
X206347Y240979D01*
X206218Y240000D01*
X206347Y239021D01*
X206725Y238109D01*
X207326Y237326D01*
X208109Y236725D01*
X209021Y236347D01*
X210000Y236218D01*
X210979Y236347D01*
X211891Y236725D01*
X212674Y237326D01*
X213275Y238109D01*
X213653Y239021D01*
X213782Y240000D01*
X213653Y240979D01*
X213275Y241891D01*
X212674Y242674D01*
X211891Y243275D01*
X210979Y243653D01*
X210000Y243782D01*
D02*
G37*
G36*
X336000Y238583D02*
X335073Y238461D01*
X334208Y238103D01*
X333466Y237534D01*
X332897Y236792D01*
X332539Y235927D01*
X332417Y235000D01*
X332539Y234073D01*
X332897Y233208D01*
X333466Y232466D01*
X334208Y231897D01*
X335073Y231539D01*
X336000Y231417D01*
X336927Y231539D01*
X337792Y231897D01*
X338534Y232466D01*
X339103Y233208D01*
X339461Y234073D01*
X339583Y235000D01*
X339461Y235927D01*
X339103Y236792D01*
X338534Y237534D01*
X337792Y238103D01*
X336927Y238461D01*
X336000Y238583D01*
D02*
G37*
G36*
X310000Y233782D02*
X309021Y233653D01*
X308109Y233275D01*
X307326Y232674D01*
X306725Y231891D01*
X306512Y231377D01*
X303488D01*
X303275Y231891D01*
X302674Y232674D01*
X301891Y233275D01*
X300979Y233653D01*
X300000Y233782D01*
X299021Y233653D01*
X298109Y233275D01*
X297326Y232674D01*
X296725Y231891D01*
X296347Y230979D01*
X296218Y230000D01*
X296347Y229021D01*
X296725Y228109D01*
X297326Y227326D01*
X298109Y226725D01*
X299021Y226347D01*
X300000Y226218D01*
X300979Y226347D01*
X301891Y226725D01*
X302674Y227326D01*
X303275Y228109D01*
X303488Y228624D01*
X306512D01*
X306725Y228109D01*
X307326Y227326D01*
X308109Y226725D01*
X309021Y226347D01*
X310000Y226218D01*
X310979Y226347D01*
X311891Y226725D01*
X312674Y227326D01*
X313275Y228109D01*
X313653Y229021D01*
X313782Y230000D01*
X313653Y230979D01*
X313275Y231891D01*
X312674Y232674D01*
X311891Y233275D01*
X310979Y233653D01*
X310000Y233782D01*
D02*
G37*
G36*
X360000Y235988D02*
X359227Y235886D01*
X358506Y235588D01*
X357887Y235113D01*
X357413Y234494D01*
X357114Y233773D01*
X357012Y233000D01*
X357114Y232227D01*
X357413Y231506D01*
X357887Y230887D01*
X358506Y230413D01*
X359227Y230114D01*
X360000Y230012D01*
X360773Y230114D01*
X361494Y230413D01*
X362113Y230887D01*
X362587Y231506D01*
X362886Y232227D01*
X362988Y233000D01*
X362886Y233773D01*
X362587Y234494D01*
X362113Y235113D01*
X361494Y235588D01*
X360773Y235886D01*
X360000Y235988D01*
D02*
G37*
G36*
X350000D02*
X349227Y235886D01*
X348506Y235588D01*
X347887Y235113D01*
X347412Y234494D01*
X347114Y233773D01*
X347012Y233000D01*
X347114Y232227D01*
X347412Y231506D01*
X347887Y230887D01*
X348506Y230413D01*
X349227Y230114D01*
X350000Y230012D01*
X350773Y230114D01*
X351494Y230413D01*
X352113Y230887D01*
X352588Y231506D01*
X352886Y232227D01*
X352988Y233000D01*
X352886Y233773D01*
X352588Y234494D01*
X352113Y235113D01*
X351494Y235588D01*
X350773Y235886D01*
X350000Y235988D01*
D02*
G37*
G36*
X380000Y250475D02*
X378361Y250346D01*
X376763Y249962D01*
X375244Y249333D01*
X373843Y248474D01*
X372593Y247407D01*
X371526Y246157D01*
X370667Y244756D01*
X370038Y243237D01*
X369654Y241639D01*
X369525Y240000D01*
X369654Y238361D01*
X370038Y236763D01*
X370667Y235244D01*
X371526Y233843D01*
X372593Y232593D01*
X373843Y231526D01*
X375244Y230667D01*
X376763Y230038D01*
X378361Y229654D01*
X380000Y229525D01*
X381639Y229654D01*
X383237Y230038D01*
X384755Y230667D01*
X386157Y231526D01*
X387407Y232593D01*
X388474Y233843D01*
X389333Y235244D01*
X389962Y236763D01*
X390346Y238361D01*
X390475Y240000D01*
X390346Y241639D01*
X389962Y243237D01*
X389333Y244756D01*
X388474Y246157D01*
X387407Y247407D01*
X386157Y248474D01*
X384755Y249333D01*
X383237Y249962D01*
X381639Y250346D01*
X380000Y250475D01*
D02*
G37*
G36*
X20000D02*
X18361Y250346D01*
X16763Y249962D01*
X15245Y249333D01*
X13843Y248474D01*
X12593Y247407D01*
X11526Y246157D01*
X10667Y244756D01*
X10038Y243237D01*
X9654Y241639D01*
X9525Y240000D01*
X9654Y238361D01*
X10038Y236763D01*
X10667Y235244D01*
X11526Y233843D01*
X12593Y232593D01*
X13843Y231526D01*
X15245Y230667D01*
X16763Y230038D01*
X18361Y229654D01*
X20000Y229525D01*
X21639Y229654D01*
X23237Y230038D01*
X24756Y230667D01*
X26157Y231526D01*
X27407Y232593D01*
X28474Y233843D01*
X29333Y235244D01*
X29962Y236763D01*
X30346Y238361D01*
X30475Y240000D01*
X30346Y241639D01*
X29962Y243237D01*
X29333Y244756D01*
X28474Y246157D01*
X27407Y247407D01*
X26157Y248474D01*
X24756Y249333D01*
X23237Y249962D01*
X21639Y250346D01*
X20000Y250475D01*
D02*
G37*
G36*
X248657Y231623D02*
Y228500D01*
X251781D01*
X251721Y228955D01*
X251352Y229844D01*
X250766Y230609D01*
X250002Y231195D01*
X249112Y231563D01*
X248657Y231623D01*
D02*
G37*
G36*
X247657D02*
X247203Y231563D01*
X246313Y231195D01*
X245549Y230609D01*
X244963Y229844D01*
X244594Y228955D01*
X244534Y228500D01*
X247657D01*
Y231623D01*
D02*
G37*
G36*
X123553Y233553D02*
X116447D01*
Y226447D01*
X123553D01*
Y233553D01*
D02*
G37*
G36*
X110000Y233583D02*
X109073Y233461D01*
X108208Y233103D01*
X107466Y232534D01*
X106897Y231792D01*
X106539Y230927D01*
X106417Y230000D01*
X106539Y229073D01*
X106897Y228208D01*
X107466Y227466D01*
X108208Y226897D01*
X109073Y226539D01*
X110000Y226417D01*
X110927Y226539D01*
X111792Y226897D01*
X112534Y227466D01*
X113103Y228208D01*
X113461Y229073D01*
X113583Y230000D01*
X113461Y230927D01*
X113103Y231792D01*
X112534Y232534D01*
X111792Y233103D01*
X110927Y233461D01*
X110000Y233583D01*
D02*
G37*
G36*
X100000D02*
X99073Y233461D01*
X98208Y233103D01*
X97466Y232534D01*
X96897Y231792D01*
X96539Y230927D01*
X96417Y230000D01*
X96539Y229073D01*
X96897Y228208D01*
X97466Y227466D01*
X98208Y226897D01*
X99073Y226539D01*
X100000Y226417D01*
X100927Y226539D01*
X101792Y226897D01*
X102534Y227466D01*
X103103Y228208D01*
X103461Y229073D01*
X103583Y230000D01*
X103461Y230927D01*
X103103Y231792D01*
X102534Y232534D01*
X101792Y233103D01*
X100927Y233461D01*
X100000Y233583D01*
D02*
G37*
G36*
X90000D02*
X89073Y233461D01*
X88208Y233103D01*
X87466Y232534D01*
X86897Y231792D01*
X86539Y230927D01*
X86417Y230000D01*
X86539Y229073D01*
X86897Y228208D01*
X87466Y227466D01*
X88208Y226897D01*
X89073Y226539D01*
X90000Y226417D01*
X90927Y226539D01*
X91792Y226897D01*
X92534Y227466D01*
X93103Y228208D01*
X93461Y229073D01*
X93583Y230000D01*
X93461Y230927D01*
X93103Y231792D01*
X92534Y232534D01*
X91792Y233103D01*
X90927Y233461D01*
X90000Y233583D01*
D02*
G37*
G36*
X80000D02*
X79073Y233461D01*
X78208Y233103D01*
X77466Y232534D01*
X76897Y231792D01*
X76539Y230927D01*
X76417Y230000D01*
X76539Y229073D01*
X76897Y228208D01*
X77466Y227466D01*
X78208Y226897D01*
X79073Y226539D01*
X80000Y226417D01*
X80927Y226539D01*
X81792Y226897D01*
X82534Y227466D01*
X83103Y228208D01*
X83461Y229073D01*
X83583Y230000D01*
X83461Y230927D01*
X83103Y231792D01*
X82534Y232534D01*
X81792Y233103D01*
X80927Y233461D01*
X80000Y233583D01*
D02*
G37*
G36*
X70000D02*
X69073Y233461D01*
X68208Y233103D01*
X67466Y232534D01*
X66897Y231792D01*
X66539Y230927D01*
X66417Y230000D01*
X66539Y229073D01*
X66897Y228208D01*
X67466Y227466D01*
X68208Y226897D01*
X69073Y226539D01*
X70000Y226417D01*
X70927Y226539D01*
X71792Y226897D01*
X72534Y227466D01*
X73103Y228208D01*
X73461Y229073D01*
X73583Y230000D01*
X73461Y230927D01*
X73103Y231792D01*
X72534Y232534D01*
X71792Y233103D01*
X70927Y233461D01*
X70000Y233583D01*
D02*
G37*
G36*
X210000Y233782D02*
X209021Y233653D01*
X208109Y233275D01*
X207326Y232674D01*
X206725Y231891D01*
X206347Y230979D01*
X206218Y230000D01*
X206347Y229021D01*
X206725Y228109D01*
X207326Y227326D01*
X208109Y226725D01*
X209021Y226347D01*
X210000Y226218D01*
X210979Y226347D01*
X211891Y226725D01*
X212674Y227326D01*
X213275Y228109D01*
X213653Y229021D01*
X213782Y230000D01*
X213653Y230979D01*
X213275Y231891D01*
X212674Y232674D01*
X211891Y233275D01*
X210979Y233653D01*
X210000Y233782D01*
D02*
G37*
G36*
X180000Y234179D02*
X178918Y234037D01*
X177910Y233619D01*
X177045Y232955D01*
X176381Y232089D01*
X175963Y231082D01*
X175821Y230000D01*
X175963Y228918D01*
X176381Y227910D01*
X177045Y227045D01*
X177910Y226381D01*
X178918Y225963D01*
X180000Y225821D01*
X181082Y225963D01*
X182089Y226381D01*
X182955Y227045D01*
X183619Y227910D01*
X184037Y228918D01*
X184179Y230000D01*
X184037Y231082D01*
X183619Y232089D01*
X182955Y232955D01*
X182089Y233619D01*
X181082Y234037D01*
X180000Y234179D01*
D02*
G37*
G36*
X170000D02*
X168918Y234037D01*
X167911Y233619D01*
X167045Y232955D01*
X166381Y232089D01*
X165963Y231082D01*
X165821Y230000D01*
X165963Y228918D01*
X166381Y227910D01*
X167045Y227045D01*
X167911Y226381D01*
X168918Y225963D01*
X170000Y225821D01*
X171082Y225963D01*
X172090Y226381D01*
X172955Y227045D01*
X173619Y227910D01*
X174037Y228918D01*
X174179Y230000D01*
X174037Y231082D01*
X173619Y232089D01*
X172955Y232955D01*
X172090Y233619D01*
X171082Y234037D01*
X170000Y234179D01*
D02*
G37*
G36*
X160000D02*
X158918Y234037D01*
X157911Y233619D01*
X157045Y232955D01*
X156381Y232089D01*
X155963Y231082D01*
X155821Y230000D01*
X155963Y228918D01*
X156381Y227910D01*
X157045Y227045D01*
X157911Y226381D01*
X158918Y225963D01*
X160000Y225821D01*
X161082Y225963D01*
X162090Y226381D01*
X162955Y227045D01*
X163619Y227910D01*
X164037Y228918D01*
X164179Y230000D01*
X164037Y231082D01*
X163619Y232089D01*
X162955Y232955D01*
X162090Y233619D01*
X161082Y234037D01*
X160000Y234179D01*
D02*
G37*
G36*
X150000D02*
X148918Y234037D01*
X147910Y233619D01*
X147045Y232955D01*
X146381Y232089D01*
X145963Y231082D01*
X145821Y230000D01*
X145963Y228918D01*
X146381Y227910D01*
X147045Y227045D01*
X147910Y226381D01*
X148918Y225963D01*
X150000Y225821D01*
X151082Y225963D01*
X152090Y226381D01*
X152955Y227045D01*
X153619Y227910D01*
X154037Y228918D01*
X154179Y230000D01*
X154037Y231082D01*
X153619Y232089D01*
X152955Y232955D01*
X152090Y233619D01*
X151082Y234037D01*
X150000Y234179D01*
D02*
G37*
G36*
X140000D02*
X138918Y234037D01*
X137910Y233619D01*
X137045Y232955D01*
X136381Y232089D01*
X135963Y231082D01*
X135821Y230000D01*
X135963Y228918D01*
X136381Y227910D01*
X137045Y227045D01*
X137910Y226381D01*
X138918Y225963D01*
X140000Y225821D01*
X141082Y225963D01*
X142089Y226381D01*
X142955Y227045D01*
X143619Y227910D01*
X144037Y228918D01*
X144179Y230000D01*
X144037Y231082D01*
X143619Y232089D01*
X142955Y232955D01*
X142089Y233619D01*
X141082Y234037D01*
X140000Y234179D01*
D02*
G37*
G36*
X130000D02*
X128918Y234037D01*
X127910Y233619D01*
X127045Y232955D01*
X126381Y232089D01*
X125963Y231082D01*
X125821Y230000D01*
X125963Y228918D01*
X126381Y227910D01*
X127045Y227045D01*
X127910Y226381D01*
X128918Y225963D01*
X130000Y225821D01*
X131082Y225963D01*
X132089Y226381D01*
X132955Y227045D01*
X133619Y227910D01*
X134037Y228918D01*
X134179Y230000D01*
X134037Y231082D01*
X133619Y232089D01*
X132955Y232955D01*
X132089Y233619D01*
X131082Y234037D01*
X130000Y234179D01*
D02*
G37*
G36*
X60000D02*
X58918Y234037D01*
X57911Y233619D01*
X57045Y232955D01*
X56381Y232089D01*
X55963Y231082D01*
X55821Y230000D01*
X55963Y228918D01*
X56381Y227910D01*
X57045Y227045D01*
X57911Y226381D01*
X58918Y225963D01*
X60000Y225821D01*
X61082Y225963D01*
X62090Y226381D01*
X62955Y227045D01*
X63619Y227910D01*
X64037Y228918D01*
X64179Y230000D01*
X64037Y231082D01*
X63619Y232089D01*
X62955Y232955D01*
X62090Y233619D01*
X61082Y234037D01*
X60000Y234179D01*
D02*
G37*
G36*
X50000D02*
X48918Y234037D01*
X47910Y233619D01*
X47045Y232955D01*
X46381Y232089D01*
X45963Y231082D01*
X45821Y230000D01*
X45963Y228918D01*
X46381Y227910D01*
X47045Y227045D01*
X47910Y226381D01*
X48918Y225963D01*
X50000Y225821D01*
X51082Y225963D01*
X52090Y226381D01*
X52955Y227045D01*
X53619Y227910D01*
X54037Y228918D01*
X54179Y230000D01*
X54037Y231082D01*
X53619Y232089D01*
X52955Y232955D01*
X52090Y233619D01*
X51082Y234037D01*
X50000Y234179D01*
D02*
G37*
G36*
X251781Y227500D02*
X248657D01*
Y224377D01*
X249112Y224437D01*
X250002Y224805D01*
X250766Y225392D01*
X251352Y226155D01*
X251721Y227045D01*
X251781Y227500D01*
D02*
G37*
G36*
X247657D02*
X244534D01*
X244594Y227045D01*
X244963Y226155D01*
X245549Y225392D01*
X246313Y224805D01*
X247203Y224437D01*
X247657Y224377D01*
Y227500D01*
D02*
G37*
G36*
X310000Y223782D02*
X309021Y223653D01*
X308109Y223275D01*
X307326Y222674D01*
X306725Y221891D01*
X306512Y221376D01*
X303488D01*
X303275Y221891D01*
X302674Y222674D01*
X301891Y223275D01*
X300979Y223653D01*
X300000Y223782D01*
X299021Y223653D01*
X298109Y223275D01*
X297326Y222674D01*
X296725Y221891D01*
X296347Y220979D01*
X296218Y220000D01*
X296347Y219021D01*
X296725Y218109D01*
X297326Y217326D01*
X298109Y216725D01*
X299021Y216347D01*
X300000Y216218D01*
X300979Y216347D01*
X301891Y216725D01*
X302674Y217326D01*
X303275Y218109D01*
X303488Y218623D01*
X306512D01*
X306725Y218109D01*
X307326Y217326D01*
X308109Y216725D01*
X309021Y216347D01*
X310000Y216218D01*
X310979Y216347D01*
X311891Y216725D01*
X312674Y217326D01*
X313275Y218109D01*
X313653Y219021D01*
X313782Y220000D01*
X313653Y220979D01*
X313275Y221891D01*
X312674Y222674D01*
X311891Y223275D01*
X310979Y223653D01*
X310000Y223782D01*
D02*
G37*
G36*
X180000Y224179D02*
X178918Y224037D01*
X177910Y223619D01*
X177045Y222955D01*
X176381Y222090D01*
X175963Y221082D01*
X175821Y220000D01*
X175963Y218918D01*
X176381Y217911D01*
X177045Y217045D01*
X177910Y216381D01*
X178918Y215963D01*
X180000Y215821D01*
X181082Y215963D01*
X182089Y216381D01*
X182955Y217045D01*
X183619Y217911D01*
X184037Y218918D01*
X184179Y220000D01*
X184037Y221082D01*
X183619Y222090D01*
X182955Y222955D01*
X182089Y223619D01*
X181082Y224037D01*
X180000Y224179D01*
D02*
G37*
G36*
X170000D02*
X168918Y224037D01*
X167911Y223619D01*
X167045Y222955D01*
X166381Y222090D01*
X165963Y221082D01*
X165821Y220000D01*
X165963Y218918D01*
X166381Y217911D01*
X167045Y217045D01*
X167911Y216381D01*
X168918Y215963D01*
X170000Y215821D01*
X171082Y215963D01*
X172090Y216381D01*
X172955Y217045D01*
X173619Y217911D01*
X174037Y218918D01*
X174179Y220000D01*
X174037Y221082D01*
X173619Y222090D01*
X172955Y222955D01*
X172090Y223619D01*
X171082Y224037D01*
X170000Y224179D01*
D02*
G37*
G36*
X160000D02*
X158918Y224037D01*
X157911Y223619D01*
X157045Y222955D01*
X156381Y222090D01*
X155963Y221082D01*
X155821Y220000D01*
X155963Y218918D01*
X156381Y217911D01*
X157045Y217045D01*
X157911Y216381D01*
X158918Y215963D01*
X160000Y215821D01*
X161082Y215963D01*
X162090Y216381D01*
X162955Y217045D01*
X163619Y217911D01*
X164037Y218918D01*
X164179Y220000D01*
X164037Y221082D01*
X163619Y222090D01*
X162955Y222955D01*
X162090Y223619D01*
X161082Y224037D01*
X160000Y224179D01*
D02*
G37*
G36*
X150000D02*
X148918Y224037D01*
X147910Y223619D01*
X147045Y222955D01*
X146381Y222090D01*
X145963Y221082D01*
X145821Y220000D01*
X145963Y218918D01*
X146381Y217911D01*
X147045Y217045D01*
X147910Y216381D01*
X148918Y215963D01*
X150000Y215821D01*
X151082Y215963D01*
X152090Y216381D01*
X152955Y217045D01*
X153619Y217911D01*
X154037Y218918D01*
X154179Y220000D01*
X154037Y221082D01*
X153619Y222090D01*
X152955Y222955D01*
X152090Y223619D01*
X151082Y224037D01*
X150000Y224179D01*
D02*
G37*
G36*
X140000D02*
X138918Y224037D01*
X137910Y223619D01*
X137045Y222955D01*
X136381Y222090D01*
X135963Y221082D01*
X135821Y220000D01*
X135963Y218918D01*
X136381Y217911D01*
X137045Y217045D01*
X137910Y216381D01*
X138918Y215963D01*
X140000Y215821D01*
X141082Y215963D01*
X142089Y216381D01*
X142955Y217045D01*
X143619Y217911D01*
X144037Y218918D01*
X144179Y220000D01*
X144037Y221082D01*
X143619Y222090D01*
X142955Y222955D01*
X142089Y223619D01*
X141082Y224037D01*
X140000Y224179D01*
D02*
G37*
G36*
X130000D02*
X128918Y224037D01*
X127910Y223619D01*
X127045Y222955D01*
X126381Y222090D01*
X125963Y221082D01*
X125821Y220000D01*
X125963Y218918D01*
X126381Y217911D01*
X127045Y217045D01*
X127910Y216381D01*
X128918Y215963D01*
X130000Y215821D01*
X131082Y215963D01*
X132089Y216381D01*
X132955Y217045D01*
X133619Y217911D01*
X134037Y218918D01*
X134179Y220000D01*
X134037Y221082D01*
X133619Y222090D01*
X132955Y222955D01*
X132089Y223619D01*
X131082Y224037D01*
X130000Y224179D01*
D02*
G37*
G36*
X120000D02*
X118918Y224037D01*
X117911Y223619D01*
X117045Y222955D01*
X116381Y222090D01*
X115963Y221082D01*
X115821Y220000D01*
X115963Y218918D01*
X116381Y217911D01*
X117045Y217045D01*
X117911Y216381D01*
X118918Y215963D01*
X120000Y215821D01*
X121082Y215963D01*
X122090Y216381D01*
X122955Y217045D01*
X123619Y217911D01*
X124037Y218918D01*
X124179Y220000D01*
X124037Y221082D01*
X123619Y222090D01*
X122955Y222955D01*
X122090Y223619D01*
X121082Y224037D01*
X120000Y224179D01*
D02*
G37*
G36*
X110000D02*
X108918Y224037D01*
X107911Y223619D01*
X107045Y222955D01*
X106381Y222090D01*
X105963Y221082D01*
X105821Y220000D01*
X105963Y218918D01*
X106381Y217911D01*
X107045Y217045D01*
X107911Y216381D01*
X108918Y215963D01*
X110000Y215821D01*
X111082Y215963D01*
X112090Y216381D01*
X112955Y217045D01*
X113619Y217911D01*
X114037Y218918D01*
X114179Y220000D01*
X114037Y221082D01*
X113619Y222090D01*
X112955Y222955D01*
X112090Y223619D01*
X111082Y224037D01*
X110000Y224179D01*
D02*
G37*
G36*
X100000D02*
X98918Y224037D01*
X97910Y223619D01*
X97045Y222955D01*
X96381Y222090D01*
X95963Y221082D01*
X95821Y220000D01*
X95963Y218918D01*
X96381Y217911D01*
X97045Y217045D01*
X97910Y216381D01*
X98918Y215963D01*
X100000Y215821D01*
X101082Y215963D01*
X102090Y216381D01*
X102955Y217045D01*
X103619Y217911D01*
X104037Y218918D01*
X104179Y220000D01*
X104037Y221082D01*
X103619Y222090D01*
X102955Y222955D01*
X102090Y223619D01*
X101082Y224037D01*
X100000Y224179D01*
D02*
G37*
G36*
X90000D02*
X88918Y224037D01*
X87910Y223619D01*
X87045Y222955D01*
X86381Y222090D01*
X85963Y221082D01*
X85821Y220000D01*
X85963Y218918D01*
X86381Y217911D01*
X87045Y217045D01*
X87910Y216381D01*
X88918Y215963D01*
X90000Y215821D01*
X91082Y215963D01*
X92089Y216381D01*
X92955Y217045D01*
X93619Y217911D01*
X94037Y218918D01*
X94179Y220000D01*
X94037Y221082D01*
X93619Y222090D01*
X92955Y222955D01*
X92089Y223619D01*
X91082Y224037D01*
X90000Y224179D01*
D02*
G37*
G36*
X80000D02*
X78918Y224037D01*
X77911Y223619D01*
X77045Y222955D01*
X76381Y222090D01*
X75963Y221082D01*
X75821Y220000D01*
X75963Y218918D01*
X76381Y217911D01*
X77045Y217045D01*
X77911Y216381D01*
X78918Y215963D01*
X80000Y215821D01*
X81082Y215963D01*
X82090Y216381D01*
X82955Y217045D01*
X83619Y217911D01*
X84037Y218918D01*
X84179Y220000D01*
X84037Y221082D01*
X83619Y222090D01*
X82955Y222955D01*
X82090Y223619D01*
X81082Y224037D01*
X80000Y224179D01*
D02*
G37*
G36*
X70000D02*
X68918Y224037D01*
X67910Y223619D01*
X67045Y222955D01*
X66381Y222090D01*
X65963Y221082D01*
X65821Y220000D01*
X65963Y218918D01*
X66381Y217911D01*
X67045Y217045D01*
X67910Y216381D01*
X68918Y215963D01*
X70000Y215821D01*
X71082Y215963D01*
X72089Y216381D01*
X72955Y217045D01*
X73619Y217911D01*
X74037Y218918D01*
X74179Y220000D01*
X74037Y221082D01*
X73619Y222090D01*
X72955Y222955D01*
X72089Y223619D01*
X71082Y224037D01*
X70000Y224179D01*
D02*
G37*
G36*
X60000D02*
X58918Y224037D01*
X57911Y223619D01*
X57045Y222955D01*
X56381Y222090D01*
X55963Y221082D01*
X55821Y220000D01*
X55963Y218918D01*
X56381Y217911D01*
X57045Y217045D01*
X57911Y216381D01*
X58918Y215963D01*
X60000Y215821D01*
X61082Y215963D01*
X62090Y216381D01*
X62955Y217045D01*
X63619Y217911D01*
X64037Y218918D01*
X64179Y220000D01*
X64037Y221082D01*
X63619Y222090D01*
X62955Y222955D01*
X62090Y223619D01*
X61082Y224037D01*
X60000Y224179D01*
D02*
G37*
G36*
X50000D02*
X48918Y224037D01*
X47910Y223619D01*
X47045Y222955D01*
X46381Y222090D01*
X45963Y221082D01*
X45821Y220000D01*
X45963Y218918D01*
X46381Y217911D01*
X47045Y217045D01*
X47910Y216381D01*
X48918Y215963D01*
X50000Y215821D01*
X51082Y215963D01*
X52090Y216381D01*
X52955Y217045D01*
X53619Y217911D01*
X54037Y218918D01*
X54179Y220000D01*
X54037Y221082D01*
X53619Y222090D01*
X52955Y222955D01*
X52090Y223619D01*
X51082Y224037D01*
X50000Y224179D01*
D02*
G37*
G36*
X310000Y213782D02*
X309021Y213653D01*
X308109Y213275D01*
X307326Y212674D01*
X306725Y211891D01*
X306512Y211377D01*
X303488D01*
X303275Y211891D01*
X302674Y212674D01*
X301891Y213275D01*
X300979Y213653D01*
X300000Y213782D01*
X299021Y213653D01*
X298109Y213275D01*
X297326Y212674D01*
X296725Y211891D01*
X296347Y210979D01*
X296218Y210000D01*
X296347Y209021D01*
X296725Y208109D01*
X297326Y207326D01*
X298109Y206725D01*
X299021Y206347D01*
X300000Y206218D01*
X300979Y206347D01*
X301891Y206725D01*
X302674Y207326D01*
X303275Y208109D01*
X303488Y208624D01*
X306512D01*
X306725Y208109D01*
X307326Y207326D01*
X308109Y206725D01*
X309021Y206347D01*
X310000Y206218D01*
X310979Y206347D01*
X311891Y206725D01*
X312674Y207326D01*
X313275Y208109D01*
X313488Y208624D01*
X362447D01*
Y206447D01*
X369553D01*
Y213553D01*
X362447D01*
Y211377D01*
X313488D01*
X313275Y211891D01*
X312674Y212674D01*
X311891Y213275D01*
X310979Y213653D01*
X310000Y213782D01*
D02*
G37*
G36*
X120000Y214179D02*
X118918Y214037D01*
X117911Y213619D01*
X117045Y212955D01*
X116381Y212089D01*
X115963Y211082D01*
X115821Y210000D01*
X115963Y208918D01*
X116381Y207910D01*
X117045Y207045D01*
X117911Y206381D01*
X118918Y205963D01*
X120000Y205821D01*
X121082Y205963D01*
X122090Y206381D01*
X122955Y207045D01*
X123619Y207910D01*
X124037Y208918D01*
X124179Y210000D01*
X124037Y211082D01*
X123619Y212089D01*
X122955Y212955D01*
X122090Y213619D01*
X121082Y214037D01*
X120000Y214179D01*
D02*
G37*
G36*
X110000D02*
X108918Y214037D01*
X107911Y213619D01*
X107045Y212955D01*
X106381Y212089D01*
X105963Y211082D01*
X105821Y210000D01*
X105963Y208918D01*
X106381Y207910D01*
X107045Y207045D01*
X107911Y206381D01*
X108918Y205963D01*
X110000Y205821D01*
X111082Y205963D01*
X112090Y206381D01*
X112955Y207045D01*
X113619Y207910D01*
X114037Y208918D01*
X114179Y210000D01*
X114037Y211082D01*
X113619Y212089D01*
X112955Y212955D01*
X112090Y213619D01*
X111082Y214037D01*
X110000Y214179D01*
D02*
G37*
G36*
X100000D02*
X98918Y214037D01*
X97910Y213619D01*
X97045Y212955D01*
X96381Y212089D01*
X95963Y211082D01*
X95821Y210000D01*
X95963Y208918D01*
X96381Y207910D01*
X97045Y207045D01*
X97910Y206381D01*
X98918Y205963D01*
X100000Y205821D01*
X101082Y205963D01*
X102090Y206381D01*
X102955Y207045D01*
X103619Y207910D01*
X104037Y208918D01*
X104179Y210000D01*
X104037Y211082D01*
X103619Y212089D01*
X102955Y212955D01*
X102090Y213619D01*
X101082Y214037D01*
X100000Y214179D01*
D02*
G37*
G36*
X90000D02*
X88918Y214037D01*
X87910Y213619D01*
X87045Y212955D01*
X86381Y212089D01*
X85963Y211082D01*
X85821Y210000D01*
X85963Y208918D01*
X86381Y207910D01*
X87045Y207045D01*
X87910Y206381D01*
X88918Y205963D01*
X90000Y205821D01*
X91082Y205963D01*
X92089Y206381D01*
X92955Y207045D01*
X93619Y207910D01*
X94037Y208918D01*
X94179Y210000D01*
X94037Y211082D01*
X93619Y212089D01*
X92955Y212955D01*
X92089Y213619D01*
X91082Y214037D01*
X90000Y214179D01*
D02*
G37*
G36*
X80000D02*
X78918Y214037D01*
X77911Y213619D01*
X77045Y212955D01*
X76381Y212089D01*
X75963Y211082D01*
X75821Y210000D01*
X75963Y208918D01*
X76381Y207910D01*
X77045Y207045D01*
X77911Y206381D01*
X78918Y205963D01*
X80000Y205821D01*
X81082Y205963D01*
X82090Y206381D01*
X82955Y207045D01*
X83619Y207910D01*
X84037Y208918D01*
X84179Y210000D01*
X84037Y211082D01*
X83619Y212089D01*
X82955Y212955D01*
X82090Y213619D01*
X81082Y214037D01*
X80000Y214179D01*
D02*
G37*
G36*
X70000D02*
X68918Y214037D01*
X67910Y213619D01*
X67045Y212955D01*
X66381Y212089D01*
X65963Y211082D01*
X65821Y210000D01*
X65963Y208918D01*
X66381Y207910D01*
X67045Y207045D01*
X67910Y206381D01*
X68918Y205963D01*
X70000Y205821D01*
X71082Y205963D01*
X72089Y206381D01*
X72955Y207045D01*
X73619Y207910D01*
X74037Y208918D01*
X74179Y210000D01*
X74037Y211082D01*
X73619Y212089D01*
X72955Y212955D01*
X72089Y213619D01*
X71082Y214037D01*
X70000Y214179D01*
D02*
G37*
G36*
X60000D02*
X58918Y214037D01*
X57911Y213619D01*
X57045Y212955D01*
X56381Y212089D01*
X55963Y211082D01*
X55821Y210000D01*
X55963Y208918D01*
X56381Y207910D01*
X57045Y207045D01*
X57911Y206381D01*
X58918Y205963D01*
X60000Y205821D01*
X61082Y205963D01*
X62090Y206381D01*
X62955Y207045D01*
X63619Y207910D01*
X64037Y208918D01*
X64179Y210000D01*
X64037Y211082D01*
X63619Y212089D01*
X62955Y212955D01*
X62090Y213619D01*
X61082Y214037D01*
X60000Y214179D01*
D02*
G37*
G36*
X50000D02*
X48918Y214037D01*
X47910Y213619D01*
X47045Y212955D01*
X46381Y212089D01*
X45963Y211082D01*
X45821Y210000D01*
X45963Y208918D01*
X46381Y207910D01*
X47045Y207045D01*
X47910Y206381D01*
X48918Y205963D01*
X50000Y205821D01*
X51082Y205963D01*
X52090Y206381D01*
X52955Y207045D01*
X53619Y207910D01*
X54037Y208918D01*
X54179Y210000D01*
X54037Y211082D01*
X53619Y212089D01*
X52955Y212955D01*
X52090Y213619D01*
X51082Y214037D01*
X50000Y214179D01*
D02*
G37*
G36*
X310000Y203782D02*
X309021Y203653D01*
X308109Y203275D01*
X307326Y202674D01*
X306725Y201891D01*
X306512Y201376D01*
X303488D01*
X303275Y201891D01*
X302674Y202674D01*
X301891Y203275D01*
X300979Y203653D01*
X300000Y203782D01*
X299021Y203653D01*
X298109Y203275D01*
X297326Y202674D01*
X296725Y201891D01*
X296347Y200979D01*
X296218Y200000D01*
X296347Y199021D01*
X296725Y198109D01*
X297326Y197326D01*
X298109Y196725D01*
X299021Y196347D01*
X300000Y196218D01*
X300979Y196347D01*
X301891Y196725D01*
X302674Y197326D01*
X303275Y198109D01*
X303488Y198624D01*
X306512D01*
X306725Y198109D01*
X307326Y197326D01*
X308109Y196725D01*
X309021Y196347D01*
X310000Y196218D01*
X310979Y196347D01*
X311891Y196725D01*
X312674Y197326D01*
X313275Y198109D01*
X313488Y198624D01*
X362725D01*
X362897Y198208D01*
X363466Y197466D01*
X364208Y196897D01*
X365073Y196539D01*
X366000Y196417D01*
X366927Y196539D01*
X367792Y196897D01*
X368534Y197466D01*
X369103Y198208D01*
X369461Y199073D01*
X369583Y200000D01*
X369461Y200927D01*
X369103Y201792D01*
X368534Y202534D01*
X367792Y203103D01*
X366927Y203461D01*
X366000Y203583D01*
X365073Y203461D01*
X364208Y203103D01*
X363466Y202534D01*
X362897Y201792D01*
X362725Y201376D01*
X313488D01*
X313275Y201891D01*
X312674Y202674D01*
X311891Y203275D01*
X310979Y203653D01*
X310000Y203782D01*
D02*
G37*
G36*
X120000Y204179D02*
X118918Y204037D01*
X117911Y203619D01*
X117045Y202955D01*
X116381Y202090D01*
X115963Y201082D01*
X115821Y200000D01*
X115963Y198918D01*
X116381Y197910D01*
X117045Y197045D01*
X117911Y196381D01*
X118918Y195963D01*
X120000Y195821D01*
X121082Y195963D01*
X122090Y196381D01*
X122955Y197045D01*
X123619Y197910D01*
X124037Y198918D01*
X124179Y200000D01*
X124037Y201082D01*
X123619Y202090D01*
X122955Y202955D01*
X122090Y203619D01*
X121082Y204037D01*
X120000Y204179D01*
D02*
G37*
G36*
X110000D02*
X108918Y204037D01*
X107911Y203619D01*
X107045Y202955D01*
X106381Y202090D01*
X105963Y201082D01*
X105821Y200000D01*
X105963Y198918D01*
X106381Y197910D01*
X107045Y197045D01*
X107911Y196381D01*
X108918Y195963D01*
X110000Y195821D01*
X111082Y195963D01*
X112090Y196381D01*
X112955Y197045D01*
X113619Y197910D01*
X114037Y198918D01*
X114179Y200000D01*
X114037Y201082D01*
X113619Y202090D01*
X112955Y202955D01*
X112090Y203619D01*
X111082Y204037D01*
X110000Y204179D01*
D02*
G37*
G36*
X100000D02*
X98918Y204037D01*
X97910Y203619D01*
X97045Y202955D01*
X96381Y202090D01*
X95963Y201082D01*
X95821Y200000D01*
X95963Y198918D01*
X96381Y197910D01*
X97045Y197045D01*
X97910Y196381D01*
X98918Y195963D01*
X100000Y195821D01*
X101082Y195963D01*
X102090Y196381D01*
X102955Y197045D01*
X103619Y197910D01*
X104037Y198918D01*
X104179Y200000D01*
X104037Y201082D01*
X103619Y202090D01*
X102955Y202955D01*
X102090Y203619D01*
X101082Y204037D01*
X100000Y204179D01*
D02*
G37*
G36*
X90000D02*
X88918Y204037D01*
X87910Y203619D01*
X87045Y202955D01*
X86381Y202090D01*
X85963Y201082D01*
X85821Y200000D01*
X85963Y198918D01*
X86381Y197910D01*
X87045Y197045D01*
X87910Y196381D01*
X88918Y195963D01*
X90000Y195821D01*
X91082Y195963D01*
X92089Y196381D01*
X92955Y197045D01*
X93619Y197910D01*
X94037Y198918D01*
X94179Y200000D01*
X94037Y201082D01*
X93619Y202090D01*
X92955Y202955D01*
X92089Y203619D01*
X91082Y204037D01*
X90000Y204179D01*
D02*
G37*
G36*
X80000D02*
X78918Y204037D01*
X77911Y203619D01*
X77045Y202955D01*
X76381Y202090D01*
X75963Y201082D01*
X75821Y200000D01*
X75963Y198918D01*
X76381Y197910D01*
X77045Y197045D01*
X77911Y196381D01*
X78918Y195963D01*
X80000Y195821D01*
X81082Y195963D01*
X82090Y196381D01*
X82955Y197045D01*
X83619Y197910D01*
X84037Y198918D01*
X84179Y200000D01*
X84037Y201082D01*
X83619Y202090D01*
X82955Y202955D01*
X82090Y203619D01*
X81082Y204037D01*
X80000Y204179D01*
D02*
G37*
G36*
X70000D02*
X68918Y204037D01*
X67910Y203619D01*
X67045Y202955D01*
X66381Y202090D01*
X65963Y201082D01*
X65821Y200000D01*
X65963Y198918D01*
X66381Y197910D01*
X67045Y197045D01*
X67910Y196381D01*
X68918Y195963D01*
X70000Y195821D01*
X71082Y195963D01*
X72089Y196381D01*
X72955Y197045D01*
X73619Y197910D01*
X74037Y198918D01*
X74179Y200000D01*
X74037Y201082D01*
X73619Y202090D01*
X72955Y202955D01*
X72089Y203619D01*
X71082Y204037D01*
X70000Y204179D01*
D02*
G37*
G36*
X30000Y205144D02*
X28669Y204969D01*
X27428Y204455D01*
X26363Y203637D01*
X25545Y202572D01*
X25031Y201331D01*
X24856Y200000D01*
X25031Y198669D01*
X25545Y197428D01*
X26363Y196363D01*
X27428Y195545D01*
X28669Y195031D01*
X30000Y194856D01*
X31331Y195031D01*
X32572Y195545D01*
X33637Y196363D01*
X34455Y197428D01*
X34969Y198669D01*
X35144Y200000D01*
X34969Y201331D01*
X34455Y202572D01*
X33637Y203637D01*
X32572Y204455D01*
X31331Y204969D01*
X30000Y205144D01*
D02*
G37*
G36*
X60000Y198385D02*
X59124Y198269D01*
X58308Y197931D01*
X57607Y197394D01*
X57069Y196692D01*
X56731Y195876D01*
X56615Y195000D01*
X56731Y194124D01*
X57069Y193308D01*
X57607Y192606D01*
X58308Y192069D01*
X59124Y191730D01*
X60000Y191615D01*
X60876Y191730D01*
X61692Y192069D01*
X62393Y192606D01*
X62931Y193308D01*
X63270Y194124D01*
X63385Y195000D01*
X63270Y195876D01*
X62931Y196692D01*
X62393Y197394D01*
X61692Y197931D01*
X60876Y198269D01*
X60000Y198385D01*
D02*
G37*
G36*
X310000Y193782D02*
X309021Y193653D01*
X308109Y193275D01*
X307326Y192674D01*
X306725Y191891D01*
X306512Y191376D01*
X303488D01*
X303275Y191891D01*
X302674Y192674D01*
X301891Y193275D01*
X300979Y193653D01*
X300000Y193782D01*
X299021Y193653D01*
X298109Y193275D01*
X297326Y192674D01*
X296725Y191891D01*
X296347Y190979D01*
X296218Y190000D01*
X296347Y189021D01*
X296725Y188109D01*
X297326Y187326D01*
X298109Y186725D01*
X299021Y186347D01*
X300000Y186218D01*
X300979Y186347D01*
X301891Y186725D01*
X302674Y187326D01*
X303275Y188109D01*
X303488Y188624D01*
X306512D01*
X306725Y188109D01*
X307326Y187326D01*
X308109Y186725D01*
X309021Y186347D01*
X310000Y186218D01*
X310979Y186347D01*
X311891Y186725D01*
X312674Y187326D01*
X313275Y188109D01*
X313488Y188624D01*
X362725D01*
X362897Y188208D01*
X363466Y187466D01*
X364208Y186897D01*
X365073Y186539D01*
X366000Y186417D01*
X366927Y186539D01*
X367792Y186897D01*
X368534Y187466D01*
X369103Y188208D01*
X369461Y189073D01*
X369583Y190000D01*
X369461Y190927D01*
X369103Y191792D01*
X368534Y192534D01*
X367792Y193103D01*
X366927Y193461D01*
X366000Y193583D01*
X365073Y193461D01*
X364208Y193103D01*
X363466Y192534D01*
X362897Y191792D01*
X362725Y191376D01*
X313488D01*
X313275Y191891D01*
X312674Y192674D01*
X311891Y193275D01*
X310979Y193653D01*
X310000Y193782D01*
D02*
G37*
G36*
X214150Y194150D02*
X210500D01*
Y190500D01*
X214150D01*
Y194150D01*
D02*
G37*
G36*
X209500D02*
X205850D01*
Y190500D01*
X209500D01*
Y194150D01*
D02*
G37*
G36*
X214150Y189500D02*
X210500D01*
Y185850D01*
X214150D01*
Y189500D01*
D02*
G37*
G36*
X209500D02*
X205850D01*
Y185850D01*
X209500D01*
Y189500D01*
D02*
G37*
G36*
X120000Y194179D02*
X118918Y194037D01*
X117911Y193619D01*
X117045Y192955D01*
X116381Y192089D01*
X115963Y191082D01*
X115821Y190000D01*
X115963Y188918D01*
X116381Y187910D01*
X117045Y187045D01*
X117911Y186381D01*
X118918Y185963D01*
X120000Y185821D01*
X121082Y185963D01*
X122090Y186381D01*
X122955Y187045D01*
X123619Y187910D01*
X124037Y188918D01*
X124179Y190000D01*
X124037Y191082D01*
X123619Y192089D01*
X122955Y192955D01*
X122090Y193619D01*
X121082Y194037D01*
X120000Y194179D01*
D02*
G37*
G36*
X110000D02*
X108918Y194037D01*
X107911Y193619D01*
X107045Y192955D01*
X106381Y192089D01*
X105963Y191082D01*
X105821Y190000D01*
X105963Y188918D01*
X106381Y187910D01*
X107045Y187045D01*
X107911Y186381D01*
X108918Y185963D01*
X110000Y185821D01*
X111082Y185963D01*
X112090Y186381D01*
X112955Y187045D01*
X113619Y187910D01*
X114037Y188918D01*
X114179Y190000D01*
X114037Y191082D01*
X113619Y192089D01*
X112955Y192955D01*
X112090Y193619D01*
X111082Y194037D01*
X110000Y194179D01*
D02*
G37*
G36*
X100000D02*
X98918Y194037D01*
X97910Y193619D01*
X97045Y192955D01*
X96381Y192089D01*
X95963Y191082D01*
X95821Y190000D01*
X95963Y188918D01*
X96381Y187910D01*
X97045Y187045D01*
X97910Y186381D01*
X98918Y185963D01*
X100000Y185821D01*
X101082Y185963D01*
X102090Y186381D01*
X102955Y187045D01*
X103619Y187910D01*
X104037Y188918D01*
X104179Y190000D01*
X104037Y191082D01*
X103619Y192089D01*
X102955Y192955D01*
X102090Y193619D01*
X101082Y194037D01*
X100000Y194179D01*
D02*
G37*
G36*
X90000D02*
X88918Y194037D01*
X87910Y193619D01*
X87045Y192955D01*
X86381Y192089D01*
X85963Y191082D01*
X85821Y190000D01*
X85963Y188918D01*
X86381Y187910D01*
X87045Y187045D01*
X87910Y186381D01*
X88918Y185963D01*
X90000Y185821D01*
X91082Y185963D01*
X92089Y186381D01*
X92955Y187045D01*
X93619Y187910D01*
X94037Y188918D01*
X94179Y190000D01*
X94037Y191082D01*
X93619Y192089D01*
X92955Y192955D01*
X92089Y193619D01*
X91082Y194037D01*
X90000Y194179D01*
D02*
G37*
G36*
X80000D02*
X78918Y194037D01*
X77911Y193619D01*
X77045Y192955D01*
X76381Y192089D01*
X75963Y191082D01*
X75821Y190000D01*
X75963Y188918D01*
X76381Y187910D01*
X77045Y187045D01*
X77911Y186381D01*
X78918Y185963D01*
X80000Y185821D01*
X81082Y185963D01*
X82090Y186381D01*
X82955Y187045D01*
X83619Y187910D01*
X84037Y188918D01*
X84179Y190000D01*
X84037Y191082D01*
X83619Y192089D01*
X82955Y192955D01*
X82090Y193619D01*
X81082Y194037D01*
X80000Y194179D01*
D02*
G37*
G36*
X70000D02*
X68918Y194037D01*
X67910Y193619D01*
X67045Y192955D01*
X66381Y192089D01*
X65963Y191082D01*
X65821Y190000D01*
X65963Y188918D01*
X66381Y187910D01*
X67045Y187045D01*
X67910Y186381D01*
X68918Y185963D01*
X70000Y185821D01*
X71082Y185963D01*
X72089Y186381D01*
X72955Y187045D01*
X73619Y187910D01*
X74037Y188918D01*
X74179Y190000D01*
X74037Y191082D01*
X73619Y192089D01*
X72955Y192955D01*
X72089Y193619D01*
X71082Y194037D01*
X70000Y194179D01*
D02*
G37*
G36*
X342000Y187988D02*
X341227Y187886D01*
X340506Y187587D01*
X339887Y187113D01*
X339412Y186494D01*
X339114Y185773D01*
X339012Y185000D01*
X339114Y184227D01*
X339412Y183506D01*
X339887Y182887D01*
X340506Y182413D01*
X341227Y182114D01*
X342000Y182012D01*
X342773Y182114D01*
X343494Y182413D01*
X344113Y182887D01*
X344587Y183506D01*
X344886Y184227D01*
X344988Y185000D01*
X344886Y185773D01*
X344587Y186494D01*
X344113Y187113D01*
X343494Y187587D01*
X342773Y187886D01*
X342000Y187988D01*
D02*
G37*
G36*
X170000Y188583D02*
X169073Y188461D01*
X168208Y188103D01*
X167466Y187534D01*
X167165Y187141D01*
X160000D01*
X159181Y186978D01*
X158486Y186514D01*
X153500Y181528D01*
X148514Y186514D01*
X147819Y186978D01*
X147000Y187141D01*
X142835D01*
X142534Y187534D01*
X141792Y188103D01*
X140927Y188461D01*
X140000Y188583D01*
X139073Y188461D01*
X138208Y188103D01*
X137466Y187534D01*
X136897Y186792D01*
X136539Y185927D01*
X136417Y185000D01*
X136539Y184073D01*
X136897Y183208D01*
X137466Y182466D01*
X138208Y181897D01*
X139073Y181539D01*
X140000Y181417D01*
X140927Y181539D01*
X141792Y181897D01*
X142534Y182466D01*
X142835Y182859D01*
X146113D01*
X151140Y177832D01*
Y159356D01*
X151022Y159179D01*
X150859Y158360D01*
Y119500D01*
X151022Y118681D01*
X151486Y117986D01*
X153215Y116257D01*
X153432Y115932D01*
X154151Y115451D01*
X155000Y115283D01*
X155849Y115451D01*
X156568Y115932D01*
X157049Y116651D01*
X157217Y117500D01*
X157049Y118349D01*
X156568Y119068D01*
X156243Y119285D01*
X155141Y120387D01*
Y157645D01*
X155259Y157822D01*
X155422Y158641D01*
Y177394D01*
X160887Y182859D01*
X167165D01*
X167466Y182466D01*
X168208Y181897D01*
X169073Y181539D01*
X170000Y181417D01*
X170927Y181539D01*
X171792Y181897D01*
X172534Y182466D01*
X173103Y183208D01*
X173461Y184073D01*
X173583Y185000D01*
X173461Y185927D01*
X173103Y186792D01*
X172534Y187534D01*
X171792Y188103D01*
X170927Y188461D01*
X170000Y188583D01*
D02*
G37*
G36*
X332000Y187988D02*
X331227Y187886D01*
X330506Y187587D01*
X329887Y187113D01*
X329413Y186494D01*
X329114Y185773D01*
X329012Y185000D01*
X329114Y184227D01*
X329163Y184109D01*
X326430Y181376D01*
X313488D01*
X313275Y181891D01*
X312674Y182674D01*
X311891Y183275D01*
X310979Y183653D01*
X310000Y183782D01*
X309021Y183653D01*
X308109Y183275D01*
X307326Y182674D01*
X306725Y181891D01*
X306512Y181376D01*
X303488D01*
X303275Y181891D01*
X302674Y182674D01*
X301891Y183275D01*
X300979Y183653D01*
X300000Y183782D01*
X299021Y183653D01*
X298109Y183275D01*
X297326Y182674D01*
X296725Y181891D01*
X296347Y180979D01*
X296218Y180000D01*
X296347Y179021D01*
X296725Y178109D01*
X297326Y177326D01*
X298109Y176725D01*
X299021Y176347D01*
X300000Y176218D01*
X300979Y176347D01*
X301891Y176725D01*
X302674Y177326D01*
X303275Y178109D01*
X303488Y178624D01*
X306512D01*
X306725Y178109D01*
X307326Y177326D01*
X308109Y176725D01*
X309021Y176347D01*
X310000Y176218D01*
X310979Y176347D01*
X311891Y176725D01*
X312674Y177326D01*
X313275Y178109D01*
X313488Y178624D01*
X327000D01*
X327527Y178728D01*
X327973Y179027D01*
X331109Y182163D01*
X331227Y182114D01*
X332000Y182012D01*
X332773Y182114D01*
X332891Y182163D01*
X336027Y179027D01*
X336473Y178728D01*
X337000Y178623D01*
X337000Y178624D01*
X362725D01*
X362897Y178208D01*
X363466Y177466D01*
X364208Y176897D01*
X365073Y176539D01*
X366000Y176417D01*
X366927Y176539D01*
X367792Y176897D01*
X368534Y177466D01*
X369103Y178208D01*
X369461Y179073D01*
X369583Y180000D01*
X369461Y180927D01*
X369103Y181792D01*
X368534Y182534D01*
X367792Y183103D01*
X366927Y183461D01*
X366000Y183583D01*
X365073Y183461D01*
X364208Y183103D01*
X363466Y182534D01*
X362897Y181792D01*
X362725Y181376D01*
X337570D01*
X334837Y184109D01*
X334886Y184227D01*
X334988Y185000D01*
X334886Y185773D01*
X334588Y186494D01*
X334113Y187113D01*
X333494Y187587D01*
X332773Y187886D01*
X332000Y187988D01*
D02*
G37*
G36*
X30500Y185482D02*
Y180500D01*
X35482D01*
X35358Y181436D01*
X34804Y182774D01*
X33923Y183923D01*
X32774Y184804D01*
X31436Y185358D01*
X30500Y185482D01*
D02*
G37*
G36*
X29500D02*
X28564Y185358D01*
X27226Y184804D01*
X26077Y183923D01*
X25196Y182774D01*
X24642Y181436D01*
X24518Y180500D01*
X29500D01*
Y185482D01*
D02*
G37*
G36*
X120000Y184179D02*
X118918Y184037D01*
X117911Y183619D01*
X117045Y182955D01*
X116381Y182089D01*
X115963Y181082D01*
X115821Y180000D01*
X115963Y178918D01*
X116381Y177910D01*
X117045Y177045D01*
X117911Y176381D01*
X118918Y175963D01*
X120000Y175821D01*
X121082Y175963D01*
X122090Y176381D01*
X122955Y177045D01*
X123619Y177910D01*
X124037Y178918D01*
X124179Y180000D01*
X124037Y181082D01*
X123619Y182089D01*
X122955Y182955D01*
X122090Y183619D01*
X121082Y184037D01*
X120000Y184179D01*
D02*
G37*
G36*
X110000D02*
X108918Y184037D01*
X107911Y183619D01*
X107045Y182955D01*
X106381Y182089D01*
X105963Y181082D01*
X105821Y180000D01*
X105963Y178918D01*
X106381Y177910D01*
X107045Y177045D01*
X107911Y176381D01*
X108918Y175963D01*
X110000Y175821D01*
X111082Y175963D01*
X112090Y176381D01*
X112955Y177045D01*
X113619Y177910D01*
X114037Y178918D01*
X114179Y180000D01*
X114037Y181082D01*
X113619Y182089D01*
X112955Y182955D01*
X112090Y183619D01*
X111082Y184037D01*
X110000Y184179D01*
D02*
G37*
G36*
X100000D02*
X98918Y184037D01*
X97910Y183619D01*
X97045Y182955D01*
X96381Y182089D01*
X95963Y181082D01*
X95821Y180000D01*
X95963Y178918D01*
X96381Y177910D01*
X97045Y177045D01*
X97910Y176381D01*
X98918Y175963D01*
X100000Y175821D01*
X101082Y175963D01*
X102090Y176381D01*
X102955Y177045D01*
X103619Y177910D01*
X104037Y178918D01*
X104179Y180000D01*
X104037Y181082D01*
X103619Y182089D01*
X102955Y182955D01*
X102090Y183619D01*
X101082Y184037D01*
X100000Y184179D01*
D02*
G37*
G36*
X90000D02*
X88918Y184037D01*
X87910Y183619D01*
X87045Y182955D01*
X86381Y182089D01*
X85963Y181082D01*
X85821Y180000D01*
X85963Y178918D01*
X86381Y177910D01*
X87045Y177045D01*
X87910Y176381D01*
X88918Y175963D01*
X90000Y175821D01*
X91082Y175963D01*
X92089Y176381D01*
X92955Y177045D01*
X93619Y177910D01*
X94037Y178918D01*
X94179Y180000D01*
X94037Y181082D01*
X93619Y182089D01*
X92955Y182955D01*
X92089Y183619D01*
X91082Y184037D01*
X90000Y184179D01*
D02*
G37*
G36*
X80000D02*
X78918Y184037D01*
X77911Y183619D01*
X77045Y182955D01*
X76381Y182089D01*
X75963Y181082D01*
X75821Y180000D01*
X75963Y178918D01*
X76381Y177910D01*
X77045Y177045D01*
X77911Y176381D01*
X78918Y175963D01*
X80000Y175821D01*
X81082Y175963D01*
X82090Y176381D01*
X82955Y177045D01*
X83619Y177910D01*
X84037Y178918D01*
X84179Y180000D01*
X84037Y181082D01*
X83619Y182089D01*
X82955Y182955D01*
X82090Y183619D01*
X81082Y184037D01*
X80000Y184179D01*
D02*
G37*
G36*
X70000D02*
X68918Y184037D01*
X67910Y183619D01*
X67045Y182955D01*
X66381Y182089D01*
X65963Y181082D01*
X65821Y180000D01*
X65963Y178918D01*
X66381Y177910D01*
X67045Y177045D01*
X67910Y176381D01*
X68918Y175963D01*
X70000Y175821D01*
X71082Y175963D01*
X72089Y176381D01*
X72955Y177045D01*
X73619Y177910D01*
X74037Y178918D01*
X74179Y180000D01*
X74037Y181082D01*
X73619Y182089D01*
X72955Y182955D01*
X72089Y183619D01*
X71082Y184037D01*
X70000Y184179D01*
D02*
G37*
G36*
X170500Y178921D02*
Y175500D01*
X173921D01*
X173851Y176032D01*
X173453Y176993D01*
X172819Y177819D01*
X171993Y178453D01*
X171032Y178851D01*
X170500Y178921D01*
D02*
G37*
G36*
X140500D02*
Y175500D01*
X143921D01*
X143851Y176032D01*
X143453Y176993D01*
X142819Y177819D01*
X141993Y178453D01*
X141032Y178851D01*
X140500Y178921D01*
D02*
G37*
G36*
X139500D02*
X138968Y178851D01*
X138007Y178453D01*
X137181Y177819D01*
X136547Y176993D01*
X136149Y176032D01*
X136079Y175500D01*
X139500D01*
Y178921D01*
D02*
G37*
G36*
X169500D02*
X168968Y178851D01*
X168007Y178453D01*
X167181Y177819D01*
X166547Y176993D01*
X166149Y176032D01*
X166079Y175500D01*
X169500D01*
Y178921D01*
D02*
G37*
G36*
X35482Y179500D02*
X30500D01*
Y174518D01*
X31436Y174642D01*
X32774Y175196D01*
X33923Y176077D01*
X34804Y177226D01*
X35358Y178564D01*
X35482Y179500D01*
D02*
G37*
G36*
X29500D02*
X24518D01*
X24642Y178564D01*
X25196Y177226D01*
X26077Y176077D01*
X27226Y175196D01*
X28564Y174642D01*
X29500Y174518D01*
Y179500D01*
D02*
G37*
G36*
X332000Y175988D02*
X331227Y175886D01*
X330506Y175587D01*
X329887Y175113D01*
X329413Y174494D01*
X329114Y173773D01*
X329012Y173000D01*
X329114Y172227D01*
X329163Y172109D01*
X328430Y171376D01*
X313488D01*
X313275Y171891D01*
X312674Y172674D01*
X311891Y173275D01*
X310979Y173653D01*
X310000Y173782D01*
X309021Y173653D01*
X308109Y173275D01*
X307326Y172674D01*
X306725Y171891D01*
X306512Y171376D01*
X303488D01*
X303275Y171891D01*
X302674Y172674D01*
X301891Y173275D01*
X300979Y173653D01*
X300000Y173782D01*
X299021Y173653D01*
X298109Y173275D01*
X297326Y172674D01*
X296725Y171891D01*
X296347Y170979D01*
X296218Y170000D01*
X296347Y169021D01*
X296725Y168109D01*
X297326Y167326D01*
X298109Y166725D01*
X299021Y166347D01*
X300000Y166218D01*
X300979Y166347D01*
X301891Y166725D01*
X302674Y167326D01*
X303275Y168109D01*
X303488Y168624D01*
X306512D01*
X306725Y168109D01*
X307326Y167326D01*
X308109Y166725D01*
X309021Y166347D01*
X310000Y166218D01*
X310979Y166347D01*
X311891Y166725D01*
X312674Y167326D01*
X313275Y168109D01*
X313488Y168624D01*
X329000D01*
X329527Y168728D01*
X329973Y169027D01*
X331109Y170163D01*
X331227Y170114D01*
X332000Y170012D01*
X332773Y170114D01*
X332891Y170163D01*
X336027Y167027D01*
X336473Y166728D01*
X337000Y166623D01*
X337000Y166624D01*
X359000D01*
X359527Y166728D01*
X359973Y167027D01*
X361570Y168624D01*
X362725D01*
X362897Y168208D01*
X363466Y167466D01*
X364208Y166897D01*
X365073Y166539D01*
X366000Y166417D01*
X366927Y166539D01*
X367792Y166897D01*
X368534Y167466D01*
X369103Y168208D01*
X369461Y169073D01*
X369583Y170000D01*
X369461Y170927D01*
X369103Y171792D01*
X368534Y172534D01*
X367792Y173103D01*
X366927Y173461D01*
X366000Y173583D01*
X365073Y173461D01*
X364208Y173103D01*
X363466Y172534D01*
X362897Y171792D01*
X362725Y171376D01*
X361000D01*
X361000Y171377D01*
X360473Y171272D01*
X360027Y170973D01*
X358430Y169376D01*
X337570D01*
X334837Y172109D01*
X334886Y172227D01*
X334988Y173000D01*
X334886Y173773D01*
X334588Y174494D01*
X334113Y175113D01*
X333494Y175587D01*
X332773Y175886D01*
X332000Y175988D01*
D02*
G37*
G36*
X173921Y174500D02*
X170500D01*
Y171079D01*
X171032Y171149D01*
X171993Y171547D01*
X172819Y172181D01*
X173453Y173007D01*
X173851Y173968D01*
X173921Y174500D01*
D02*
G37*
G36*
X143921D02*
X140500D01*
Y171079D01*
X141032Y171149D01*
X141993Y171547D01*
X142819Y172181D01*
X143453Y173007D01*
X143851Y173968D01*
X143921Y174500D01*
D02*
G37*
G36*
X169500D02*
X166079D01*
X166149Y173968D01*
X166547Y173007D01*
X167181Y172181D01*
X168007Y171547D01*
X168968Y171149D01*
X169500Y171079D01*
Y174500D01*
D02*
G37*
G36*
X139500D02*
X136079D01*
X136149Y173968D01*
X136547Y173007D01*
X137181Y172181D01*
X138007Y171547D01*
X138968Y171149D01*
X139500Y171079D01*
Y174500D01*
D02*
G37*
G36*
X342000Y175988D02*
X341227Y175886D01*
X340506Y175587D01*
X339887Y175113D01*
X339412Y174494D01*
X339114Y173773D01*
X339012Y173000D01*
X339114Y172227D01*
X339412Y171506D01*
X339887Y170887D01*
X340506Y170413D01*
X341227Y170114D01*
X342000Y170012D01*
X342773Y170114D01*
X343494Y170413D01*
X344113Y170887D01*
X344587Y171506D01*
X344886Y172227D01*
X344988Y173000D01*
X344886Y173773D01*
X344587Y174494D01*
X344113Y175113D01*
X343494Y175587D01*
X342773Y175886D01*
X342000Y175988D01*
D02*
G37*
G36*
X210000Y173782D02*
X209021Y173653D01*
X208109Y173275D01*
X207326Y172674D01*
X206725Y171891D01*
X206347Y170979D01*
X206218Y170000D01*
X206347Y169021D01*
X206725Y168109D01*
X207326Y167326D01*
X208109Y166725D01*
X209021Y166347D01*
X210000Y166218D01*
X210979Y166347D01*
X211891Y166725D01*
X212674Y167326D01*
X213275Y168109D01*
X213653Y169021D01*
X213782Y170000D01*
X213653Y170979D01*
X213275Y171891D01*
X212674Y172674D01*
X211891Y173275D01*
X210979Y173653D01*
X210000Y173782D01*
D02*
G37*
G36*
X123000Y171385D02*
X122124Y171270D01*
X121308Y170931D01*
X120607Y170394D01*
X120069Y169692D01*
X119730Y168876D01*
X119615Y168000D01*
X119730Y167124D01*
X120069Y166308D01*
X120607Y165606D01*
X121308Y165069D01*
X122124Y164731D01*
X123000Y164615D01*
X123876Y164731D01*
X124692Y165069D01*
X125393Y165606D01*
X125931Y166308D01*
X126269Y167124D01*
X126385Y168000D01*
X126269Y168876D01*
X125931Y169692D01*
X125393Y170394D01*
X124692Y170931D01*
X123876Y171270D01*
X123000Y171385D01*
D02*
G37*
G36*
X332000Y163988D02*
X331227Y163886D01*
X330506Y163587D01*
X329887Y163113D01*
X329413Y162494D01*
X329364Y162376D01*
X324000D01*
X323473Y162272D01*
X323027Y161973D01*
X323027Y161973D01*
X322430Y161376D01*
X313488D01*
X313275Y161891D01*
X312674Y162674D01*
X311891Y163275D01*
X310979Y163653D01*
X310000Y163782D01*
X309021Y163653D01*
X308109Y163275D01*
X307326Y162674D01*
X306725Y161891D01*
X306512Y161376D01*
X303488D01*
X303275Y161891D01*
X302674Y162674D01*
X301891Y163275D01*
X300979Y163653D01*
X300000Y163782D01*
X299021Y163653D01*
X298109Y163275D01*
X297326Y162674D01*
X296725Y161891D01*
X296347Y160979D01*
X296218Y160000D01*
X296347Y159021D01*
X296725Y158109D01*
X297326Y157326D01*
X298109Y156725D01*
X299021Y156347D01*
X300000Y156218D01*
X300979Y156347D01*
X301891Y156725D01*
X302674Y157326D01*
X303275Y158109D01*
X303488Y158624D01*
X306512D01*
X306725Y158109D01*
X307326Y157326D01*
X308109Y156725D01*
X309021Y156347D01*
X310000Y156218D01*
X310979Y156347D01*
X311891Y156725D01*
X312674Y157326D01*
X313275Y158109D01*
X313488Y158624D01*
X323000D01*
X323527Y158728D01*
X323973Y159027D01*
X324570Y159624D01*
X329364D01*
X329413Y159506D01*
X329887Y158887D01*
X330506Y158413D01*
X331227Y158114D01*
X332000Y158012D01*
X332773Y158114D01*
X332891Y158163D01*
X336027Y155027D01*
X336473Y154728D01*
X337000Y154623D01*
X337000Y154624D01*
X356000D01*
X356527Y154728D01*
X356973Y155027D01*
X360570Y158624D01*
X362725D01*
X362897Y158208D01*
X363466Y157466D01*
X364208Y156897D01*
X365073Y156539D01*
X366000Y156417D01*
X366927Y156539D01*
X367792Y156897D01*
X368534Y157466D01*
X369103Y158208D01*
X369461Y159073D01*
X369583Y160000D01*
X369461Y160927D01*
X369103Y161792D01*
X368534Y162534D01*
X367792Y163103D01*
X366927Y163461D01*
X366000Y163583D01*
X365073Y163461D01*
X364208Y163103D01*
X363466Y162534D01*
X362897Y161792D01*
X362725Y161376D01*
X360000D01*
X359473Y161272D01*
X359027Y160973D01*
X359027Y160973D01*
X355430Y157376D01*
X337570D01*
X334837Y160109D01*
X334886Y160227D01*
X334988Y161000D01*
X334886Y161773D01*
X334588Y162494D01*
X334113Y163113D01*
X333494Y163587D01*
X332773Y163886D01*
X332000Y163988D01*
D02*
G37*
G36*
X342000D02*
X341227Y163886D01*
X340506Y163587D01*
X339887Y163113D01*
X339412Y162494D01*
X339114Y161773D01*
X339012Y161000D01*
X339114Y160227D01*
X339412Y159506D01*
X339887Y158887D01*
X340506Y158413D01*
X341227Y158114D01*
X342000Y158012D01*
X342773Y158114D01*
X343494Y158413D01*
X344113Y158887D01*
X344587Y159506D01*
X344886Y160227D01*
X344988Y161000D01*
X344886Y161773D01*
X344587Y162494D01*
X344113Y163113D01*
X343494Y163587D01*
X342773Y163886D01*
X342000Y163988D01*
D02*
G37*
G36*
X210000Y163782D02*
X209021Y163653D01*
X208109Y163275D01*
X207326Y162674D01*
X206725Y161891D01*
X206347Y160979D01*
X206218Y160000D01*
X206347Y159021D01*
X206725Y158109D01*
X207326Y157326D01*
X208109Y156725D01*
X209021Y156347D01*
X210000Y156218D01*
X210979Y156347D01*
X211891Y156725D01*
X212674Y157326D01*
X213275Y158109D01*
X213653Y159021D01*
X213782Y160000D01*
X213653Y160979D01*
X213275Y161891D01*
X212674Y162674D01*
X211891Y163275D01*
X210979Y163653D01*
X210000Y163782D01*
D02*
G37*
G36*
X160500Y158921D02*
Y155500D01*
X163921D01*
X163851Y156032D01*
X163453Y156993D01*
X162819Y157819D01*
X161993Y158453D01*
X161032Y158851D01*
X160500Y158921D01*
D02*
G37*
G36*
X159500D02*
X158968Y158851D01*
X158007Y158453D01*
X157181Y157819D01*
X156547Y156993D01*
X156149Y156032D01*
X156079Y155500D01*
X159500D01*
Y158921D01*
D02*
G37*
G36*
X160000Y155000D02*
D01*
D01*
D01*
D02*
G37*
G36*
X30000Y165144D02*
X28669Y164969D01*
X27428Y164455D01*
X26363Y163637D01*
X25545Y162572D01*
X25031Y161331D01*
X24856Y160000D01*
X25031Y158669D01*
X25545Y157428D01*
X26363Y156363D01*
X27428Y155545D01*
X28669Y155031D01*
X30000Y154856D01*
X31331Y155031D01*
X32572Y155545D01*
X33637Y156363D01*
X34455Y157428D01*
X34969Y158669D01*
X35144Y160000D01*
X34969Y161331D01*
X34455Y162572D01*
X33637Y163637D01*
X32572Y164455D01*
X31331Y164969D01*
X30000Y165144D01*
D02*
G37*
G36*
X87150Y157150D02*
X83500D01*
Y153500D01*
X87150D01*
Y157150D01*
D02*
G37*
G36*
X82500D02*
X78850D01*
Y153500D01*
X82500D01*
Y157150D01*
D02*
G37*
G36*
X60000Y158385D02*
X59124Y158270D01*
X58308Y157931D01*
X57607Y157394D01*
X57069Y156692D01*
X56731Y155876D01*
X56615Y155000D01*
X56731Y154124D01*
X57069Y153308D01*
X57607Y152606D01*
X58308Y152069D01*
X59124Y151731D01*
X60000Y151615D01*
X60876Y151731D01*
X61692Y152069D01*
X62393Y152606D01*
X62931Y153308D01*
X63270Y154124D01*
X63385Y155000D01*
X63270Y155876D01*
X62931Y156692D01*
X62393Y157394D01*
X61692Y157931D01*
X60876Y158270D01*
X60000Y158385D01*
D02*
G37*
G36*
X173553Y158553D02*
X166447D01*
Y151447D01*
X173553D01*
Y158553D01*
D02*
G37*
G36*
X310000Y153782D02*
X309021Y153653D01*
X308109Y153275D01*
X307326Y152674D01*
X306725Y151891D01*
X306512Y151376D01*
X303488D01*
X303275Y151891D01*
X302674Y152674D01*
X301891Y153275D01*
X300979Y153653D01*
X300000Y153782D01*
X299021Y153653D01*
X298109Y153275D01*
X297326Y152674D01*
X296725Y151891D01*
X296347Y150979D01*
X296218Y150000D01*
X296347Y149021D01*
X296725Y148109D01*
X297326Y147326D01*
X298109Y146725D01*
X299021Y146347D01*
X300000Y146218D01*
X300979Y146347D01*
X301891Y146725D01*
X302674Y147326D01*
X303275Y148109D01*
X303488Y148624D01*
X306512D01*
X306725Y148109D01*
X307326Y147326D01*
X308109Y146725D01*
X309021Y146347D01*
X310000Y146218D01*
X310979Y146347D01*
X311891Y146725D01*
X312674Y147326D01*
X313275Y148109D01*
X313488Y148624D01*
X321430D01*
X322027Y148027D01*
X322027Y148027D01*
X322473Y147728D01*
X323000Y147624D01*
X329364D01*
X329413Y147506D01*
X329887Y146887D01*
X330506Y146413D01*
X331227Y146114D01*
X332000Y146012D01*
X332773Y146114D01*
X332891Y146163D01*
X335027Y144027D01*
X335027Y144027D01*
X335473Y143728D01*
X336000Y143624D01*
X361000D01*
X361527Y143728D01*
X361973Y144027D01*
X364657Y146711D01*
X365073Y146539D01*
X366000Y146417D01*
X366927Y146539D01*
X367792Y146897D01*
X368534Y147466D01*
X369103Y148208D01*
X369461Y149073D01*
X369583Y150000D01*
X369461Y150927D01*
X369103Y151792D01*
X368534Y152534D01*
X367792Y153103D01*
X366927Y153461D01*
X366000Y153583D01*
X365073Y153461D01*
X364208Y153103D01*
X363466Y152534D01*
X362897Y151792D01*
X362539Y150927D01*
X362417Y150000D01*
X362539Y149073D01*
X362711Y148657D01*
X360430Y146376D01*
X344268D01*
X344098Y146876D01*
X344113Y146887D01*
X344587Y147506D01*
X344886Y148227D01*
X344988Y149000D01*
X344886Y149773D01*
X344587Y150494D01*
X344113Y151113D01*
X343494Y151587D01*
X342773Y151886D01*
X342000Y151988D01*
X341227Y151886D01*
X340506Y151587D01*
X339887Y151113D01*
X339412Y150494D01*
X339114Y149773D01*
X339012Y149000D01*
X339114Y148227D01*
X339412Y147506D01*
X339887Y146887D01*
X339901Y146876D01*
X339732Y146376D01*
X336570D01*
X334837Y148109D01*
X334886Y148227D01*
X334988Y149000D01*
X334886Y149773D01*
X334588Y150494D01*
X334113Y151113D01*
X333494Y151587D01*
X332773Y151886D01*
X332000Y151988D01*
X331227Y151886D01*
X330506Y151587D01*
X329887Y151113D01*
X329413Y150494D01*
X329364Y150376D01*
X323570D01*
X322973Y150973D01*
X322527Y151272D01*
X322000Y151376D01*
X313488D01*
X313275Y151891D01*
X312674Y152674D01*
X311891Y153275D01*
X310979Y153653D01*
X310000Y153782D01*
D02*
G37*
G36*
X163921Y154500D02*
X160500D01*
Y151079D01*
X161032Y151149D01*
X161993Y151547D01*
X162819Y152181D01*
X163453Y153007D01*
X163851Y153968D01*
X163921Y154500D01*
D02*
G37*
G36*
X159500D02*
X156079D01*
X156149Y153968D01*
X156547Y153007D01*
X157181Y152181D01*
X158007Y151547D01*
X158968Y151149D01*
X159500Y151079D01*
Y154500D01*
D02*
G37*
G36*
X87150Y152500D02*
X83500D01*
Y148850D01*
X87150D01*
Y152500D01*
D02*
G37*
G36*
X82500D02*
X78850D01*
Y148850D01*
X82500D01*
Y152500D01*
D02*
G37*
G36*
X310000Y143782D02*
X309021Y143653D01*
X308109Y143275D01*
X307326Y142674D01*
X306725Y141891D01*
X306512Y141376D01*
X303488D01*
X303275Y141891D01*
X302674Y142674D01*
X301891Y143275D01*
X300979Y143653D01*
X300000Y143782D01*
X299021Y143653D01*
X298109Y143275D01*
X297326Y142674D01*
X296725Y141891D01*
X296347Y140979D01*
X296218Y140000D01*
X296347Y139021D01*
X296725Y138109D01*
X297326Y137326D01*
X298109Y136725D01*
X299021Y136347D01*
X300000Y136218D01*
X300979Y136347D01*
X301891Y136725D01*
X302674Y137326D01*
X303275Y138109D01*
X303488Y138624D01*
X306512D01*
X306725Y138109D01*
X307326Y137326D01*
X308109Y136725D01*
X309021Y136347D01*
X310000Y136218D01*
X310979Y136347D01*
X311891Y136725D01*
X312674Y137326D01*
X313275Y138109D01*
X313653Y139021D01*
X313782Y140000D01*
X313653Y140979D01*
X313275Y141891D01*
X312674Y142674D01*
X311891Y143275D01*
X310979Y143653D01*
X310000Y143782D01*
D02*
G37*
G36*
X145000Y143385D02*
X144124Y143270D01*
X143308Y142931D01*
X142606Y142394D01*
X142069Y141692D01*
X141730Y140876D01*
X141615Y140000D01*
X141730Y139124D01*
X142069Y138308D01*
X142606Y137607D01*
X143308Y137069D01*
X144124Y136731D01*
X145000Y136615D01*
X145876Y136731D01*
X146692Y137069D01*
X147394Y137607D01*
X147931Y138308D01*
X148269Y139124D01*
X148385Y140000D01*
X148269Y140876D01*
X147931Y141692D01*
X147394Y142394D01*
X146692Y142931D01*
X145876Y143270D01*
X145000Y143385D01*
D02*
G37*
G36*
X214150Y134150D02*
X210500D01*
Y130500D01*
X214150D01*
Y134150D01*
D02*
G37*
G36*
X209500D02*
X205850D01*
Y130500D01*
X209500D01*
Y134150D01*
D02*
G37*
G36*
X145000Y133385D02*
X144124Y133270D01*
X143308Y132931D01*
X142606Y132394D01*
X142069Y131692D01*
X141730Y130876D01*
X141615Y130000D01*
X141730Y129124D01*
X142069Y128308D01*
X142606Y127606D01*
X143308Y127069D01*
X144124Y126731D01*
X145000Y126615D01*
X145876Y126731D01*
X146692Y127069D01*
X147394Y127606D01*
X147931Y128308D01*
X148269Y129124D01*
X148385Y130000D01*
X148269Y130876D01*
X147931Y131692D01*
X147394Y132394D01*
X146692Y132931D01*
X145876Y133270D01*
X145000Y133385D01*
D02*
G37*
G36*
X214150Y129500D02*
X210500D01*
Y125850D01*
X214150D01*
Y129500D01*
D02*
G37*
G36*
X209500D02*
X205850D01*
Y125850D01*
X209500D01*
Y129500D01*
D02*
G37*
G36*
X123000Y131385D02*
X122124Y131270D01*
X121308Y130931D01*
X120607Y130394D01*
X120069Y129692D01*
X119730Y128876D01*
X119615Y128000D01*
X119730Y127124D01*
X120069Y126308D01*
X120607Y125607D01*
X121308Y125069D01*
X122124Y124731D01*
X123000Y124615D01*
X123876Y124731D01*
X124692Y125069D01*
X125393Y125607D01*
X125931Y126308D01*
X126269Y127124D01*
X126385Y128000D01*
X126269Y128876D01*
X125931Y129692D01*
X125393Y130394D01*
X124692Y130931D01*
X123876Y131270D01*
X123000Y131385D01*
D02*
G37*
G36*
X103000Y156782D02*
X102021Y156653D01*
X101109Y156275D01*
X100326Y155674D01*
X99725Y154891D01*
X99347Y153979D01*
X99218Y153000D01*
X99347Y152021D01*
X99725Y151109D01*
X100326Y150326D01*
X100859Y149917D01*
Y130835D01*
X100466Y130534D01*
X99897Y129792D01*
X99539Y128927D01*
X99417Y128000D01*
X99539Y127073D01*
X99897Y126208D01*
X100466Y125466D01*
X101208Y124897D01*
X102073Y124539D01*
X103000Y124417D01*
X103927Y124539D01*
X104792Y124897D01*
X105534Y125466D01*
X106103Y126208D01*
X106461Y127073D01*
X106583Y128000D01*
X106461Y128927D01*
X106103Y129792D01*
X105534Y130534D01*
X105141Y130835D01*
Y149917D01*
X105674Y150326D01*
X106275Y151109D01*
X106653Y152021D01*
X106782Y153000D01*
X106653Y153979D01*
X106275Y154891D01*
X105674Y155674D01*
X104891Y156275D01*
X103979Y156653D01*
X103000Y156782D01*
D02*
G37*
G36*
X93000Y131583D02*
X92073Y131461D01*
X91208Y131103D01*
X90466Y130534D01*
X89897Y129792D01*
X89539Y128927D01*
X89417Y128000D01*
X89539Y127073D01*
X89897Y126208D01*
X90466Y125466D01*
X91208Y124897D01*
X92073Y124539D01*
X93000Y124417D01*
X93927Y124539D01*
X94792Y124897D01*
X95534Y125466D01*
X96103Y126208D01*
X96461Y127073D01*
X96583Y128000D01*
X96461Y128927D01*
X96103Y129792D01*
X95534Y130534D01*
X94792Y131103D01*
X93927Y131461D01*
X93000Y131583D01*
D02*
G37*
G36*
X30000Y225144D02*
X28669Y224969D01*
X27428Y224455D01*
X26363Y223637D01*
X25545Y222572D01*
X25031Y221331D01*
X24856Y220000D01*
X25031Y218669D01*
X25545Y217428D01*
X26363Y216363D01*
X27428Y215545D01*
X28669Y215031D01*
X30000Y214856D01*
X31331Y215031D01*
X31762Y215210D01*
X41859Y205113D01*
Y181000D01*
X42022Y180181D01*
X42486Y179486D01*
X60486Y161486D01*
X61181Y161022D01*
X62000Y160859D01*
X86113D01*
X90519Y156453D01*
X90476Y155789D01*
X90326Y155674D01*
X89725Y154891D01*
X89347Y153979D01*
X89218Y153000D01*
X89347Y152021D01*
X89725Y151109D01*
X90314Y150342D01*
X81486Y141514D01*
X81022Y140819D01*
X80859Y140000D01*
Y130835D01*
X80466Y130534D01*
X79897Y129792D01*
X79539Y128927D01*
X79417Y128000D01*
X79539Y127073D01*
X79897Y126208D01*
X80466Y125466D01*
X81208Y124897D01*
X82073Y124539D01*
X83000Y124417D01*
X83927Y124539D01*
X84792Y124897D01*
X85534Y125466D01*
X86103Y126208D01*
X86461Y127073D01*
X86583Y128000D01*
X86461Y128927D01*
X86103Y129792D01*
X85534Y130534D01*
X85141Y130835D01*
Y139113D01*
X94514Y148486D01*
X94978Y149181D01*
X95122Y149902D01*
X95674Y150326D01*
X96275Y151109D01*
X96653Y152021D01*
X96782Y153000D01*
X96653Y153979D01*
X96275Y154891D01*
X95674Y155674D01*
X95141Y156083D01*
Y157000D01*
X94978Y157819D01*
X94514Y158514D01*
X88514Y164514D01*
X87819Y164978D01*
X87000Y165141D01*
X62887D01*
X46141Y181887D01*
Y206000D01*
X45978Y206819D01*
X45514Y207514D01*
X34790Y218238D01*
X34969Y218669D01*
X35144Y220000D01*
X34969Y221331D01*
X34455Y222572D01*
X33637Y223637D01*
X32572Y224455D01*
X31331Y224969D01*
X30000Y225144D01*
D02*
G37*
G36*
X380000Y140475D02*
X378361Y140346D01*
X376763Y139962D01*
X375244Y139333D01*
X373843Y138474D01*
X372593Y137407D01*
X371526Y136157D01*
X370667Y134756D01*
X370038Y133237D01*
X369654Y131639D01*
X369525Y130000D01*
X369654Y128361D01*
X370038Y126763D01*
X370667Y125244D01*
X371526Y123843D01*
X372593Y122593D01*
X373843Y121526D01*
X375244Y120667D01*
X376763Y120038D01*
X378361Y119654D01*
X380000Y119525D01*
X381639Y119654D01*
X383237Y120038D01*
X384755Y120667D01*
X386157Y121526D01*
X387407Y122593D01*
X388474Y123843D01*
X389333Y125244D01*
X389962Y126763D01*
X390346Y128361D01*
X390475Y130000D01*
X390346Y131639D01*
X389962Y133237D01*
X389333Y134756D01*
X388474Y136157D01*
X387407Y137407D01*
X386157Y138474D01*
X384755Y139333D01*
X383237Y139962D01*
X381639Y140346D01*
X380000Y140475D01*
D02*
G37*
G36*
X20000D02*
X18361Y140346D01*
X16763Y139962D01*
X15245Y139333D01*
X13843Y138474D01*
X12593Y137407D01*
X11526Y136157D01*
X10667Y134756D01*
X10038Y133237D01*
X9654Y131639D01*
X9525Y130000D01*
X9654Y128361D01*
X10038Y126763D01*
X10667Y125244D01*
X11526Y123843D01*
X12593Y122593D01*
X13843Y121526D01*
X15245Y120667D01*
X16763Y120038D01*
X18361Y119654D01*
X20000Y119525D01*
X21639Y119654D01*
X23237Y120038D01*
X24756Y120667D01*
X26157Y121526D01*
X27407Y122593D01*
X28474Y123843D01*
X29333Y125244D01*
X29962Y126763D01*
X30346Y128361D01*
X30475Y130000D01*
X30346Y131639D01*
X29962Y133237D01*
X29333Y134756D01*
X28474Y136157D01*
X27407Y137407D01*
X26157Y138474D01*
X24756Y139333D01*
X23237Y139962D01*
X21639Y140346D01*
X20000Y140475D01*
D02*
G37*
%LPD*%
G36*
X136447Y318553D02*
X136447Y318359D01*
Y311447D01*
X141606D01*
X154027Y299027D01*
X154027Y299027D01*
X154473Y298728D01*
X155000Y298623D01*
X167408D01*
X167578Y298124D01*
X167181Y297819D01*
X166547Y296993D01*
X166149Y296032D01*
X166079Y295500D01*
X170000D01*
X173921D01*
X173851Y296032D01*
X173453Y296993D01*
X172819Y297819D01*
X172422Y298124D01*
X172592Y298623D01*
X179430D01*
X192624Y285430D01*
Y277535D01*
X192548Y277484D01*
X191973Y277473D01*
X191973Y277473D01*
X178473Y290973D01*
X178027Y291272D01*
X177500Y291376D01*
X172592D01*
X172422Y291877D01*
X172819Y292181D01*
X173453Y293007D01*
X173851Y293968D01*
X173921Y294500D01*
X170000D01*
X166079D01*
X166149Y293968D01*
X166547Y293007D01*
X167181Y292181D01*
X167578Y291877D01*
X167408Y291376D01*
X142592D01*
X142422Y291877D01*
X142819Y292181D01*
X143453Y293007D01*
X143851Y293968D01*
X143921Y294500D01*
X140000D01*
X136079D01*
X136149Y293968D01*
X136547Y293007D01*
X137181Y292181D01*
X137578Y291877D01*
X137408Y291376D01*
X135570D01*
X113553Y313394D01*
Y318359D01*
X113553Y318553D01*
X113926Y318859D01*
X119113D01*
X122859Y315113D01*
Y309000D01*
X123022Y308181D01*
X123486Y307486D01*
X127486Y303486D01*
X128181Y303022D01*
X129000Y302859D01*
X137165D01*
X137466Y302466D01*
X138208Y301897D01*
X139073Y301539D01*
X140000Y301417D01*
X140927Y301539D01*
X141792Y301897D01*
X142534Y302466D01*
X143103Y303208D01*
X143461Y304073D01*
X143583Y305000D01*
X143461Y305927D01*
X143103Y306792D01*
X142534Y307534D01*
X141792Y308103D01*
X140927Y308461D01*
X140000Y308583D01*
X139073Y308461D01*
X138208Y308103D01*
X137466Y307534D01*
X137165Y307141D01*
X129887D01*
X127141Y309887D01*
Y315113D01*
X130887Y318859D01*
X136074D01*
X136447Y318553D01*
D02*
G37*
%LPC*%
G36*
X140500Y298921D02*
Y295500D01*
X143921D01*
X143851Y296032D01*
X143453Y296993D01*
X142819Y297819D01*
X141993Y298453D01*
X141032Y298851D01*
X140500Y298921D01*
D02*
G37*
G36*
X139500D02*
X138968Y298851D01*
X138007Y298453D01*
X137181Y297819D01*
X136547Y296993D01*
X136149Y296032D01*
X136079Y295500D01*
X139500D01*
Y298921D01*
D02*
G37*
%LPD*%
D13*
X240000Y330000D02*
X250000D01*
X300000Y310000D02*
Y320000D01*
X290000Y330000D02*
X300000Y320000D01*
X197000Y223000D02*
Y288000D01*
X170000Y315000D02*
X197000Y288000D01*
X180000Y135000D02*
Y190000D01*
X175000Y195000D02*
X180000Y190000D01*
X170000Y205000D02*
X178000D01*
X185000Y198000D01*
Y160000D02*
Y198000D01*
X180000Y135000D02*
X185000Y130000D01*
X195000Y140000D02*
X210000D01*
X185000Y130000D02*
X195000Y140000D01*
X185000Y160000D02*
X195000Y150000D01*
X210000D01*
X185000Y140000D02*
X195000Y150000D01*
X170000Y195000D02*
X175000D01*
X310000Y190000D02*
X366000D01*
X310000Y200000D02*
X366000D01*
X310000Y210000D02*
X366000D01*
X361000Y145000D02*
X366000Y150000D01*
X336000Y145000D02*
X361000D01*
X332000Y149000D02*
X336000Y145000D01*
X323000Y149000D02*
X332000D01*
X322000Y150000D02*
X323000Y149000D01*
X310000Y150000D02*
X322000D01*
X324000Y161000D02*
X332000D01*
X323000Y160000D02*
X324000Y161000D01*
X310000Y160000D02*
X323000D01*
X360000D02*
X366000D01*
X356000Y156000D02*
X360000Y160000D01*
X337000Y156000D02*
X356000D01*
X332000Y161000D02*
X337000Y156000D01*
X361000Y170000D02*
X366000D01*
X359000Y168000D02*
X361000Y170000D01*
X337000Y168000D02*
X359000D01*
X332000Y173000D02*
X337000Y168000D01*
X329000Y170000D02*
X332000Y173000D01*
X310000Y170000D02*
X329000D01*
X337000Y180000D02*
X366000D01*
X332000Y185000D02*
X337000Y180000D01*
X327000D02*
X332000Y185000D01*
X310000Y180000D02*
X327000D01*
X140000Y285000D02*
X170000D01*
X188000Y192000D02*
Y245000D01*
X178000Y255000D02*
X188000Y245000D01*
X170000Y255000D02*
X178000D01*
X200000Y180000D02*
X210000D01*
X188000Y192000D02*
X200000Y180000D01*
Y220000D02*
X210000D01*
X197000Y223000D02*
X200000Y220000D01*
X180000Y300000D02*
X194000Y286000D01*
Y216000D02*
Y286000D01*
Y216000D02*
X200000Y210000D01*
X177500Y290000D02*
X191000Y276500D01*
Y209000D02*
Y276500D01*
Y209000D02*
X200000Y200000D01*
X210000D01*
X135000Y290000D02*
X177500D01*
X110000Y315000D02*
X135000Y290000D01*
X200000Y210000D02*
X210000D01*
X155000Y300000D02*
X180000D01*
X140000Y315000D02*
X155000Y300000D01*
X140000Y195000D02*
X170000D01*
X140000Y205000D02*
X170000D01*
X140000Y255000D02*
X170000D01*
X110000D02*
X140000D01*
X80000D02*
X110000D01*
X50000D02*
X80000D01*
X20000D02*
X50000D01*
X140000Y265000D02*
X170000D01*
X110000D02*
X140000D01*
X80000D02*
X110000D01*
X50000D02*
X80000D01*
X20000D02*
X50000D01*
X140000Y275000D02*
X170000D01*
X110000D02*
X140000D01*
X80000D02*
X110000D01*
X50000D02*
X80000D01*
X20000D02*
X50000D01*
X110000Y285000D02*
X140000D01*
X80000D02*
X110000D01*
X50000D02*
X80000D01*
X20000D02*
X50000D01*
X300000Y130000D02*
X310000D01*
X300000Y140000D02*
X310000D01*
X300000Y150000D02*
X310000D01*
X300000Y160000D02*
X310000D01*
X300000Y170000D02*
X310000D01*
X300000Y180000D02*
X310000D01*
X300000Y190000D02*
X310000D01*
X300000Y200000D02*
X310000D01*
X300000Y210000D02*
X310000D01*
X300000Y220000D02*
X310000D01*
X300000Y230000D02*
X310000D01*
X300000Y240000D02*
X310000D01*
X300000Y250000D02*
X310000D01*
X300000Y260000D02*
X310000D01*
X300000Y270000D02*
X310000D01*
X300000Y280000D02*
X310000D01*
X300000Y290000D02*
X310000D01*
X300000Y300000D02*
X310000D01*
X300000Y310000D02*
X310000D01*
D30*
X160000Y185000D02*
X170000D01*
X153500Y178500D02*
X160000Y185000D01*
X147000D02*
X153281Y178719D01*
Y158641D02*
Y178719D01*
X153000Y158360D02*
X153281Y158641D01*
X153000Y119500D02*
Y158360D01*
Y119500D02*
X155000Y117500D01*
X100000Y321000D02*
X120000D01*
X95000Y316000D02*
X100000Y321000D01*
X95000Y309000D02*
Y316000D01*
X209000Y321000D02*
X267843Y262158D01*
X159000Y321000D02*
X209000D01*
X155000Y317000D02*
X159000Y321000D01*
X130000D02*
X151000D01*
X125000Y316000D02*
X130000Y321000D01*
X125000Y309000D02*
Y316000D01*
X120000Y321000D02*
X125000Y316000D01*
X155000Y309000D02*
Y317000D01*
Y309000D02*
X159000Y305000D01*
X151000Y321000D02*
X155000Y317000D01*
X125000Y309000D02*
X129000Y305000D01*
X140000D01*
X159000D02*
X170000D01*
X99000D02*
X110000D01*
X95000Y309000D02*
X99000Y305000D01*
X91000D02*
X95000Y309000D01*
X80000Y305000D02*
X91000D01*
X50000D02*
X80000D01*
X20000D02*
X50000D01*
X267843Y228000D02*
Y262158D01*
X62000Y163000D02*
X87000D01*
X93000Y157000D01*
Y153000D02*
Y157000D01*
Y150000D02*
Y153000D01*
X83000Y140000D02*
X93000Y150000D01*
X83000Y128000D02*
Y140000D01*
X103000Y128000D02*
Y153000D01*
X44000Y181000D02*
X62000Y163000D01*
X267843Y155157D02*
Y228000D01*
Y155157D02*
X293000Y130000D01*
X44000Y181000D02*
Y206000D01*
X30000Y220000D02*
X44000Y206000D01*
X293000Y130000D02*
X300000D01*
X140000Y185000D02*
X147000D01*
D31*
X290000Y330000D02*
D03*
X250000D02*
D03*
X145000Y140000D02*
D03*
X185000D02*
D03*
X145000Y130000D02*
D03*
X185000D02*
D03*
X60000Y195000D02*
D03*
Y155000D02*
D03*
X123000Y168000D02*
D03*
Y128000D02*
D03*
D32*
X230000Y330000D02*
D03*
X240000D02*
D03*
X110000Y230000D02*
D03*
X100000D02*
D03*
X90000D02*
D03*
X80000D02*
D03*
X70000D02*
D03*
X140000Y195000D02*
D03*
Y185000D02*
D03*
Y175000D02*
D03*
X170000Y195000D02*
D03*
Y185000D02*
D03*
Y175000D02*
D03*
X103000Y128000D02*
D03*
X93000D02*
D03*
X83000D02*
D03*
X366000Y190000D02*
D03*
Y200000D02*
D03*
Y180000D02*
D03*
Y170000D02*
D03*
Y160000D02*
D03*
Y150000D02*
D03*
X336000Y255000D02*
D03*
Y245000D02*
D03*
Y235000D02*
D03*
X340000Y285000D02*
D03*
X350000D02*
D03*
X20000Y295000D02*
D03*
Y305000D02*
D03*
Y285000D02*
D03*
Y275000D02*
D03*
Y265000D02*
D03*
Y255000D02*
D03*
X50000Y295000D02*
D03*
Y305000D02*
D03*
Y285000D02*
D03*
Y275000D02*
D03*
Y265000D02*
D03*
Y255000D02*
D03*
X80000Y295000D02*
D03*
Y305000D02*
D03*
Y285000D02*
D03*
Y275000D02*
D03*
Y265000D02*
D03*
Y255000D02*
D03*
X110000Y295000D02*
D03*
Y305000D02*
D03*
Y285000D02*
D03*
Y275000D02*
D03*
Y265000D02*
D03*
Y255000D02*
D03*
X140000Y295000D02*
D03*
Y305000D02*
D03*
Y285000D02*
D03*
Y275000D02*
D03*
Y265000D02*
D03*
Y255000D02*
D03*
X170000Y295000D02*
D03*
Y305000D02*
D03*
Y285000D02*
D03*
Y275000D02*
D03*
Y265000D02*
D03*
Y255000D02*
D03*
X160000Y155000D02*
D03*
D33*
X120000Y230000D02*
D03*
X360000Y285000D02*
D03*
X170000Y155000D02*
D03*
D34*
X140000Y205000D02*
D03*
X170000D02*
D03*
X366000Y210000D02*
D03*
X20000Y315000D02*
D03*
X50000D02*
D03*
X80000D02*
D03*
X110000D02*
D03*
X140000D02*
D03*
X170000D02*
D03*
D35*
X83000Y153000D02*
D03*
D36*
X93000D02*
D03*
X103000D02*
D03*
D37*
X248158Y228000D02*
D03*
D38*
X267843Y228000D02*
D03*
D39*
X332000Y149000D02*
D03*
X342000D02*
D03*
X332000Y161000D02*
D03*
X342000D02*
D03*
X332000Y185000D02*
D03*
X342000D02*
D03*
X332000Y173000D02*
D03*
X342000D02*
D03*
X360000Y233000D02*
D03*
X350000D02*
D03*
X360000Y245000D02*
D03*
X350000D02*
D03*
X360000Y257000D02*
D03*
X350000D02*
D03*
D40*
X380000Y240000D02*
D03*
X20000D02*
D03*
X380000Y300000D02*
D03*
Y130000D02*
D03*
X20000D02*
D03*
D41*
X340000Y320000D02*
D03*
X360000D02*
D03*
X30000Y160000D02*
D03*
Y180000D02*
D03*
Y200000D02*
D03*
Y220000D02*
D03*
D42*
X210000Y310000D02*
D03*
Y300000D02*
D03*
Y250000D02*
D03*
Y240000D02*
D03*
Y230000D02*
D03*
Y220000D02*
D03*
Y210000D02*
D03*
Y200000D02*
D03*
Y180000D02*
D03*
Y170000D02*
D03*
Y160000D02*
D03*
Y150000D02*
D03*
Y140000D02*
D03*
X300000Y130000D02*
D03*
Y140000D02*
D03*
Y150000D02*
D03*
Y160000D02*
D03*
Y170000D02*
D03*
Y180000D02*
D03*
Y190000D02*
D03*
Y200000D02*
D03*
Y210000D02*
D03*
Y220000D02*
D03*
Y230000D02*
D03*
Y240000D02*
D03*
Y250000D02*
D03*
Y270000D02*
D03*
Y280000D02*
D03*
Y290000D02*
D03*
Y300000D02*
D03*
Y310000D02*
D03*
X210000Y290000D02*
D03*
Y280000D02*
D03*
Y270000D02*
D03*
Y260000D02*
D03*
X310000Y130000D02*
D03*
Y140000D02*
D03*
Y150000D02*
D03*
Y160000D02*
D03*
Y170000D02*
D03*
Y180000D02*
D03*
Y190000D02*
D03*
Y200000D02*
D03*
Y210000D02*
D03*
Y220000D02*
D03*
Y230000D02*
D03*
Y240000D02*
D03*
Y250000D02*
D03*
Y270000D02*
D03*
Y280000D02*
D03*
Y290000D02*
D03*
Y300000D02*
D03*
Y310000D02*
D03*
D43*
X210000Y190000D02*
D03*
Y130000D02*
D03*
X300000Y260000D02*
D03*
X310000D02*
D03*
D44*
X385000Y330000D02*
D03*
X380000Y320000D02*
D03*
Y280000D02*
D03*
X385000Y270000D02*
D03*
X380000Y260000D02*
D03*
Y220000D02*
D03*
X375000Y330000D02*
D03*
X370000Y320000D02*
D03*
Y280000D02*
D03*
X375000Y270000D02*
D03*
X370000Y260000D02*
D03*
Y220000D02*
D03*
X375000Y210000D02*
D03*
Y190000D02*
D03*
Y170000D02*
D03*
Y150000D02*
D03*
X370000Y140000D02*
D03*
Y120000D02*
D03*
X365000Y330000D02*
D03*
Y310000D02*
D03*
Y270000D02*
D03*
Y130000D02*
D03*
X360000Y120000D02*
D03*
X355000Y330000D02*
D03*
X350000Y320000D02*
D03*
Y300000D02*
D03*
X355000Y270000D02*
D03*
Y250000D02*
D03*
X350000Y160000D02*
D03*
Y140000D02*
D03*
X345000Y330000D02*
D03*
X340000Y300000D02*
D03*
X345000Y290000D02*
D03*
Y270000D02*
D03*
X340000Y260000D02*
D03*
X345000Y250000D02*
D03*
X340000Y240000D02*
D03*
Y140000D02*
D03*
X335000Y330000D02*
D03*
X330000Y320000D02*
D03*
Y300000D02*
D03*
X335000Y290000D02*
D03*
X330000Y280000D02*
D03*
X335000Y270000D02*
D03*
X330000Y260000D02*
D03*
Y240000D02*
D03*
X325000Y330000D02*
D03*
X320000Y320000D02*
D03*
Y300000D02*
D03*
X325000Y290000D02*
D03*
X320000Y280000D02*
D03*
X325000Y270000D02*
D03*
X320000Y260000D02*
D03*
X325000Y250000D02*
D03*
X320000Y240000D02*
D03*
X325000Y230000D02*
D03*
Y130000D02*
D03*
X315000Y330000D02*
D03*
X310000Y320000D02*
D03*
X305000Y330000D02*
D03*
X290000Y320000D02*
D03*
Y300000D02*
D03*
Y280000D02*
D03*
Y240000D02*
D03*
Y220000D02*
D03*
Y200000D02*
D03*
Y180000D02*
D03*
X280000Y320000D02*
D03*
X285000Y310000D02*
D03*
X280000Y300000D02*
D03*
X285000Y290000D02*
D03*
X280000Y280000D02*
D03*
Y240000D02*
D03*
Y200000D02*
D03*
Y180000D02*
D03*
Y160000D02*
D03*
X275000Y330000D02*
D03*
X270000Y320000D02*
D03*
X275000Y310000D02*
D03*
X270000Y300000D02*
D03*
X275000Y290000D02*
D03*
Y250000D02*
D03*
Y230000D02*
D03*
Y190000D02*
D03*
Y170000D02*
D03*
X270000Y140000D02*
D03*
X275000Y130000D02*
D03*
X265000Y330000D02*
D03*
X260000Y320000D02*
D03*
X265000Y310000D02*
D03*
X260000Y300000D02*
D03*
Y260000D02*
D03*
Y240000D02*
D03*
Y220000D02*
D03*
Y180000D02*
D03*
Y160000D02*
D03*
X265000Y150000D02*
D03*
X260000Y140000D02*
D03*
X265000Y130000D02*
D03*
X250000Y320000D02*
D03*
X255000Y310000D02*
D03*
X250000Y260000D02*
D03*
X255000Y250000D02*
D03*
X250000Y240000D02*
D03*
X255000Y230000D02*
D03*
X250000Y220000D02*
D03*
X255000Y210000D02*
D03*
X250000Y200000D02*
D03*
Y180000D02*
D03*
X255000Y170000D02*
D03*
X250000Y160000D02*
D03*
X255000Y150000D02*
D03*
X250000Y140000D02*
D03*
X255000Y130000D02*
D03*
X240000Y320000D02*
D03*
Y280000D02*
D03*
Y260000D02*
D03*
X245000Y250000D02*
D03*
X240000Y240000D02*
D03*
Y220000D02*
D03*
X245000Y210000D02*
D03*
X240000Y200000D02*
D03*
X245000Y190000D02*
D03*
Y170000D02*
D03*
X240000Y160000D02*
D03*
X245000Y150000D02*
D03*
X240000Y140000D02*
D03*
X245000Y130000D02*
D03*
X235000Y250000D02*
D03*
X230000Y240000D02*
D03*
X235000Y230000D02*
D03*
X230000Y220000D02*
D03*
X235000Y210000D02*
D03*
X230000Y200000D02*
D03*
X235000Y190000D02*
D03*
Y150000D02*
D03*
Y130000D02*
D03*
X220000Y300000D02*
D03*
Y280000D02*
D03*
Y260000D02*
D03*
Y240000D02*
D03*
Y220000D02*
D03*
Y200000D02*
D03*
Y180000D02*
D03*
Y160000D02*
D03*
Y140000D02*
D03*
X225000Y130000D02*
D03*
X200000Y300000D02*
D03*
X195000Y310000D02*
D03*
X190000Y300000D02*
D03*
X195000Y210000D02*
D03*
Y190000D02*
D03*
X190000Y180000D02*
D03*
Y160000D02*
D03*
X195000Y130000D02*
D03*
X185000Y310000D02*
D03*
Y290000D02*
D03*
X180000Y280000D02*
D03*
Y240000D02*
D03*
X185000Y150000D02*
D03*
X175000Y270000D02*
D03*
Y250000D02*
D03*
X170000Y240000D02*
D03*
X175000Y190000D02*
D03*
X170000Y140000D02*
D03*
X175000Y130000D02*
D03*
X160000Y280000D02*
D03*
X165000Y270000D02*
D03*
X160000Y260000D02*
D03*
X165000Y250000D02*
D03*
X160000Y240000D02*
D03*
Y200000D02*
D03*
X165000Y190000D02*
D03*
X160000Y140000D02*
D03*
X165000Y130000D02*
D03*
X150000Y300000D02*
D03*
Y280000D02*
D03*
Y260000D02*
D03*
Y240000D02*
D03*
X155000Y210000D02*
D03*
X150000Y200000D02*
D03*
X155000Y190000D02*
D03*
X150000Y160000D02*
D03*
X145000Y270000D02*
D03*
Y250000D02*
D03*
X140000Y240000D02*
D03*
X145000Y190000D02*
D03*
X130000Y300000D02*
D03*
Y280000D02*
D03*
X135000Y270000D02*
D03*
X130000Y260000D02*
D03*
X135000Y250000D02*
D03*
X130000Y200000D02*
D03*
X135000Y190000D02*
D03*
X130000Y180000D02*
D03*
X120000Y300000D02*
D03*
Y280000D02*
D03*
Y260000D02*
D03*
Y160000D02*
D03*
X125000Y150000D02*
D03*
X120000Y140000D02*
D03*
X115000Y290000D02*
D03*
Y270000D02*
D03*
Y250000D02*
D03*
X110000Y240000D02*
D03*
X115000Y170000D02*
D03*
X110000Y160000D02*
D03*
X115000Y150000D02*
D03*
X110000Y140000D02*
D03*
X105000Y290000D02*
D03*
Y270000D02*
D03*
Y250000D02*
D03*
Y170000D02*
D03*
X100000Y160000D02*
D03*
X95000Y290000D02*
D03*
Y270000D02*
D03*
Y250000D02*
D03*
Y170000D02*
D03*
X85000Y290000D02*
D03*
Y270000D02*
D03*
Y250000D02*
D03*
X80000Y240000D02*
D03*
X85000Y170000D02*
D03*
X75000Y290000D02*
D03*
Y270000D02*
D03*
Y250000D02*
D03*
Y170000D02*
D03*
Y150000D02*
D03*
X70000Y140000D02*
D03*
X60000Y320000D02*
D03*
Y300000D02*
D03*
Y280000D02*
D03*
Y260000D02*
D03*
X65000Y150000D02*
D03*
X55000Y290000D02*
D03*
Y270000D02*
D03*
Y250000D02*
D03*
X50000Y240000D02*
D03*
X55000Y190000D02*
D03*
Y150000D02*
D03*
X40000Y300000D02*
D03*
X45000Y290000D02*
D03*
X40000Y280000D02*
D03*
X45000Y270000D02*
D03*
X40000Y260000D02*
D03*
X45000Y250000D02*
D03*
X40000Y240000D02*
D03*
Y220000D02*
D03*
X45000Y170000D02*
D03*
Y150000D02*
D03*
X40000Y140000D02*
D03*
X35000Y330000D02*
D03*
X30000Y320000D02*
D03*
Y300000D02*
D03*
Y280000D02*
D03*
Y260000D02*
D03*
X35000Y230000D02*
D03*
Y190000D02*
D03*
Y170000D02*
D03*
Y150000D02*
D03*
X30000Y120000D02*
D03*
X25000Y330000D02*
D03*
Y290000D02*
D03*
Y270000D02*
D03*
X20000Y220000D02*
D03*
X25000Y210000D02*
D03*
X20000Y200000D02*
D03*
X25000Y190000D02*
D03*
X20000Y180000D02*
D03*
X25000Y170000D02*
D03*
X20000Y160000D02*
D03*
X25000Y150000D02*
D03*
X15000Y330000D02*
D03*
X10000Y320000D02*
D03*
Y300000D02*
D03*
X15000Y290000D02*
D03*
X10000Y280000D02*
D03*
X15000Y270000D02*
D03*
X10000Y260000D02*
D03*
X15000Y210000D02*
D03*
Y190000D02*
D03*
Y170000D02*
D03*
Y150000D02*
D03*
X10000Y140000D02*
D03*
Y120000D02*
D03*
D45*
X180000Y230000D02*
D03*
X170000D02*
D03*
Y220000D02*
D03*
X180000D02*
D03*
X160000D02*
D03*
X150000D02*
D03*
X140000D02*
D03*
X130000D02*
D03*
Y230000D02*
D03*
X140000D02*
D03*
X150000D02*
D03*
X160000D02*
D03*
X50000D02*
D03*
Y220000D02*
D03*
Y210000D02*
D03*
X60000D02*
D03*
Y220000D02*
D03*
X120000D02*
D03*
X110000D02*
D03*
X100000D02*
D03*
X90000D02*
D03*
X80000D02*
D03*
X70000D02*
D03*
X60000Y230000D02*
D03*
X120000Y180000D02*
D03*
X110000D02*
D03*
X100000D02*
D03*
X90000D02*
D03*
X80000D02*
D03*
X70000D02*
D03*
X120000Y190000D02*
D03*
X110000D02*
D03*
X100000D02*
D03*
X90000D02*
D03*
X80000D02*
D03*
X70000D02*
D03*
Y200000D02*
D03*
Y210000D02*
D03*
X80000D02*
D03*
Y200000D02*
D03*
X90000D02*
D03*
Y210000D02*
D03*
X100000D02*
D03*
Y200000D02*
D03*
X110000D02*
D03*
Y210000D02*
D03*
X120000Y200000D02*
D03*
Y210000D02*
D03*
D46*
X155000Y117500D02*
D03*
M02*
