G04*
G04 #@! TF.GenerationSoftware,Altium Limited,Altium Designer,18.0.7 (293)*
G04*
G04 Layer_Physical_Order=1*
G04 Layer_Color=255*
%FSLAX25Y25*%
%MOIN*%
G70*
G01*
G75*
%ADD12C,0.01500*%
%ADD29C,0.03000*%
%ADD30C,0.05315*%
%ADD31R,0.05315X0.05315*%
%ADD32C,0.04724*%
%ADD33C,0.05906*%
%ADD34R,0.05906X0.05906*%
%ADD35R,0.05906X0.05906*%
%ADD36C,0.08000*%
%ADD37C,0.09000*%
%ADD38C,0.05512*%
%ADD39C,0.06299*%
%ADD40R,0.06299X0.06299*%
%ADD41C,0.06299*%
%ADD42R,0.06299X0.06299*%
%ADD43C,0.07087*%
%ADD44C,0.03150*%
G36*
X392000Y112000D02*
X2000D01*
Y338000D01*
X392000D01*
Y112000D01*
D02*
G37*
%LPC*%
G36*
X340500Y325482D02*
Y320500D01*
X345482D01*
X345358Y321436D01*
X344804Y322774D01*
X343923Y323923D01*
X342774Y324804D01*
X341436Y325358D01*
X340500Y325482D01*
D02*
G37*
G36*
X339500D02*
X338564Y325358D01*
X337226Y324804D01*
X336077Y323923D01*
X335196Y322774D01*
X334642Y321436D01*
X334518Y320500D01*
X339500D01*
Y325482D01*
D02*
G37*
G36*
X213000Y319039D02*
X206000D01*
X205220Y318884D01*
X204558Y318442D01*
X203155Y317039D01*
X173453D01*
Y318453D01*
X166547D01*
Y317039D01*
X143453D01*
Y318453D01*
X136547D01*
Y317039D01*
X113453D01*
Y318453D01*
X106547D01*
Y317039D01*
X83453D01*
Y318453D01*
X76547D01*
Y317039D01*
X53453D01*
Y318453D01*
X46547D01*
Y317039D01*
X23453D01*
Y318453D01*
X16547D01*
Y311547D01*
X23453D01*
Y312961D01*
X46547D01*
Y311547D01*
X53453D01*
Y312961D01*
X76547D01*
Y311547D01*
X83453D01*
Y312961D01*
X106547D01*
Y311547D01*
X113453D01*
Y312961D01*
X136547D01*
Y311547D01*
X143453D01*
Y312961D01*
X166547D01*
Y311547D01*
X173453D01*
Y312961D01*
X204000D01*
X204780Y313116D01*
X205442Y313558D01*
X206845Y314961D01*
X212155D01*
X265803Y261313D01*
Y231157D01*
X264685D01*
Y224843D01*
X265803D01*
Y155157D01*
X265959Y154377D01*
X266401Y153716D01*
X291558Y128558D01*
X292220Y128116D01*
X293000Y127961D01*
X296965D01*
X297397Y127397D01*
X298160Y126812D01*
X299047Y126444D01*
X300000Y126319D01*
X300953Y126444D01*
X301840Y126812D01*
X302603Y127397D01*
X303188Y128159D01*
X303422Y128726D01*
X306578D01*
X306812Y128159D01*
X307397Y127397D01*
X308159Y126812D01*
X309047Y126444D01*
X310000Y126319D01*
X310953Y126444D01*
X311841Y126812D01*
X312603Y127397D01*
X313188Y128159D01*
X313556Y129047D01*
X313681Y130000D01*
X313556Y130953D01*
X313188Y131841D01*
X312603Y132603D01*
X311841Y133188D01*
X310953Y133556D01*
X310000Y133681D01*
X309047Y133556D01*
X308159Y133188D01*
X307397Y132603D01*
X306812Y131841D01*
X306578Y131274D01*
X303422D01*
X303188Y131841D01*
X302603Y132603D01*
X301840Y133188D01*
X300953Y133556D01*
X300000Y133681D01*
X299047Y133556D01*
X298160Y133188D01*
X297397Y132603D01*
X296965Y132039D01*
X293845D01*
X269882Y156002D01*
Y224843D01*
X271000D01*
Y231157D01*
X269882D01*
Y262157D01*
X269882Y262158D01*
X269726Y262938D01*
X269284Y263599D01*
X269284Y263599D01*
X214442Y318442D01*
X213780Y318884D01*
X213000Y319039D01*
D02*
G37*
G36*
X360000Y325043D02*
X358695Y324871D01*
X357478Y324367D01*
X356434Y323566D01*
X355632Y322522D01*
X355129Y321305D01*
X354957Y320000D01*
X355129Y318695D01*
X355632Y317478D01*
X356434Y316434D01*
X357478Y315633D01*
X358695Y315129D01*
X360000Y314957D01*
X361305Y315129D01*
X362522Y315633D01*
X363566Y316434D01*
X364368Y317478D01*
X364871Y318695D01*
X365043Y320000D01*
X364871Y321305D01*
X364368Y322522D01*
X363566Y323566D01*
X362522Y324367D01*
X361305Y324871D01*
X360000Y325043D01*
D02*
G37*
G36*
X345482Y319500D02*
X340500D01*
Y314518D01*
X341436Y314642D01*
X342774Y315196D01*
X343923Y316077D01*
X344804Y317226D01*
X345358Y318564D01*
X345482Y319500D01*
D02*
G37*
G36*
X339500D02*
X334518D01*
X334642Y318564D01*
X335196Y317226D01*
X336077Y316077D01*
X337226Y315196D01*
X338564Y314642D01*
X339500Y314518D01*
Y319500D01*
D02*
G37*
G36*
X310000Y313681D02*
X309047Y313556D01*
X308159Y313188D01*
X307397Y312603D01*
X306812Y311841D01*
X306578Y311275D01*
X303422D01*
X303188Y311841D01*
X302603Y312603D01*
X301840Y313188D01*
X300953Y313556D01*
X300000Y313681D01*
X299047Y313556D01*
X298160Y313188D01*
X297397Y312603D01*
X296812Y311841D01*
X296444Y310953D01*
X296319Y310000D01*
X296444Y309047D01*
X296812Y308159D01*
X297397Y307397D01*
X298160Y306812D01*
X299047Y306444D01*
X300000Y306319D01*
X300953Y306444D01*
X301840Y306812D01*
X302603Y307397D01*
X303188Y308159D01*
X303422Y308726D01*
X306578D01*
X306812Y308159D01*
X307397Y307397D01*
X308159Y306812D01*
X309047Y306444D01*
X310000Y306319D01*
X310953Y306444D01*
X311841Y306812D01*
X312603Y307397D01*
X313188Y308159D01*
X313556Y309047D01*
X313681Y310000D01*
X313556Y310953D01*
X313188Y311841D01*
X312603Y312603D01*
X311841Y313188D01*
X310953Y313556D01*
X310000Y313681D01*
D02*
G37*
G36*
X210000D02*
X209047Y313556D01*
X208159Y313188D01*
X207397Y312603D01*
X206812Y311841D01*
X206444Y310953D01*
X206319Y310000D01*
X206444Y309047D01*
X206812Y308159D01*
X207397Y307397D01*
X208159Y306812D01*
X209047Y306444D01*
X210000Y306319D01*
X210953Y306444D01*
X211841Y306812D01*
X212603Y307397D01*
X213188Y308159D01*
X213556Y309047D01*
X213681Y310000D01*
X213556Y310953D01*
X213188Y311841D01*
X212603Y312603D01*
X211841Y313188D01*
X210953Y313556D01*
X210000Y313681D01*
D02*
G37*
G36*
X80000Y308483D02*
X79099Y308364D01*
X78259Y308016D01*
X77538Y307463D01*
X76984Y306741D01*
X76636Y305901D01*
X76517Y305000D01*
X76636Y304099D01*
X76984Y303259D01*
X77538Y302537D01*
X78259Y301984D01*
X79099Y301636D01*
X80000Y301518D01*
X80901Y301636D01*
X81741Y301984D01*
X82463Y302537D01*
X83016Y303259D01*
X83364Y304099D01*
X83482Y305000D01*
X83364Y305901D01*
X83016Y306741D01*
X82463Y307463D01*
X81741Y308016D01*
X80901Y308364D01*
X80000Y308483D01*
D02*
G37*
G36*
X50000D02*
X49099Y308364D01*
X48259Y308016D01*
X47537Y307463D01*
X46984Y306741D01*
X46636Y305901D01*
X46518Y305000D01*
X46636Y304099D01*
X46984Y303259D01*
X47537Y302537D01*
X48259Y301984D01*
X49099Y301636D01*
X50000Y301518D01*
X50901Y301636D01*
X51741Y301984D01*
X52463Y302537D01*
X53016Y303259D01*
X53364Y304099D01*
X53483Y305000D01*
X53364Y305901D01*
X53016Y306741D01*
X52463Y307463D01*
X51741Y308016D01*
X50901Y308364D01*
X50000Y308483D01*
D02*
G37*
G36*
X20000D02*
X19099Y308364D01*
X18259Y308016D01*
X17537Y307463D01*
X16984Y306741D01*
X16636Y305901D01*
X16518Y305000D01*
X16636Y304099D01*
X16984Y303259D01*
X17537Y302537D01*
X18259Y301984D01*
X19099Y301636D01*
X20000Y301518D01*
X20901Y301636D01*
X21741Y301984D01*
X22463Y302537D01*
X23016Y303259D01*
X23364Y304099D01*
X23483Y305000D01*
X23364Y305901D01*
X23016Y306741D01*
X22463Y307463D01*
X21741Y308016D01*
X20901Y308364D01*
X20000Y308483D01*
D02*
G37*
G36*
X310000Y303681D02*
X309047Y303556D01*
X308159Y303188D01*
X307397Y302603D01*
X306812Y301840D01*
X306578Y301274D01*
X303422D01*
X303188Y301840D01*
X302603Y302603D01*
X301840Y303188D01*
X300953Y303556D01*
X300000Y303681D01*
X299047Y303556D01*
X298160Y303188D01*
X297397Y302603D01*
X296812Y301840D01*
X296444Y300953D01*
X296319Y300000D01*
X296444Y299047D01*
X296812Y298160D01*
X297397Y297397D01*
X298160Y296812D01*
X299047Y296444D01*
X300000Y296319D01*
X300953Y296444D01*
X301840Y296812D01*
X302603Y297397D01*
X303188Y298160D01*
X303422Y298726D01*
X306578D01*
X306812Y298160D01*
X307397Y297397D01*
X308159Y296812D01*
X309047Y296444D01*
X310000Y296319D01*
X310953Y296444D01*
X311841Y296812D01*
X312603Y297397D01*
X313188Y298160D01*
X313556Y299047D01*
X313681Y300000D01*
X313556Y300953D01*
X313188Y301840D01*
X312603Y302603D01*
X311841Y303188D01*
X310953Y303556D01*
X310000Y303681D01*
D02*
G37*
G36*
X170000Y308483D02*
X169099Y308364D01*
X168259Y308016D01*
X167537Y307463D01*
X166984Y306741D01*
X166636Y305901D01*
X166517Y305000D01*
X166636Y304099D01*
X166984Y303259D01*
X167537Y302537D01*
X168259Y301984D01*
X168765Y301775D01*
X168665Y301274D01*
X155528D01*
X150901Y305901D01*
X150488Y306177D01*
X150000Y306275D01*
X143209D01*
X143016Y306741D01*
X142463Y307463D01*
X141741Y308016D01*
X140901Y308364D01*
X140000Y308483D01*
X139099Y308364D01*
X138259Y308016D01*
X137538Y307463D01*
X136984Y306741D01*
X136636Y305901D01*
X136518Y305000D01*
X136636Y304099D01*
X136984Y303259D01*
X137538Y302537D01*
X138259Y301984D01*
X139099Y301636D01*
X140000Y301518D01*
X140901Y301636D01*
X141741Y301984D01*
X142463Y302537D01*
X143016Y303259D01*
X143209Y303726D01*
X149472D01*
X154099Y299099D01*
X154512Y298822D01*
X155000Y298726D01*
X167541D01*
X167710Y298225D01*
X167181Y297819D01*
X166547Y296993D01*
X166149Y296032D01*
X166079Y295500D01*
X170000D01*
X173921D01*
X173851Y296032D01*
X173453Y296993D01*
X172819Y297819D01*
X172290Y298225D01*
X172459Y298726D01*
X179472D01*
X192726Y285472D01*
Y276796D01*
X192226Y276746D01*
X192177Y276988D01*
X191901Y277401D01*
X178401Y290901D01*
X177988Y291178D01*
X177500Y291274D01*
X172459D01*
X172290Y291775D01*
X172819Y292181D01*
X173453Y293007D01*
X173851Y293968D01*
X173921Y294500D01*
X170000D01*
X166079D01*
X166149Y293968D01*
X166547Y293007D01*
X167181Y292181D01*
X167710Y291775D01*
X167541Y291274D01*
X142459D01*
X142290Y291775D01*
X142819Y292181D01*
X143453Y293007D01*
X143851Y293968D01*
X143921Y294500D01*
X140000D01*
X136079D01*
X136149Y293968D01*
X136547Y293007D01*
X137181Y292181D01*
X137710Y291775D01*
X137541Y291274D01*
X135528D01*
X120901Y305901D01*
X120488Y306177D01*
X120000Y306275D01*
X113209D01*
X113016Y306741D01*
X112462Y307463D01*
X111741Y308016D01*
X110901Y308364D01*
X110000Y308483D01*
X109099Y308364D01*
X108259Y308016D01*
X107537Y307463D01*
X106984Y306741D01*
X106636Y305901D01*
X106518Y305000D01*
X106636Y304099D01*
X106984Y303259D01*
X107537Y302537D01*
X108259Y301984D01*
X109099Y301636D01*
X110000Y301518D01*
X110901Y301636D01*
X111741Y301984D01*
X112462Y302537D01*
X113016Y303259D01*
X113209Y303726D01*
X119472D01*
X134099Y289099D01*
X134512Y288823D01*
X135000Y288725D01*
X138665D01*
X138765Y288226D01*
X138259Y288016D01*
X137538Y287462D01*
X136984Y286741D01*
X136791Y286275D01*
X113209D01*
X113016Y286741D01*
X112462Y287462D01*
X111741Y288016D01*
X110901Y288364D01*
X110000Y288482D01*
X109099Y288364D01*
X108259Y288016D01*
X107537Y287462D01*
X106984Y286741D01*
X106791Y286275D01*
X83209D01*
X83016Y286741D01*
X82463Y287462D01*
X81741Y288016D01*
X80901Y288364D01*
X80000Y288482D01*
X79099Y288364D01*
X78259Y288016D01*
X77538Y287462D01*
X76984Y286741D01*
X76791Y286275D01*
X53209D01*
X53016Y286741D01*
X52463Y287462D01*
X51741Y288016D01*
X50901Y288364D01*
X50000Y288482D01*
X49099Y288364D01*
X48259Y288016D01*
X47537Y287462D01*
X46984Y286741D01*
X46791Y286275D01*
X23209D01*
X23016Y286741D01*
X22463Y287462D01*
X21741Y288016D01*
X20901Y288364D01*
X20000Y288482D01*
X19099Y288364D01*
X18259Y288016D01*
X17537Y287462D01*
X16984Y286741D01*
X16636Y285901D01*
X16518Y285000D01*
X16636Y284099D01*
X16984Y283259D01*
X17537Y282538D01*
X18259Y281984D01*
X19099Y281636D01*
X20000Y281518D01*
X20901Y281636D01*
X21741Y281984D01*
X22463Y282538D01*
X23016Y283259D01*
X23209Y283726D01*
X46791D01*
X46984Y283259D01*
X47537Y282538D01*
X48259Y281984D01*
X49099Y281636D01*
X50000Y281518D01*
X50901Y281636D01*
X51741Y281984D01*
X52463Y282538D01*
X53016Y283259D01*
X53209Y283726D01*
X76791D01*
X76984Y283259D01*
X77538Y282538D01*
X78259Y281984D01*
X79099Y281636D01*
X80000Y281518D01*
X80901Y281636D01*
X81741Y281984D01*
X82463Y282538D01*
X83016Y283259D01*
X83209Y283726D01*
X106791D01*
X106984Y283259D01*
X107537Y282538D01*
X108259Y281984D01*
X109099Y281636D01*
X110000Y281518D01*
X110901Y281636D01*
X111741Y281984D01*
X112462Y282538D01*
X113016Y283259D01*
X113209Y283726D01*
X136791D01*
X136984Y283259D01*
X137538Y282538D01*
X138259Y281984D01*
X139099Y281636D01*
X140000Y281518D01*
X140901Y281636D01*
X141741Y281984D01*
X142463Y282538D01*
X143016Y283259D01*
X143209Y283726D01*
X166791D01*
X166984Y283259D01*
X167537Y282538D01*
X168259Y281984D01*
X169099Y281636D01*
X170000Y281518D01*
X170901Y281636D01*
X171741Y281984D01*
X172462Y282538D01*
X173016Y283259D01*
X173364Y284099D01*
X173483Y285000D01*
X173364Y285901D01*
X173016Y286741D01*
X172462Y287462D01*
X171741Y288016D01*
X171235Y288226D01*
X171335Y288725D01*
X176972D01*
X189725Y275972D01*
Y245296D01*
X189225Y245246D01*
X189178Y245488D01*
X188901Y245901D01*
X178901Y255901D01*
X178488Y256177D01*
X178000Y256275D01*
X173209D01*
X173016Y256741D01*
X172462Y257463D01*
X171741Y258016D01*
X170901Y258364D01*
X170000Y258483D01*
X169099Y258364D01*
X168259Y258016D01*
X167537Y257463D01*
X166984Y256741D01*
X166791Y256275D01*
X143209D01*
X143016Y256741D01*
X142463Y257463D01*
X141741Y258016D01*
X140901Y258364D01*
X140000Y258483D01*
X139099Y258364D01*
X138259Y258016D01*
X137538Y257463D01*
X136984Y256741D01*
X136791Y256275D01*
X113209D01*
X113016Y256741D01*
X112462Y257463D01*
X111741Y258016D01*
X110901Y258364D01*
X110000Y258483D01*
X109099Y258364D01*
X108259Y258016D01*
X107537Y257463D01*
X106984Y256741D01*
X106791Y256275D01*
X83209D01*
X83016Y256741D01*
X82463Y257463D01*
X81741Y258016D01*
X80901Y258364D01*
X80000Y258483D01*
X79099Y258364D01*
X78259Y258016D01*
X77538Y257463D01*
X76984Y256741D01*
X76791Y256275D01*
X53209D01*
X53016Y256741D01*
X52463Y257463D01*
X51741Y258016D01*
X50901Y258364D01*
X50000Y258483D01*
X49099Y258364D01*
X48259Y258016D01*
X47537Y257463D01*
X46984Y256741D01*
X46791Y256275D01*
X23209D01*
X23016Y256741D01*
X22463Y257463D01*
X21741Y258016D01*
X20901Y258364D01*
X20000Y258483D01*
X19099Y258364D01*
X18259Y258016D01*
X17537Y257463D01*
X16984Y256741D01*
X16636Y255901D01*
X16518Y255000D01*
X16636Y254099D01*
X16984Y253259D01*
X17537Y252537D01*
X18259Y251984D01*
X19099Y251636D01*
X20000Y251518D01*
X20901Y251636D01*
X21741Y251984D01*
X22463Y252537D01*
X23016Y253259D01*
X23209Y253726D01*
X46791D01*
X46984Y253259D01*
X47537Y252537D01*
X48259Y251984D01*
X49099Y251636D01*
X50000Y251518D01*
X50901Y251636D01*
X51741Y251984D01*
X52463Y252537D01*
X53016Y253259D01*
X53209Y253726D01*
X76791D01*
X76984Y253259D01*
X77538Y252537D01*
X78259Y251984D01*
X79099Y251636D01*
X80000Y251518D01*
X80901Y251636D01*
X81741Y251984D01*
X82463Y252537D01*
X83016Y253259D01*
X83209Y253726D01*
X106791D01*
X106984Y253259D01*
X107537Y252537D01*
X108259Y251984D01*
X109099Y251636D01*
X110000Y251518D01*
X110901Y251636D01*
X111741Y251984D01*
X112462Y252537D01*
X113016Y253259D01*
X113209Y253726D01*
X136791D01*
X136984Y253259D01*
X137538Y252537D01*
X138259Y251984D01*
X139099Y251636D01*
X140000Y251518D01*
X140901Y251636D01*
X141741Y251984D01*
X142463Y252537D01*
X143016Y253259D01*
X143209Y253726D01*
X166791D01*
X166984Y253259D01*
X167537Y252537D01*
X168259Y251984D01*
X169099Y251636D01*
X170000Y251518D01*
X170901Y251636D01*
X171741Y251984D01*
X172462Y252537D01*
X173016Y253259D01*
X173209Y253726D01*
X177472D01*
X186725Y244472D01*
Y222796D01*
X186225Y222746D01*
X186178Y222988D01*
X185901Y223401D01*
X178401Y230901D01*
X177988Y231177D01*
X177500Y231275D01*
X173453D01*
Y233453D01*
X166547D01*
Y231275D01*
X143453D01*
Y233453D01*
X136547D01*
Y226547D01*
X143453D01*
Y228726D01*
X166547D01*
Y226547D01*
X173453D01*
Y228726D01*
X176972D01*
X183726Y221972D01*
Y152996D01*
X183358Y152844D01*
X182678Y152322D01*
X182156Y151642D01*
X181828Y150850D01*
X181774Y150444D01*
X181274Y150477D01*
Y215000D01*
X181177Y215488D01*
X180901Y215901D01*
X175901Y220901D01*
X175488Y221178D01*
X175000Y221274D01*
X173209D01*
X173016Y221741D01*
X172462Y222463D01*
X171741Y223016D01*
X170901Y223364D01*
X170000Y223482D01*
X169099Y223364D01*
X168259Y223016D01*
X167537Y222463D01*
X166984Y221741D01*
X166791Y221274D01*
X143209D01*
X143016Y221741D01*
X142463Y222463D01*
X141741Y223016D01*
X140901Y223364D01*
X140000Y223482D01*
X139099Y223364D01*
X138259Y223016D01*
X137538Y222463D01*
X136984Y221741D01*
X136636Y220901D01*
X136518Y220000D01*
X136636Y219099D01*
X136984Y218259D01*
X137538Y217537D01*
X138259Y216984D01*
X139099Y216636D01*
X140000Y216517D01*
X140901Y216636D01*
X141741Y216984D01*
X142463Y217537D01*
X143016Y218259D01*
X143209Y218725D01*
X166791D01*
X166984Y218259D01*
X167537Y217537D01*
X168259Y216984D01*
X169099Y216636D01*
X170000Y216517D01*
X170901Y216636D01*
X171741Y216984D01*
X172462Y217537D01*
X173016Y218259D01*
X173209Y218725D01*
X174472D01*
X178726Y214472D01*
Y145000D01*
X178823Y144512D01*
X179099Y144099D01*
X181980Y141218D01*
X181828Y140850D01*
X181716Y140000D01*
X181828Y139150D01*
X182156Y138358D01*
X182678Y137678D01*
X183358Y137156D01*
X184150Y136828D01*
X185000Y136716D01*
X185850Y136828D01*
X186642Y137156D01*
X187322Y137678D01*
X187844Y138358D01*
X187996Y138725D01*
X206578D01*
X206812Y138160D01*
X207397Y137397D01*
X208159Y136812D01*
X209047Y136444D01*
X210000Y136319D01*
X210953Y136444D01*
X211841Y136812D01*
X212603Y137397D01*
X213188Y138160D01*
X213556Y139047D01*
X213681Y140000D01*
X213556Y140953D01*
X213188Y141841D01*
X212603Y142603D01*
X211841Y143188D01*
X210953Y143556D01*
X210000Y143681D01*
X209047Y143556D01*
X208159Y143188D01*
X207397Y142603D01*
X206812Y141841D01*
X206578Y141274D01*
X187996D01*
X187844Y141642D01*
X187322Y142322D01*
X186642Y142844D01*
X185850Y143172D01*
X185000Y143284D01*
X184150Y143172D01*
X183782Y143020D01*
X181274Y145528D01*
Y149523D01*
X181774Y149556D01*
X181828Y149150D01*
X182156Y148358D01*
X182678Y147678D01*
X183358Y147156D01*
X184150Y146828D01*
X185000Y146716D01*
X185850Y146828D01*
X186642Y147156D01*
X187322Y147678D01*
X187844Y148358D01*
X187996Y148725D01*
X206578D01*
X206812Y148160D01*
X207397Y147397D01*
X208159Y146812D01*
X209047Y146444D01*
X210000Y146319D01*
X210953Y146444D01*
X211841Y146812D01*
X212603Y147397D01*
X213188Y148160D01*
X213556Y149047D01*
X213681Y150000D01*
X213556Y150953D01*
X213188Y151840D01*
X212603Y152603D01*
X211841Y153188D01*
X210953Y153556D01*
X210000Y153681D01*
X209047Y153556D01*
X208159Y153188D01*
X207397Y152603D01*
X206812Y151840D01*
X206578Y151275D01*
X187996D01*
X187844Y151642D01*
X187322Y152322D01*
X186642Y152844D01*
X186275Y152996D01*
Y191704D01*
X186775Y191754D01*
X186822Y191512D01*
X187099Y191099D01*
X199099Y179099D01*
X199512Y178823D01*
X200000Y178726D01*
X206578D01*
X206812Y178159D01*
X207397Y177397D01*
X208159Y176812D01*
X209047Y176444D01*
X210000Y176319D01*
X210953Y176444D01*
X211841Y176812D01*
X212603Y177397D01*
X213188Y178159D01*
X213556Y179047D01*
X213681Y180000D01*
X213556Y180953D01*
X213188Y181841D01*
X212603Y182603D01*
X211841Y183188D01*
X210953Y183556D01*
X210000Y183681D01*
X209047Y183556D01*
X208159Y183188D01*
X207397Y182603D01*
X206812Y181841D01*
X206578Y181274D01*
X200528D01*
X189275Y192528D01*
Y208704D01*
X189775Y208754D01*
X189822Y208512D01*
X190099Y208099D01*
X199099Y199099D01*
X199512Y198822D01*
X200000Y198725D01*
X206578D01*
X206812Y198160D01*
X207397Y197397D01*
X208159Y196812D01*
X209047Y196444D01*
X210000Y196319D01*
X210953Y196444D01*
X211841Y196812D01*
X212603Y197397D01*
X213188Y198160D01*
X213556Y199047D01*
X213681Y200000D01*
X213556Y200953D01*
X213188Y201840D01*
X212603Y202603D01*
X211841Y203188D01*
X210953Y203556D01*
X210000Y203681D01*
X209047Y203556D01*
X208159Y203188D01*
X207397Y202603D01*
X206812Y201840D01*
X206578Y201274D01*
X200528D01*
X192274Y209528D01*
Y215704D01*
X192774Y215754D01*
X192823Y215512D01*
X193099Y215099D01*
X199099Y209099D01*
X199512Y208822D01*
X200000Y208726D01*
X206578D01*
X206812Y208159D01*
X207397Y207397D01*
X208159Y206812D01*
X209047Y206444D01*
X210000Y206319D01*
X210953Y206444D01*
X211841Y206812D01*
X212603Y207397D01*
X213188Y208159D01*
X213556Y209047D01*
X213681Y210000D01*
X213556Y210953D01*
X213188Y211841D01*
X212603Y212603D01*
X211841Y213188D01*
X210953Y213556D01*
X210000Y213681D01*
X209047Y213556D01*
X208159Y213188D01*
X207397Y212603D01*
X206812Y211841D01*
X206578Y211275D01*
X200528D01*
X195274Y216528D01*
Y222705D01*
X195774Y222754D01*
X195823Y222512D01*
X196099Y222099D01*
X199099Y219099D01*
X199512Y218823D01*
X200000Y218725D01*
X206578D01*
X206812Y218160D01*
X207397Y217397D01*
X208159Y216812D01*
X209047Y216444D01*
X210000Y216319D01*
X210953Y216444D01*
X211841Y216812D01*
X212603Y217397D01*
X213188Y218160D01*
X213556Y219047D01*
X213681Y220000D01*
X213556Y220953D01*
X213188Y221841D01*
X212603Y222603D01*
X211841Y223188D01*
X210953Y223556D01*
X210000Y223681D01*
X209047Y223556D01*
X208159Y223188D01*
X207397Y222603D01*
X206812Y221841D01*
X206578Y221274D01*
X200528D01*
X198275Y223528D01*
Y290500D01*
X198178Y290988D01*
X197901Y291401D01*
X183401Y305901D01*
X182988Y306177D01*
X182500Y306275D01*
X173209D01*
X173016Y306741D01*
X172462Y307463D01*
X171741Y308016D01*
X170901Y308364D01*
X170000Y308483D01*
D02*
G37*
G36*
X210000Y303681D02*
X209047Y303556D01*
X208159Y303188D01*
X207397Y302603D01*
X206812Y301840D01*
X206444Y300953D01*
X206319Y300000D01*
X206444Y299047D01*
X206812Y298160D01*
X207397Y297397D01*
X208159Y296812D01*
X209047Y296444D01*
X210000Y296319D01*
X210953Y296444D01*
X211841Y296812D01*
X212603Y297397D01*
X213188Y298160D01*
X213556Y299047D01*
X213681Y300000D01*
X213556Y300953D01*
X213188Y301840D01*
X212603Y302603D01*
X211841Y303188D01*
X210953Y303556D01*
X210000Y303681D01*
D02*
G37*
G36*
X140500Y298921D02*
Y295500D01*
X143921D01*
X143851Y296032D01*
X143453Y296993D01*
X142819Y297819D01*
X141993Y298453D01*
X141032Y298851D01*
X140500Y298921D01*
D02*
G37*
G36*
X110500D02*
Y295500D01*
X113921D01*
X113851Y296032D01*
X113453Y296993D01*
X112819Y297819D01*
X111993Y298453D01*
X111032Y298851D01*
X110500Y298921D01*
D02*
G37*
G36*
X80500D02*
Y295500D01*
X83921D01*
X83851Y296032D01*
X83453Y296993D01*
X82819Y297819D01*
X81993Y298453D01*
X81032Y298851D01*
X80500Y298921D01*
D02*
G37*
G36*
X50500D02*
Y295500D01*
X53921D01*
X53851Y296032D01*
X53453Y296993D01*
X52819Y297819D01*
X51993Y298453D01*
X51032Y298851D01*
X50500Y298921D01*
D02*
G37*
G36*
X20500D02*
Y295500D01*
X23921D01*
X23851Y296032D01*
X23453Y296993D01*
X22819Y297819D01*
X21993Y298453D01*
X21032Y298851D01*
X20500Y298921D01*
D02*
G37*
G36*
X79500D02*
X78968Y298851D01*
X78007Y298453D01*
X77181Y297819D01*
X76547Y296993D01*
X76149Y296032D01*
X76079Y295500D01*
X79500D01*
Y298921D01*
D02*
G37*
G36*
X49500D02*
X48968Y298851D01*
X48007Y298453D01*
X47181Y297819D01*
X46547Y296993D01*
X46149Y296032D01*
X46079Y295500D01*
X49500D01*
Y298921D01*
D02*
G37*
G36*
X139500D02*
X138968Y298851D01*
X138007Y298453D01*
X137181Y297819D01*
X136547Y296993D01*
X136149Y296032D01*
X136079Y295500D01*
X139500D01*
Y298921D01*
D02*
G37*
G36*
X109500D02*
X108968Y298851D01*
X108007Y298453D01*
X107181Y297819D01*
X106547Y296993D01*
X106149Y296032D01*
X106079Y295500D01*
X109500D01*
Y298921D01*
D02*
G37*
G36*
X19500D02*
X18968Y298851D01*
X18007Y298453D01*
X17181Y297819D01*
X16547Y296993D01*
X16149Y296032D01*
X16079Y295500D01*
X19500D01*
Y298921D01*
D02*
G37*
G36*
X380000Y306832D02*
X378667Y306701D01*
X377385Y306312D01*
X376204Y305681D01*
X375169Y304831D01*
X374319Y303796D01*
X373688Y302614D01*
X373299Y301333D01*
X373168Y300000D01*
X373299Y298667D01*
X373688Y297386D01*
X374319Y296204D01*
X375169Y295169D01*
X376204Y294319D01*
X377385Y293688D01*
X378667Y293299D01*
X380000Y293168D01*
X381333Y293299D01*
X382614Y293688D01*
X383796Y294319D01*
X384831Y295169D01*
X385681Y296204D01*
X386312Y297386D01*
X386701Y298667D01*
X386832Y300000D01*
X386701Y301333D01*
X386312Y302614D01*
X385681Y303796D01*
X384831Y304831D01*
X383796Y305681D01*
X382614Y306312D01*
X381333Y306701D01*
X380000Y306832D01*
D02*
G37*
G36*
X310000Y293681D02*
X309047Y293556D01*
X308159Y293188D01*
X307397Y292603D01*
X306812Y291841D01*
X306578Y291274D01*
X303422D01*
X303188Y291841D01*
X302603Y292603D01*
X301840Y293188D01*
X300953Y293556D01*
X300000Y293681D01*
X299047Y293556D01*
X298160Y293188D01*
X297397Y292603D01*
X296812Y291841D01*
X296444Y290953D01*
X296319Y290000D01*
X296444Y289047D01*
X296812Y288159D01*
X297397Y287397D01*
X298160Y286812D01*
X299047Y286444D01*
X300000Y286319D01*
X300953Y286444D01*
X301840Y286812D01*
X302603Y287397D01*
X303188Y288159D01*
X303422Y288725D01*
X306578D01*
X306812Y288159D01*
X307397Y287397D01*
X308159Y286812D01*
X309047Y286444D01*
X310000Y286319D01*
X310953Y286444D01*
X311841Y286812D01*
X312603Y287397D01*
X313188Y288159D01*
X313556Y289047D01*
X313681Y290000D01*
X313556Y290953D01*
X313188Y291841D01*
X312603Y292603D01*
X311841Y293188D01*
X310953Y293556D01*
X310000Y293681D01*
D02*
G37*
G36*
X113921Y294500D02*
X110500D01*
Y291079D01*
X111032Y291149D01*
X111993Y291547D01*
X112819Y292181D01*
X113453Y293007D01*
X113851Y293968D01*
X113921Y294500D01*
D02*
G37*
G36*
X83921D02*
X80500D01*
Y291079D01*
X81032Y291149D01*
X81993Y291547D01*
X82819Y292181D01*
X83453Y293007D01*
X83851Y293968D01*
X83921Y294500D01*
D02*
G37*
G36*
X53921D02*
X50500D01*
Y291079D01*
X51032Y291149D01*
X51993Y291547D01*
X52819Y292181D01*
X53453Y293007D01*
X53851Y293968D01*
X53921Y294500D01*
D02*
G37*
G36*
X23921D02*
X20500D01*
Y291079D01*
X21032Y291149D01*
X21993Y291547D01*
X22819Y292181D01*
X23453Y293007D01*
X23851Y293968D01*
X23921Y294500D01*
D02*
G37*
G36*
X19500D02*
X16079D01*
X16149Y293968D01*
X16547Y293007D01*
X17181Y292181D01*
X18007Y291547D01*
X18968Y291149D01*
X19500Y291079D01*
Y294500D01*
D02*
G37*
G36*
X79500D02*
X76079D01*
X76149Y293968D01*
X76547Y293007D01*
X77181Y292181D01*
X78007Y291547D01*
X78968Y291149D01*
X79500Y291079D01*
Y294500D01*
D02*
G37*
G36*
X49500D02*
X46079D01*
X46149Y293968D01*
X46547Y293007D01*
X47181Y292181D01*
X48007Y291547D01*
X48968Y291149D01*
X49500Y291079D01*
Y294500D01*
D02*
G37*
G36*
X109500D02*
X106079D01*
X106149Y293968D01*
X106547Y293007D01*
X107181Y292181D01*
X108007Y291547D01*
X108968Y291149D01*
X109500Y291079D01*
Y294500D01*
D02*
G37*
G36*
X210000Y293681D02*
X209047Y293556D01*
X208159Y293188D01*
X207397Y292603D01*
X206812Y291841D01*
X206444Y290953D01*
X206319Y290000D01*
X206444Y289047D01*
X206812Y288159D01*
X207397Y287397D01*
X208159Y286812D01*
X209047Y286444D01*
X210000Y286319D01*
X210953Y286444D01*
X211841Y286812D01*
X212603Y287397D01*
X213188Y288159D01*
X213556Y289047D01*
X213681Y290000D01*
X213556Y290953D01*
X213188Y291841D01*
X212603Y292603D01*
X211841Y293188D01*
X210953Y293556D01*
X210000Y293681D01*
D02*
G37*
G36*
X340500Y288921D02*
Y285500D01*
X343921D01*
X343851Y286032D01*
X343453Y286993D01*
X342819Y287819D01*
X341993Y288453D01*
X341032Y288851D01*
X340500Y288921D01*
D02*
G37*
G36*
X339500D02*
X338968Y288851D01*
X338007Y288453D01*
X337181Y287819D01*
X336547Y286993D01*
X336149Y286032D01*
X336079Y285500D01*
X339500D01*
Y288921D01*
D02*
G37*
G36*
X363453Y288453D02*
X356547D01*
Y281547D01*
X363453D01*
Y288453D01*
D02*
G37*
G36*
X350000Y288482D02*
X349099Y288364D01*
X348259Y288016D01*
X347537Y287462D01*
X346984Y286741D01*
X346636Y285901D01*
X346517Y285000D01*
X346636Y284099D01*
X346984Y283259D01*
X347537Y282538D01*
X348259Y281984D01*
X349099Y281636D01*
X350000Y281518D01*
X350901Y281636D01*
X351741Y281984D01*
X352463Y282538D01*
X353016Y283259D01*
X353364Y284099D01*
X353483Y285000D01*
X353364Y285901D01*
X353016Y286741D01*
X352463Y287462D01*
X351741Y288016D01*
X350901Y288364D01*
X350000Y288482D01*
D02*
G37*
G36*
X310000Y283681D02*
X309047Y283556D01*
X308159Y283188D01*
X307397Y282603D01*
X306812Y281840D01*
X306578Y281275D01*
X303422D01*
X303188Y281840D01*
X302603Y282603D01*
X301840Y283188D01*
X300953Y283556D01*
X300000Y283681D01*
X299047Y283556D01*
X298160Y283188D01*
X297397Y282603D01*
X296812Y281840D01*
X296444Y280953D01*
X296319Y280000D01*
X296444Y279047D01*
X296812Y278159D01*
X297397Y277397D01*
X298160Y276812D01*
X299047Y276444D01*
X300000Y276319D01*
X300953Y276444D01*
X301840Y276812D01*
X302603Y277397D01*
X303188Y278159D01*
X303422Y278726D01*
X306578D01*
X306812Y278159D01*
X307397Y277397D01*
X308159Y276812D01*
X309047Y276444D01*
X310000Y276319D01*
X310953Y276444D01*
X311841Y276812D01*
X312603Y277397D01*
X313188Y278159D01*
X313556Y279047D01*
X313681Y280000D01*
X313556Y280953D01*
X313188Y281840D01*
X312603Y282603D01*
X311841Y283188D01*
X310953Y283556D01*
X310000Y283681D01*
D02*
G37*
G36*
X343921Y284500D02*
X340500D01*
Y281079D01*
X341032Y281149D01*
X341993Y281547D01*
X342819Y282181D01*
X343453Y283007D01*
X343851Y283968D01*
X343921Y284500D01*
D02*
G37*
G36*
X339500D02*
X336079D01*
X336149Y283968D01*
X336547Y283007D01*
X337181Y282181D01*
X338007Y281547D01*
X338968Y281149D01*
X339500Y281079D01*
Y284500D01*
D02*
G37*
G36*
X210000Y283681D02*
X209047Y283556D01*
X208159Y283188D01*
X207397Y282603D01*
X206812Y281840D01*
X206444Y280953D01*
X206319Y280000D01*
X206444Y279047D01*
X206812Y278159D01*
X207397Y277397D01*
X208159Y276812D01*
X209047Y276444D01*
X210000Y276319D01*
X210953Y276444D01*
X211841Y276812D01*
X212603Y277397D01*
X213188Y278159D01*
X213556Y279047D01*
X213681Y280000D01*
X213556Y280953D01*
X213188Y281840D01*
X212603Y282603D01*
X211841Y283188D01*
X210953Y283556D01*
X210000Y283681D01*
D02*
G37*
G36*
X170000Y278483D02*
X169099Y278364D01*
X168259Y278016D01*
X167537Y277463D01*
X166984Y276741D01*
X166791Y276274D01*
X143209D01*
X143016Y276741D01*
X142463Y277463D01*
X141741Y278016D01*
X140901Y278364D01*
X140000Y278483D01*
X139099Y278364D01*
X138259Y278016D01*
X137538Y277463D01*
X136984Y276741D01*
X136791Y276274D01*
X113209D01*
X113016Y276741D01*
X112462Y277463D01*
X111741Y278016D01*
X110901Y278364D01*
X110000Y278483D01*
X109099Y278364D01*
X108259Y278016D01*
X107537Y277463D01*
X106984Y276741D01*
X106791Y276274D01*
X83209D01*
X83016Y276741D01*
X82463Y277463D01*
X81741Y278016D01*
X80901Y278364D01*
X80000Y278483D01*
X79099Y278364D01*
X78259Y278016D01*
X77538Y277463D01*
X76984Y276741D01*
X76791Y276274D01*
X53209D01*
X53016Y276741D01*
X52463Y277463D01*
X51741Y278016D01*
X50901Y278364D01*
X50000Y278483D01*
X49099Y278364D01*
X48259Y278016D01*
X47537Y277463D01*
X46984Y276741D01*
X46791Y276274D01*
X23209D01*
X23016Y276741D01*
X22463Y277463D01*
X21741Y278016D01*
X20901Y278364D01*
X20000Y278483D01*
X19099Y278364D01*
X18259Y278016D01*
X17537Y277463D01*
X16984Y276741D01*
X16636Y275901D01*
X16518Y275000D01*
X16636Y274099D01*
X16984Y273259D01*
X17537Y272537D01*
X18259Y271984D01*
X19099Y271636D01*
X20000Y271517D01*
X20901Y271636D01*
X21741Y271984D01*
X22463Y272537D01*
X23016Y273259D01*
X23209Y273726D01*
X46791D01*
X46984Y273259D01*
X47537Y272537D01*
X48259Y271984D01*
X49099Y271636D01*
X50000Y271517D01*
X50901Y271636D01*
X51741Y271984D01*
X52463Y272537D01*
X53016Y273259D01*
X53209Y273726D01*
X76791D01*
X76984Y273259D01*
X77538Y272537D01*
X78259Y271984D01*
X79099Y271636D01*
X80000Y271517D01*
X80901Y271636D01*
X81741Y271984D01*
X82463Y272537D01*
X83016Y273259D01*
X83209Y273726D01*
X106791D01*
X106984Y273259D01*
X107537Y272537D01*
X108259Y271984D01*
X109099Y271636D01*
X110000Y271517D01*
X110901Y271636D01*
X111741Y271984D01*
X112462Y272537D01*
X113016Y273259D01*
X113209Y273726D01*
X136791D01*
X136984Y273259D01*
X137538Y272537D01*
X138259Y271984D01*
X139099Y271636D01*
X140000Y271517D01*
X140901Y271636D01*
X141741Y271984D01*
X142463Y272537D01*
X143016Y273259D01*
X143209Y273726D01*
X166791D01*
X166984Y273259D01*
X167537Y272537D01*
X168259Y271984D01*
X169099Y271636D01*
X170000Y271517D01*
X170901Y271636D01*
X171741Y271984D01*
X172462Y272537D01*
X173016Y273259D01*
X173364Y274099D01*
X173483Y275000D01*
X173364Y275901D01*
X173016Y276741D01*
X172462Y277463D01*
X171741Y278016D01*
X170901Y278364D01*
X170000Y278483D01*
D02*
G37*
G36*
X310000Y273681D02*
X309047Y273556D01*
X308159Y273188D01*
X307397Y272603D01*
X306812Y271841D01*
X306578Y271274D01*
X303422D01*
X303188Y271841D01*
X302603Y272603D01*
X301840Y273188D01*
X300953Y273556D01*
X300000Y273681D01*
X299047Y273556D01*
X298160Y273188D01*
X297397Y272603D01*
X296812Y271841D01*
X296444Y270953D01*
X296319Y270000D01*
X296444Y269047D01*
X296812Y268160D01*
X297397Y267397D01*
X298160Y266812D01*
X299047Y266444D01*
X300000Y266319D01*
X300953Y266444D01*
X301840Y266812D01*
X302603Y267397D01*
X303188Y268160D01*
X303422Y268725D01*
X306578D01*
X306812Y268160D01*
X307397Y267397D01*
X308159Y266812D01*
X309047Y266444D01*
X310000Y266319D01*
X310953Y266444D01*
X311841Y266812D01*
X312603Y267397D01*
X313188Y268160D01*
X313556Y269047D01*
X313681Y270000D01*
X313556Y270953D01*
X313188Y271841D01*
X312603Y272603D01*
X311841Y273188D01*
X310953Y273556D01*
X310000Y273681D01*
D02*
G37*
G36*
X210000D02*
X209047Y273556D01*
X208159Y273188D01*
X207397Y272603D01*
X206812Y271841D01*
X206444Y270953D01*
X206319Y270000D01*
X206444Y269047D01*
X206812Y268160D01*
X207397Y267397D01*
X208159Y266812D01*
X209047Y266444D01*
X210000Y266319D01*
X210953Y266444D01*
X211841Y266812D01*
X212603Y267397D01*
X213188Y268160D01*
X213556Y269047D01*
X213681Y270000D01*
X213556Y270953D01*
X213188Y271841D01*
X212603Y272603D01*
X211841Y273188D01*
X210953Y273556D01*
X210000Y273681D01*
D02*
G37*
G36*
X170000Y268482D02*
X169099Y268364D01*
X168259Y268016D01*
X167537Y267462D01*
X166984Y266741D01*
X166791Y266274D01*
X143209D01*
X143016Y266741D01*
X142463Y267462D01*
X141741Y268016D01*
X140901Y268364D01*
X140000Y268482D01*
X139099Y268364D01*
X138259Y268016D01*
X137538Y267462D01*
X136984Y266741D01*
X136791Y266274D01*
X113209D01*
X113016Y266741D01*
X112462Y267462D01*
X111741Y268016D01*
X110901Y268364D01*
X110000Y268482D01*
X109099Y268364D01*
X108259Y268016D01*
X107537Y267462D01*
X106984Y266741D01*
X106791Y266274D01*
X83209D01*
X83016Y266741D01*
X82463Y267462D01*
X81741Y268016D01*
X80901Y268364D01*
X80000Y268482D01*
X79099Y268364D01*
X78259Y268016D01*
X77538Y267462D01*
X76984Y266741D01*
X76791Y266274D01*
X53209D01*
X53016Y266741D01*
X52463Y267462D01*
X51741Y268016D01*
X50901Y268364D01*
X50000Y268482D01*
X49099Y268364D01*
X48259Y268016D01*
X47537Y267462D01*
X46984Y266741D01*
X46791Y266274D01*
X23209D01*
X23016Y266741D01*
X22463Y267462D01*
X21741Y268016D01*
X20901Y268364D01*
X20000Y268482D01*
X19099Y268364D01*
X18259Y268016D01*
X17537Y267462D01*
X16984Y266741D01*
X16636Y265901D01*
X16518Y265000D01*
X16636Y264099D01*
X16984Y263259D01*
X17537Y262538D01*
X18259Y261984D01*
X19099Y261636D01*
X20000Y261518D01*
X20901Y261636D01*
X21741Y261984D01*
X22463Y262538D01*
X23016Y263259D01*
X23209Y263725D01*
X46791D01*
X46984Y263259D01*
X47537Y262538D01*
X48259Y261984D01*
X49099Y261636D01*
X50000Y261518D01*
X50901Y261636D01*
X51741Y261984D01*
X52463Y262538D01*
X53016Y263259D01*
X53209Y263725D01*
X76791D01*
X76984Y263259D01*
X77538Y262538D01*
X78259Y261984D01*
X79099Y261636D01*
X80000Y261518D01*
X80901Y261636D01*
X81741Y261984D01*
X82463Y262538D01*
X83016Y263259D01*
X83209Y263725D01*
X106791D01*
X106984Y263259D01*
X107537Y262538D01*
X108259Y261984D01*
X109099Y261636D01*
X110000Y261518D01*
X110901Y261636D01*
X111741Y261984D01*
X112462Y262538D01*
X113016Y263259D01*
X113209Y263725D01*
X136791D01*
X136984Y263259D01*
X137538Y262538D01*
X138259Y261984D01*
X139099Y261636D01*
X140000Y261518D01*
X140901Y261636D01*
X141741Y261984D01*
X142463Y262538D01*
X143016Y263259D01*
X143209Y263725D01*
X166791D01*
X166984Y263259D01*
X167537Y262538D01*
X168259Y261984D01*
X169099Y261636D01*
X170000Y261518D01*
X170901Y261636D01*
X171741Y261984D01*
X172462Y262538D01*
X173016Y263259D01*
X173364Y264099D01*
X173483Y265000D01*
X173364Y265901D01*
X173016Y266741D01*
X172462Y267462D01*
X171741Y268016D01*
X170901Y268364D01*
X170000Y268482D01*
D02*
G37*
G36*
X309500Y264150D02*
X305850D01*
Y261275D01*
X304150D01*
Y264150D01*
X300500D01*
Y260000D01*
Y255850D01*
X304150D01*
Y258726D01*
X305850D01*
Y255850D01*
X309500D01*
Y260000D01*
Y264150D01*
D02*
G37*
G36*
X314150D02*
X310500D01*
Y260500D01*
X314150D01*
Y264150D01*
D02*
G37*
G36*
X299500D02*
X295850D01*
Y260500D01*
X299500D01*
Y264150D01*
D02*
G37*
G36*
X360000Y262887D02*
X359253Y262789D01*
X358557Y262500D01*
X357959Y262041D01*
X357500Y261443D01*
X357211Y260747D01*
X357113Y260000D01*
X357211Y259253D01*
X357500Y258557D01*
X357959Y257959D01*
X358557Y257500D01*
X359253Y257211D01*
X360000Y257113D01*
X360747Y257211D01*
X361443Y257500D01*
X362041Y257959D01*
X362500Y258557D01*
X362789Y259253D01*
X362887Y260000D01*
X362789Y260747D01*
X362500Y261443D01*
X362041Y262041D01*
X361443Y262500D01*
X360747Y262789D01*
X360000Y262887D01*
D02*
G37*
G36*
X350000D02*
X349253Y262789D01*
X348557Y262500D01*
X347959Y262041D01*
X347500Y261443D01*
X347212Y260747D01*
X347113Y260000D01*
X347212Y259253D01*
X347500Y258557D01*
X347959Y257959D01*
X348557Y257500D01*
X349253Y257211D01*
X350000Y257113D01*
X350747Y257211D01*
X351443Y257500D01*
X352041Y257959D01*
X352500Y258557D01*
X352788Y259253D01*
X352887Y260000D01*
X352788Y260747D01*
X352500Y261443D01*
X352041Y262041D01*
X351443Y262500D01*
X350747Y262789D01*
X350000Y262887D01*
D02*
G37*
G36*
X210000Y263681D02*
X209047Y263556D01*
X208159Y263188D01*
X207397Y262603D01*
X206812Y261841D01*
X206444Y260953D01*
X206319Y260000D01*
X206444Y259047D01*
X206812Y258159D01*
X207397Y257397D01*
X208159Y256812D01*
X209047Y256444D01*
X210000Y256319D01*
X210953Y256444D01*
X211841Y256812D01*
X212603Y257397D01*
X213188Y258159D01*
X213556Y259047D01*
X213681Y260000D01*
X213556Y260953D01*
X213188Y261841D01*
X212603Y262603D01*
X211841Y263188D01*
X210953Y263556D01*
X210000Y263681D01*
D02*
G37*
G36*
X314150Y259500D02*
X310500D01*
Y255850D01*
X314150D01*
Y259500D01*
D02*
G37*
G36*
X299500D02*
X295850D01*
Y255850D01*
X299500D01*
Y259500D01*
D02*
G37*
G36*
X336000Y258483D02*
X335099Y258364D01*
X334259Y258016D01*
X333538Y257463D01*
X332984Y256741D01*
X332636Y255901D01*
X332518Y255000D01*
X332636Y254099D01*
X332984Y253259D01*
X333538Y252537D01*
X334259Y251984D01*
X335099Y251636D01*
X336000Y251518D01*
X336901Y251636D01*
X337741Y251984D01*
X338462Y252537D01*
X339016Y253259D01*
X339364Y254099D01*
X339482Y255000D01*
X339364Y255901D01*
X339016Y256741D01*
X338462Y257463D01*
X337741Y258016D01*
X336901Y258364D01*
X336000Y258483D01*
D02*
G37*
G36*
X310000Y253681D02*
X309047Y253556D01*
X308159Y253188D01*
X307397Y252603D01*
X306812Y251840D01*
X306578Y251274D01*
X303422D01*
X303188Y251840D01*
X302603Y252603D01*
X301840Y253188D01*
X300953Y253556D01*
X300000Y253681D01*
X299047Y253556D01*
X298160Y253188D01*
X297397Y252603D01*
X296812Y251840D01*
X296444Y250953D01*
X296319Y250000D01*
X296444Y249047D01*
X296812Y248160D01*
X297397Y247397D01*
X298160Y246812D01*
X299047Y246444D01*
X300000Y246319D01*
X300953Y246444D01*
X301840Y246812D01*
X302603Y247397D01*
X303188Y248160D01*
X303422Y248726D01*
X306578D01*
X306812Y248160D01*
X307397Y247397D01*
X308159Y246812D01*
X309047Y246444D01*
X310000Y246319D01*
X310953Y246444D01*
X311841Y246812D01*
X312603Y247397D01*
X313188Y248160D01*
X313556Y249047D01*
X313681Y250000D01*
X313556Y250953D01*
X313188Y251840D01*
X312603Y252603D01*
X311841Y253188D01*
X310953Y253556D01*
X310000Y253681D01*
D02*
G37*
G36*
X210000D02*
X209047Y253556D01*
X208159Y253188D01*
X207397Y252603D01*
X206812Y251840D01*
X206444Y250953D01*
X206319Y250000D01*
X206444Y249047D01*
X206812Y248160D01*
X207397Y247397D01*
X208159Y246812D01*
X209047Y246444D01*
X210000Y246319D01*
X210953Y246444D01*
X211841Y246812D01*
X212603Y247397D01*
X213188Y248160D01*
X213556Y249047D01*
X213681Y250000D01*
X213556Y250953D01*
X213188Y251840D01*
X212603Y252603D01*
X211841Y253188D01*
X210953Y253556D01*
X210000Y253681D01*
D02*
G37*
G36*
X360000Y247887D02*
X359253Y247789D01*
X358557Y247500D01*
X357959Y247041D01*
X357500Y246443D01*
X357211Y245747D01*
X357113Y245000D01*
X357211Y244253D01*
X357500Y243557D01*
X357959Y242959D01*
X358557Y242500D01*
X359253Y242212D01*
X360000Y242113D01*
X360747Y242212D01*
X361443Y242500D01*
X362041Y242959D01*
X362500Y243557D01*
X362789Y244253D01*
X362887Y245000D01*
X362789Y245747D01*
X362500Y246443D01*
X362041Y247041D01*
X361443Y247500D01*
X360747Y247789D01*
X360000Y247887D01*
D02*
G37*
G36*
X350000D02*
X349253Y247789D01*
X348557Y247500D01*
X347959Y247041D01*
X347500Y246443D01*
X347212Y245747D01*
X347113Y245000D01*
X347212Y244253D01*
X347500Y243557D01*
X347959Y242959D01*
X348557Y242500D01*
X349253Y242212D01*
X350000Y242113D01*
X350747Y242212D01*
X351443Y242500D01*
X352041Y242959D01*
X352500Y243557D01*
X352788Y244253D01*
X352887Y245000D01*
X352788Y245747D01*
X352500Y246443D01*
X352041Y247041D01*
X351443Y247500D01*
X350747Y247789D01*
X350000Y247887D01*
D02*
G37*
G36*
X336000Y248482D02*
X335099Y248364D01*
X334259Y248016D01*
X333538Y247463D01*
X332984Y246741D01*
X332636Y245901D01*
X332518Y245000D01*
X332636Y244099D01*
X332984Y243259D01*
X333538Y242537D01*
X334259Y241984D01*
X335099Y241636D01*
X336000Y241517D01*
X336901Y241636D01*
X337741Y241984D01*
X338462Y242537D01*
X339016Y243259D01*
X339364Y244099D01*
X339482Y245000D01*
X339364Y245901D01*
X339016Y246741D01*
X338462Y247463D01*
X337741Y248016D01*
X336901Y248364D01*
X336000Y248482D01*
D02*
G37*
G36*
X310000Y243681D02*
X309047Y243556D01*
X308159Y243188D01*
X307397Y242603D01*
X306812Y241841D01*
X306578Y241274D01*
X303422D01*
X303188Y241841D01*
X302603Y242603D01*
X301840Y243188D01*
X300953Y243556D01*
X300000Y243681D01*
X299047Y243556D01*
X298160Y243188D01*
X297397Y242603D01*
X296812Y241841D01*
X296444Y240953D01*
X296319Y240000D01*
X296444Y239047D01*
X296812Y238159D01*
X297397Y237397D01*
X298160Y236812D01*
X299047Y236444D01*
X300000Y236319D01*
X300953Y236444D01*
X301840Y236812D01*
X302603Y237397D01*
X303188Y238159D01*
X303422Y238725D01*
X306578D01*
X306812Y238159D01*
X307397Y237397D01*
X308159Y236812D01*
X309047Y236444D01*
X310000Y236319D01*
X310953Y236444D01*
X311841Y236812D01*
X312603Y237397D01*
X313188Y238159D01*
X313556Y239047D01*
X313681Y240000D01*
X313556Y240953D01*
X313188Y241841D01*
X312603Y242603D01*
X311841Y243188D01*
X310953Y243556D01*
X310000Y243681D01*
D02*
G37*
G36*
X210000D02*
X209047Y243556D01*
X208159Y243188D01*
X207397Y242603D01*
X206812Y241841D01*
X206444Y240953D01*
X206319Y240000D01*
X206444Y239047D01*
X206812Y238159D01*
X207397Y237397D01*
X208159Y236812D01*
X209047Y236444D01*
X210000Y236319D01*
X210953Y236444D01*
X211841Y236812D01*
X212603Y237397D01*
X213188Y238159D01*
X213556Y239047D01*
X213681Y240000D01*
X213556Y240953D01*
X213188Y241841D01*
X212603Y242603D01*
X211841Y243188D01*
X210953Y243556D01*
X210000Y243681D01*
D02*
G37*
G36*
X120000Y244078D02*
X118945Y243939D01*
X117961Y243532D01*
X117116Y242884D01*
X116468Y242039D01*
X116061Y241055D01*
X115922Y240000D01*
X116061Y238945D01*
X116468Y237961D01*
X117116Y237116D01*
X117961Y236468D01*
X118945Y236061D01*
X120000Y235922D01*
X121055Y236061D01*
X122039Y236468D01*
X122884Y237116D01*
X123532Y237961D01*
X123939Y238945D01*
X124078Y240000D01*
X123939Y241055D01*
X123532Y242039D01*
X122884Y242884D01*
X122039Y243532D01*
X121055Y243939D01*
X120000Y244078D01*
D02*
G37*
G36*
X110000D02*
X108944Y243939D01*
X107961Y243532D01*
X107116Y242884D01*
X106468Y242039D01*
X106061Y241055D01*
X105922Y240000D01*
X106061Y238945D01*
X106468Y237961D01*
X107116Y237116D01*
X107961Y236468D01*
X108944Y236061D01*
X110000Y235922D01*
X111056Y236061D01*
X112039Y236468D01*
X112884Y237116D01*
X113532Y237961D01*
X113939Y238945D01*
X114078Y240000D01*
X113939Y241055D01*
X113532Y242039D01*
X112884Y242884D01*
X112039Y243532D01*
X111056Y243939D01*
X110000Y244078D01*
D02*
G37*
G36*
X100000D02*
X98944Y243939D01*
X97961Y243532D01*
X97116Y242884D01*
X96468Y242039D01*
X96061Y241055D01*
X95922Y240000D01*
X96061Y238945D01*
X96468Y237961D01*
X97116Y237116D01*
X97961Y236468D01*
X98944Y236061D01*
X100000Y235922D01*
X101056Y236061D01*
X102039Y236468D01*
X102884Y237116D01*
X103532Y237961D01*
X103939Y238945D01*
X104078Y240000D01*
X103939Y241055D01*
X103532Y242039D01*
X102884Y242884D01*
X102039Y243532D01*
X101056Y243939D01*
X100000Y244078D01*
D02*
G37*
G36*
X90000D02*
X88945Y243939D01*
X87961Y243532D01*
X87116Y242884D01*
X86468Y242039D01*
X86061Y241055D01*
X85922Y240000D01*
X86061Y238945D01*
X86468Y237961D01*
X87116Y237116D01*
X87961Y236468D01*
X88945Y236061D01*
X90000Y235922D01*
X91056Y236061D01*
X92039Y236468D01*
X92884Y237116D01*
X93532Y237961D01*
X93939Y238945D01*
X94078Y240000D01*
X93939Y241055D01*
X93532Y242039D01*
X92884Y242884D01*
X92039Y243532D01*
X91056Y243939D01*
X90000Y244078D01*
D02*
G37*
G36*
X80000D02*
X78944Y243939D01*
X77961Y243532D01*
X77116Y242884D01*
X76468Y242039D01*
X76061Y241055D01*
X75922Y240000D01*
X76061Y238945D01*
X76468Y237961D01*
X77116Y237116D01*
X77961Y236468D01*
X78944Y236061D01*
X80000Y235922D01*
X81055Y236061D01*
X82039Y236468D01*
X82884Y237116D01*
X83532Y237961D01*
X83939Y238945D01*
X84078Y240000D01*
X83939Y241055D01*
X83532Y242039D01*
X82884Y242884D01*
X82039Y243532D01*
X81055Y243939D01*
X80000Y244078D01*
D02*
G37*
G36*
X70000D02*
X68945Y243939D01*
X67961Y243532D01*
X67116Y242884D01*
X66468Y242039D01*
X66061Y241055D01*
X65922Y240000D01*
X66061Y238945D01*
X66468Y237961D01*
X67116Y237116D01*
X67961Y236468D01*
X68945Y236061D01*
X70000Y235922D01*
X71056Y236061D01*
X72039Y236468D01*
X72884Y237116D01*
X73532Y237961D01*
X73939Y238945D01*
X74078Y240000D01*
X73939Y241055D01*
X73532Y242039D01*
X72884Y242884D01*
X72039Y243532D01*
X71056Y243939D01*
X70000Y244078D01*
D02*
G37*
G36*
X60000D02*
X58944Y243939D01*
X57961Y243532D01*
X57116Y242884D01*
X56468Y242039D01*
X56061Y241055D01*
X55922Y240000D01*
X56061Y238945D01*
X56468Y237961D01*
X57116Y237116D01*
X57961Y236468D01*
X58944Y236061D01*
X60000Y235922D01*
X61055Y236061D01*
X62039Y236468D01*
X62884Y237116D01*
X63532Y237961D01*
X63939Y238945D01*
X64078Y240000D01*
X63939Y241055D01*
X63532Y242039D01*
X62884Y242884D01*
X62039Y243532D01*
X61055Y243939D01*
X60000Y244078D01*
D02*
G37*
G36*
X50000D02*
X48945Y243939D01*
X47961Y243532D01*
X47116Y242884D01*
X46468Y242039D01*
X46061Y241055D01*
X45922Y240000D01*
X46061Y238945D01*
X46468Y237961D01*
X47116Y237116D01*
X47961Y236468D01*
X48945Y236061D01*
X50000Y235922D01*
X51056Y236061D01*
X52039Y236468D01*
X52884Y237116D01*
X53532Y237961D01*
X53939Y238945D01*
X54078Y240000D01*
X53939Y241055D01*
X53532Y242039D01*
X52884Y242884D01*
X52039Y243532D01*
X51056Y243939D01*
X50000Y244078D01*
D02*
G37*
G36*
X380000Y246832D02*
X378667Y246701D01*
X377385Y246312D01*
X376204Y245681D01*
X375169Y244831D01*
X374319Y243796D01*
X373688Y242615D01*
X373299Y241333D01*
X373168Y240000D01*
X373299Y238667D01*
X373688Y237386D01*
X374319Y236204D01*
X375169Y235169D01*
X376204Y234319D01*
X377385Y233688D01*
X378667Y233299D01*
X380000Y233168D01*
X381333Y233299D01*
X382614Y233688D01*
X383796Y234319D01*
X384831Y235169D01*
X385681Y236204D01*
X386312Y237386D01*
X386701Y238667D01*
X386832Y240000D01*
X386701Y241333D01*
X386312Y242615D01*
X385681Y243796D01*
X384831Y244831D01*
X383796Y245681D01*
X382614Y246312D01*
X381333Y246701D01*
X380000Y246832D01*
D02*
G37*
G36*
X20000D02*
X18667Y246701D01*
X17386Y246312D01*
X16204Y245681D01*
X15169Y244831D01*
X14319Y243796D01*
X13688Y242615D01*
X13299Y241333D01*
X13168Y240000D01*
X13299Y238667D01*
X13688Y237386D01*
X14319Y236204D01*
X15169Y235169D01*
X16204Y234319D01*
X17386Y233688D01*
X18667Y233299D01*
X20000Y233168D01*
X21333Y233299D01*
X22614Y233688D01*
X23796Y234319D01*
X24831Y235169D01*
X25681Y236204D01*
X26312Y237386D01*
X26701Y238667D01*
X26832Y240000D01*
X26701Y241333D01*
X26312Y242615D01*
X25681Y243796D01*
X24831Y244831D01*
X23796Y245681D01*
X22614Y246312D01*
X21333Y246701D01*
X20000Y246832D01*
D02*
G37*
G36*
X336000Y238482D02*
X335099Y238364D01*
X334259Y238016D01*
X333538Y237462D01*
X332984Y236741D01*
X332636Y235901D01*
X332518Y235000D01*
X332636Y234099D01*
X332984Y233259D01*
X333538Y232538D01*
X334259Y231984D01*
X335099Y231636D01*
X336000Y231518D01*
X336901Y231636D01*
X337741Y231984D01*
X338462Y232538D01*
X339016Y233259D01*
X339364Y234099D01*
X339482Y235000D01*
X339364Y235901D01*
X339016Y236741D01*
X338462Y237462D01*
X337741Y238016D01*
X336901Y238364D01*
X336000Y238482D01*
D02*
G37*
G36*
X310000Y233681D02*
X309047Y233556D01*
X308159Y233188D01*
X307397Y232603D01*
X306812Y231840D01*
X306578Y231275D01*
X303422D01*
X303188Y231840D01*
X302603Y232603D01*
X301840Y233188D01*
X300953Y233556D01*
X300000Y233681D01*
X299047Y233556D01*
X298160Y233188D01*
X297397Y232603D01*
X296812Y231840D01*
X296444Y230953D01*
X296319Y230000D01*
X296444Y229047D01*
X296812Y228159D01*
X297397Y227397D01*
X298160Y226812D01*
X299047Y226444D01*
X300000Y226319D01*
X300953Y226444D01*
X301840Y226812D01*
X302603Y227397D01*
X303188Y228159D01*
X303422Y228726D01*
X306578D01*
X306812Y228159D01*
X307397Y227397D01*
X308159Y226812D01*
X309047Y226444D01*
X310000Y226319D01*
X310953Y226444D01*
X311841Y226812D01*
X312603Y227397D01*
X313188Y228159D01*
X313556Y229047D01*
X313681Y230000D01*
X313556Y230953D01*
X313188Y231840D01*
X312603Y232603D01*
X311841Y233188D01*
X310953Y233556D01*
X310000Y233681D01*
D02*
G37*
G36*
X248657Y231623D02*
Y228500D01*
X251781D01*
X251721Y228955D01*
X251352Y229844D01*
X250766Y230609D01*
X250002Y231195D01*
X249112Y231563D01*
X248657Y231623D01*
D02*
G37*
G36*
X247657D02*
X247203Y231563D01*
X246313Y231195D01*
X245549Y230609D01*
X244963Y229844D01*
X244594Y228955D01*
X244534Y228500D01*
X247657D01*
Y231623D01*
D02*
G37*
G36*
X360000Y232887D02*
X359253Y232788D01*
X358557Y232500D01*
X357959Y232041D01*
X357500Y231443D01*
X357211Y230747D01*
X357113Y230000D01*
X357211Y229253D01*
X357500Y228557D01*
X357959Y227959D01*
X358557Y227500D01*
X359253Y227211D01*
X360000Y227113D01*
X360747Y227211D01*
X361443Y227500D01*
X362041Y227959D01*
X362500Y228557D01*
X362789Y229253D01*
X362887Y230000D01*
X362789Y230747D01*
X362500Y231443D01*
X362041Y232041D01*
X361443Y232500D01*
X360747Y232788D01*
X360000Y232887D01*
D02*
G37*
G36*
X350000D02*
X349253Y232788D01*
X348557Y232500D01*
X347959Y232041D01*
X347500Y231443D01*
X347212Y230747D01*
X347113Y230000D01*
X347212Y229253D01*
X347500Y228557D01*
X347959Y227959D01*
X348557Y227500D01*
X349253Y227211D01*
X350000Y227113D01*
X350747Y227211D01*
X351443Y227500D01*
X352041Y227959D01*
X352500Y228557D01*
X352788Y229253D01*
X352887Y230000D01*
X352788Y230747D01*
X352500Y231443D01*
X352041Y232041D01*
X351443Y232500D01*
X350747Y232788D01*
X350000Y232887D01*
D02*
G37*
G36*
X210000Y233681D02*
X209047Y233556D01*
X208159Y233188D01*
X207397Y232603D01*
X206812Y231840D01*
X206444Y230953D01*
X206319Y230000D01*
X206444Y229047D01*
X206812Y228159D01*
X207397Y227397D01*
X208159Y226812D01*
X209047Y226444D01*
X210000Y226319D01*
X210953Y226444D01*
X211841Y226812D01*
X212603Y227397D01*
X213188Y228159D01*
X213556Y229047D01*
X213681Y230000D01*
X213556Y230953D01*
X213188Y231840D01*
X212603Y232603D01*
X211841Y233188D01*
X210953Y233556D01*
X210000Y233681D01*
D02*
G37*
G36*
X120000Y234078D02*
X118945Y233939D01*
X117961Y233532D01*
X117116Y232884D01*
X116468Y232039D01*
X116061Y231055D01*
X115922Y230000D01*
X116061Y228944D01*
X116468Y227961D01*
X117116Y227116D01*
X117961Y226468D01*
X118945Y226061D01*
X120000Y225922D01*
X121055Y226061D01*
X122039Y226468D01*
X122884Y227116D01*
X123532Y227961D01*
X123939Y228944D01*
X124078Y230000D01*
X123939Y231055D01*
X123532Y232039D01*
X122884Y232884D01*
X122039Y233532D01*
X121055Y233939D01*
X120000Y234078D01*
D02*
G37*
G36*
X110000D02*
X108944Y233939D01*
X107961Y233532D01*
X107116Y232884D01*
X106468Y232039D01*
X106061Y231055D01*
X105922Y230000D01*
X106061Y228944D01*
X106468Y227961D01*
X107116Y227116D01*
X107961Y226468D01*
X108944Y226061D01*
X110000Y225922D01*
X111056Y226061D01*
X112039Y226468D01*
X112884Y227116D01*
X113532Y227961D01*
X113939Y228944D01*
X114078Y230000D01*
X113939Y231055D01*
X113532Y232039D01*
X112884Y232884D01*
X112039Y233532D01*
X111056Y233939D01*
X110000Y234078D01*
D02*
G37*
G36*
X100000D02*
X98944Y233939D01*
X97961Y233532D01*
X97116Y232884D01*
X96468Y232039D01*
X96061Y231055D01*
X95922Y230000D01*
X96061Y228944D01*
X96468Y227961D01*
X97116Y227116D01*
X97961Y226468D01*
X98944Y226061D01*
X100000Y225922D01*
X101056Y226061D01*
X102039Y226468D01*
X102884Y227116D01*
X103532Y227961D01*
X103939Y228944D01*
X104078Y230000D01*
X103939Y231055D01*
X103532Y232039D01*
X102884Y232884D01*
X102039Y233532D01*
X101056Y233939D01*
X100000Y234078D01*
D02*
G37*
G36*
X90000D02*
X88945Y233939D01*
X87961Y233532D01*
X87116Y232884D01*
X86468Y232039D01*
X86061Y231055D01*
X85922Y230000D01*
X86061Y228944D01*
X86468Y227961D01*
X87116Y227116D01*
X87961Y226468D01*
X88945Y226061D01*
X90000Y225922D01*
X91056Y226061D01*
X92039Y226468D01*
X92884Y227116D01*
X93532Y227961D01*
X93939Y228944D01*
X94078Y230000D01*
X93939Y231055D01*
X93532Y232039D01*
X92884Y232884D01*
X92039Y233532D01*
X91056Y233939D01*
X90000Y234078D01*
D02*
G37*
G36*
X80000D02*
X78944Y233939D01*
X77961Y233532D01*
X77116Y232884D01*
X76468Y232039D01*
X76061Y231055D01*
X75922Y230000D01*
X76061Y228944D01*
X76468Y227961D01*
X77116Y227116D01*
X77961Y226468D01*
X78944Y226061D01*
X80000Y225922D01*
X81055Y226061D01*
X82039Y226468D01*
X82884Y227116D01*
X83532Y227961D01*
X83939Y228944D01*
X84078Y230000D01*
X83939Y231055D01*
X83532Y232039D01*
X82884Y232884D01*
X82039Y233532D01*
X81055Y233939D01*
X80000Y234078D01*
D02*
G37*
G36*
X70000D02*
X68945Y233939D01*
X67961Y233532D01*
X67116Y232884D01*
X66468Y232039D01*
X66061Y231055D01*
X65922Y230000D01*
X66061Y228944D01*
X66468Y227961D01*
X67116Y227116D01*
X67961Y226468D01*
X68945Y226061D01*
X70000Y225922D01*
X71056Y226061D01*
X72039Y226468D01*
X72884Y227116D01*
X73532Y227961D01*
X73939Y228944D01*
X74078Y230000D01*
X73939Y231055D01*
X73532Y232039D01*
X72884Y232884D01*
X72039Y233532D01*
X71056Y233939D01*
X70000Y234078D01*
D02*
G37*
G36*
X60000D02*
X58944Y233939D01*
X57961Y233532D01*
X57116Y232884D01*
X56468Y232039D01*
X56061Y231055D01*
X55922Y230000D01*
X56061Y228944D01*
X56468Y227961D01*
X57116Y227116D01*
X57961Y226468D01*
X58944Y226061D01*
X60000Y225922D01*
X61055Y226061D01*
X62039Y226468D01*
X62884Y227116D01*
X63532Y227961D01*
X63939Y228944D01*
X64078Y230000D01*
X63939Y231055D01*
X63532Y232039D01*
X62884Y232884D01*
X62039Y233532D01*
X61055Y233939D01*
X60000Y234078D01*
D02*
G37*
G36*
X50000D02*
X48945Y233939D01*
X47961Y233532D01*
X47116Y232884D01*
X46468Y232039D01*
X46061Y231055D01*
X45922Y230000D01*
X46061Y228944D01*
X46468Y227961D01*
X47116Y227116D01*
X47961Y226468D01*
X48945Y226061D01*
X50000Y225922D01*
X51056Y226061D01*
X52039Y226468D01*
X52884Y227116D01*
X53532Y227961D01*
X53939Y228944D01*
X54078Y230000D01*
X53939Y231055D01*
X53532Y232039D01*
X52884Y232884D01*
X52039Y233532D01*
X51056Y233939D01*
X50000Y234078D01*
D02*
G37*
G36*
X251781Y227500D02*
X248657D01*
Y224377D01*
X249112Y224437D01*
X250002Y224805D01*
X250766Y225392D01*
X251352Y226155D01*
X251721Y227045D01*
X251781Y227500D01*
D02*
G37*
G36*
X247657D02*
X244534D01*
X244594Y227045D01*
X244963Y226155D01*
X245549Y225392D01*
X246313Y224805D01*
X247203Y224437D01*
X247657Y224377D01*
Y227500D01*
D02*
G37*
G36*
X310000Y223681D02*
X309047Y223556D01*
X308159Y223188D01*
X307397Y222603D01*
X306812Y221841D01*
X306578Y221274D01*
X303422D01*
X303188Y221841D01*
X302603Y222603D01*
X301840Y223188D01*
X300953Y223556D01*
X300000Y223681D01*
X299047Y223556D01*
X298160Y223188D01*
X297397Y222603D01*
X296812Y221841D01*
X296444Y220953D01*
X296319Y220000D01*
X296444Y219047D01*
X296812Y218160D01*
X297397Y217397D01*
X298160Y216812D01*
X299047Y216444D01*
X300000Y216319D01*
X300953Y216444D01*
X301840Y216812D01*
X302603Y217397D01*
X303188Y218160D01*
X303422Y218725D01*
X306578D01*
X306812Y218160D01*
X307397Y217397D01*
X308159Y216812D01*
X309047Y216444D01*
X310000Y216319D01*
X310953Y216444D01*
X311841Y216812D01*
X312603Y217397D01*
X313188Y218160D01*
X313556Y219047D01*
X313681Y220000D01*
X313556Y220953D01*
X313188Y221841D01*
X312603Y222603D01*
X311841Y223188D01*
X310953Y223556D01*
X310000Y223681D01*
D02*
G37*
G36*
X120000Y224078D02*
X118945Y223939D01*
X117961Y223532D01*
X117116Y222884D01*
X116468Y222039D01*
X116061Y221056D01*
X115922Y220000D01*
X116061Y218945D01*
X116468Y217961D01*
X117116Y217116D01*
X117961Y216468D01*
X118945Y216061D01*
X120000Y215922D01*
X121055Y216061D01*
X122039Y216468D01*
X122884Y217116D01*
X123532Y217961D01*
X123939Y218945D01*
X124078Y220000D01*
X123939Y221056D01*
X123532Y222039D01*
X122884Y222884D01*
X122039Y223532D01*
X121055Y223939D01*
X120000Y224078D01*
D02*
G37*
G36*
X110000D02*
X108944Y223939D01*
X107961Y223532D01*
X107116Y222884D01*
X106468Y222039D01*
X106061Y221056D01*
X105922Y220000D01*
X106061Y218945D01*
X106468Y217961D01*
X107116Y217116D01*
X107961Y216468D01*
X108944Y216061D01*
X110000Y215922D01*
X111056Y216061D01*
X112039Y216468D01*
X112884Y217116D01*
X113532Y217961D01*
X113939Y218945D01*
X114078Y220000D01*
X113939Y221056D01*
X113532Y222039D01*
X112884Y222884D01*
X112039Y223532D01*
X111056Y223939D01*
X110000Y224078D01*
D02*
G37*
G36*
X100000D02*
X98944Y223939D01*
X97961Y223532D01*
X97116Y222884D01*
X96468Y222039D01*
X96061Y221056D01*
X95922Y220000D01*
X96061Y218945D01*
X96468Y217961D01*
X97116Y217116D01*
X97961Y216468D01*
X98944Y216061D01*
X100000Y215922D01*
X101056Y216061D01*
X102039Y216468D01*
X102884Y217116D01*
X103532Y217961D01*
X103939Y218945D01*
X104078Y220000D01*
X103939Y221056D01*
X103532Y222039D01*
X102884Y222884D01*
X102039Y223532D01*
X101056Y223939D01*
X100000Y224078D01*
D02*
G37*
G36*
X90000D02*
X88945Y223939D01*
X87961Y223532D01*
X87116Y222884D01*
X86468Y222039D01*
X86061Y221056D01*
X85922Y220000D01*
X86061Y218945D01*
X86468Y217961D01*
X87116Y217116D01*
X87961Y216468D01*
X88945Y216061D01*
X90000Y215922D01*
X91056Y216061D01*
X92039Y216468D01*
X92884Y217116D01*
X93532Y217961D01*
X93939Y218945D01*
X94078Y220000D01*
X93939Y221056D01*
X93532Y222039D01*
X92884Y222884D01*
X92039Y223532D01*
X91056Y223939D01*
X90000Y224078D01*
D02*
G37*
G36*
X80000D02*
X78944Y223939D01*
X77961Y223532D01*
X77116Y222884D01*
X76468Y222039D01*
X76061Y221056D01*
X75922Y220000D01*
X76061Y218945D01*
X76468Y217961D01*
X77116Y217116D01*
X77961Y216468D01*
X78944Y216061D01*
X80000Y215922D01*
X81055Y216061D01*
X82039Y216468D01*
X82884Y217116D01*
X83532Y217961D01*
X83939Y218945D01*
X84078Y220000D01*
X83939Y221056D01*
X83532Y222039D01*
X82884Y222884D01*
X82039Y223532D01*
X81055Y223939D01*
X80000Y224078D01*
D02*
G37*
G36*
X70000D02*
X68945Y223939D01*
X67961Y223532D01*
X67116Y222884D01*
X66468Y222039D01*
X66061Y221056D01*
X65922Y220000D01*
X66061Y218945D01*
X66468Y217961D01*
X67116Y217116D01*
X67961Y216468D01*
X68945Y216061D01*
X70000Y215922D01*
X71056Y216061D01*
X72039Y216468D01*
X72884Y217116D01*
X73532Y217961D01*
X73939Y218945D01*
X74078Y220000D01*
X73939Y221056D01*
X73532Y222039D01*
X72884Y222884D01*
X72039Y223532D01*
X71056Y223939D01*
X70000Y224078D01*
D02*
G37*
G36*
X60000D02*
X58944Y223939D01*
X57961Y223532D01*
X57116Y222884D01*
X56468Y222039D01*
X56061Y221056D01*
X55922Y220000D01*
X56061Y218945D01*
X56468Y217961D01*
X57116Y217116D01*
X57961Y216468D01*
X58944Y216061D01*
X60000Y215922D01*
X61055Y216061D01*
X62039Y216468D01*
X62884Y217116D01*
X63532Y217961D01*
X63939Y218945D01*
X64078Y220000D01*
X63939Y221056D01*
X63532Y222039D01*
X62884Y222884D01*
X62039Y223532D01*
X61055Y223939D01*
X60000Y224078D01*
D02*
G37*
G36*
X50000D02*
X48945Y223939D01*
X47961Y223532D01*
X47116Y222884D01*
X46468Y222039D01*
X46061Y221056D01*
X45922Y220000D01*
X46061Y218945D01*
X46468Y217961D01*
X47116Y217116D01*
X47961Y216468D01*
X48945Y216061D01*
X50000Y215922D01*
X51056Y216061D01*
X52039Y216468D01*
X52884Y217116D01*
X53532Y217961D01*
X53939Y218945D01*
X54078Y220000D01*
X53939Y221056D01*
X53532Y222039D01*
X52884Y222884D01*
X52039Y223532D01*
X51056Y223939D01*
X50000Y224078D01*
D02*
G37*
G36*
X310000Y213681D02*
X309047Y213556D01*
X308159Y213188D01*
X307397Y212603D01*
X306812Y211841D01*
X306578Y211275D01*
X303422D01*
X303188Y211841D01*
X302603Y212603D01*
X301840Y213188D01*
X300953Y213556D01*
X300000Y213681D01*
X299047Y213556D01*
X298160Y213188D01*
X297397Y212603D01*
X296812Y211841D01*
X296444Y210953D01*
X296319Y210000D01*
X296444Y209047D01*
X296812Y208159D01*
X297397Y207397D01*
X298160Y206812D01*
X299047Y206444D01*
X300000Y206319D01*
X300953Y206444D01*
X301840Y206812D01*
X302603Y207397D01*
X303188Y208159D01*
X303422Y208726D01*
X306578D01*
X306812Y208159D01*
X307397Y207397D01*
X308159Y206812D01*
X309047Y206444D01*
X310000Y206319D01*
X310953Y206444D01*
X311841Y206812D01*
X312603Y207397D01*
X313188Y208159D01*
X313422Y208726D01*
X362547D01*
Y206547D01*
X369453D01*
Y213453D01*
X362547D01*
Y211275D01*
X313422D01*
X313188Y211841D01*
X312603Y212603D01*
X311841Y213188D01*
X310953Y213556D01*
X310000Y213681D01*
D02*
G37*
G36*
X120000Y214078D02*
X118945Y213939D01*
X117961Y213532D01*
X117116Y212884D01*
X116468Y212039D01*
X116061Y211055D01*
X115922Y210000D01*
X116061Y208945D01*
X116468Y207961D01*
X117116Y207116D01*
X117961Y206468D01*
X118945Y206061D01*
X120000Y205922D01*
X121055Y206061D01*
X122039Y206468D01*
X122884Y207116D01*
X123532Y207961D01*
X123939Y208945D01*
X124078Y210000D01*
X123939Y211055D01*
X123532Y212039D01*
X122884Y212884D01*
X122039Y213532D01*
X121055Y213939D01*
X120000Y214078D01*
D02*
G37*
G36*
X110000D02*
X108944Y213939D01*
X107961Y213532D01*
X107116Y212884D01*
X106468Y212039D01*
X106061Y211055D01*
X105922Y210000D01*
X106061Y208945D01*
X106468Y207961D01*
X107116Y207116D01*
X107961Y206468D01*
X108944Y206061D01*
X110000Y205922D01*
X111056Y206061D01*
X112039Y206468D01*
X112884Y207116D01*
X113532Y207961D01*
X113939Y208945D01*
X114078Y210000D01*
X113939Y211055D01*
X113532Y212039D01*
X112884Y212884D01*
X112039Y213532D01*
X111056Y213939D01*
X110000Y214078D01*
D02*
G37*
G36*
X100000D02*
X98944Y213939D01*
X97961Y213532D01*
X97116Y212884D01*
X96468Y212039D01*
X96061Y211055D01*
X95922Y210000D01*
X96061Y208945D01*
X96468Y207961D01*
X97116Y207116D01*
X97961Y206468D01*
X98944Y206061D01*
X100000Y205922D01*
X101056Y206061D01*
X102039Y206468D01*
X102884Y207116D01*
X103532Y207961D01*
X103939Y208945D01*
X104078Y210000D01*
X103939Y211055D01*
X103532Y212039D01*
X102884Y212884D01*
X102039Y213532D01*
X101056Y213939D01*
X100000Y214078D01*
D02*
G37*
G36*
X90000D02*
X88945Y213939D01*
X87961Y213532D01*
X87116Y212884D01*
X86468Y212039D01*
X86061Y211055D01*
X85922Y210000D01*
X86061Y208945D01*
X86468Y207961D01*
X87116Y207116D01*
X87961Y206468D01*
X88945Y206061D01*
X90000Y205922D01*
X91056Y206061D01*
X92039Y206468D01*
X92884Y207116D01*
X93532Y207961D01*
X93939Y208945D01*
X94078Y210000D01*
X93939Y211055D01*
X93532Y212039D01*
X92884Y212884D01*
X92039Y213532D01*
X91056Y213939D01*
X90000Y214078D01*
D02*
G37*
G36*
X80000D02*
X78944Y213939D01*
X77961Y213532D01*
X77116Y212884D01*
X76468Y212039D01*
X76061Y211055D01*
X75922Y210000D01*
X76061Y208945D01*
X76468Y207961D01*
X77116Y207116D01*
X77961Y206468D01*
X78944Y206061D01*
X80000Y205922D01*
X81055Y206061D01*
X82039Y206468D01*
X82884Y207116D01*
X83532Y207961D01*
X83939Y208945D01*
X84078Y210000D01*
X83939Y211055D01*
X83532Y212039D01*
X82884Y212884D01*
X82039Y213532D01*
X81055Y213939D01*
X80000Y214078D01*
D02*
G37*
G36*
X70000D02*
X68945Y213939D01*
X67961Y213532D01*
X67116Y212884D01*
X66468Y212039D01*
X66061Y211055D01*
X65922Y210000D01*
X66061Y208945D01*
X66468Y207961D01*
X67116Y207116D01*
X67961Y206468D01*
X68945Y206061D01*
X70000Y205922D01*
X71056Y206061D01*
X72039Y206468D01*
X72884Y207116D01*
X73532Y207961D01*
X73939Y208945D01*
X74078Y210000D01*
X73939Y211055D01*
X73532Y212039D01*
X72884Y212884D01*
X72039Y213532D01*
X71056Y213939D01*
X70000Y214078D01*
D02*
G37*
G36*
X60000D02*
X58944Y213939D01*
X57961Y213532D01*
X57116Y212884D01*
X56468Y212039D01*
X56061Y211055D01*
X55922Y210000D01*
X56061Y208945D01*
X56468Y207961D01*
X57116Y207116D01*
X57961Y206468D01*
X58944Y206061D01*
X60000Y205922D01*
X61055Y206061D01*
X62039Y206468D01*
X62884Y207116D01*
X63532Y207961D01*
X63939Y208945D01*
X64078Y210000D01*
X63939Y211055D01*
X63532Y212039D01*
X62884Y212884D01*
X62039Y213532D01*
X61055Y213939D01*
X60000Y214078D01*
D02*
G37*
G36*
X50000D02*
X48945Y213939D01*
X47961Y213532D01*
X47116Y212884D01*
X46468Y212039D01*
X46061Y211055D01*
X45922Y210000D01*
X46061Y208945D01*
X46468Y207961D01*
X47116Y207116D01*
X47961Y206468D01*
X48945Y206061D01*
X50000Y205922D01*
X51056Y206061D01*
X52039Y206468D01*
X52884Y207116D01*
X53532Y207961D01*
X53939Y208945D01*
X54078Y210000D01*
X53939Y211055D01*
X53532Y212039D01*
X52884Y212884D01*
X52039Y213532D01*
X51056Y213939D01*
X50000Y214078D01*
D02*
G37*
G36*
X170000Y213482D02*
X169099Y213364D01*
X168259Y213016D01*
X167537Y212462D01*
X167213Y212039D01*
X163000D01*
X162220Y211884D01*
X161558Y211442D01*
X155000Y204884D01*
X148442Y211442D01*
X147780Y211884D01*
X147000Y212039D01*
X142787D01*
X142463Y212462D01*
X141741Y213016D01*
X140901Y213364D01*
X140000Y213482D01*
X139099Y213364D01*
X138259Y213016D01*
X137538Y212462D01*
X136984Y211741D01*
X136636Y210901D01*
X136518Y210000D01*
X136636Y209099D01*
X136984Y208259D01*
X137538Y207538D01*
X138259Y206984D01*
X139099Y206636D01*
X140000Y206518D01*
X140901Y206636D01*
X141741Y206984D01*
X142463Y207538D01*
X142787Y207961D01*
X146155D01*
X152961Y201155D01*
Y117883D01*
X152884Y117500D01*
X153046Y116691D01*
X153504Y116004D01*
X154191Y115546D01*
X155000Y115384D01*
X155809Y115546D01*
X156496Y116004D01*
X156954Y116691D01*
X157115Y117500D01*
X157039Y117883D01*
Y201155D01*
X163845Y207961D01*
X167213D01*
X167537Y207538D01*
X168259Y206984D01*
X169099Y206636D01*
X170000Y206518D01*
X170901Y206636D01*
X171741Y206984D01*
X172462Y207538D01*
X173016Y208259D01*
X173364Y209099D01*
X173483Y210000D01*
X173364Y210901D01*
X173016Y211741D01*
X172462Y212462D01*
X171741Y213016D01*
X170901Y213364D01*
X170000Y213482D01*
D02*
G37*
G36*
X310000Y203681D02*
X309047Y203556D01*
X308159Y203188D01*
X307397Y202603D01*
X306812Y201840D01*
X306578Y201274D01*
X303422D01*
X303188Y201840D01*
X302603Y202603D01*
X301840Y203188D01*
X300953Y203556D01*
X300000Y203681D01*
X299047Y203556D01*
X298160Y203188D01*
X297397Y202603D01*
X296812Y201840D01*
X296444Y200953D01*
X296319Y200000D01*
X296444Y199047D01*
X296812Y198160D01*
X297397Y197397D01*
X298160Y196812D01*
X299047Y196444D01*
X300000Y196319D01*
X300953Y196444D01*
X301840Y196812D01*
X302603Y197397D01*
X303188Y198160D01*
X303422Y198725D01*
X306578D01*
X306812Y198160D01*
X307397Y197397D01*
X308159Y196812D01*
X309047Y196444D01*
X310000Y196319D01*
X310953Y196444D01*
X311841Y196812D01*
X312603Y197397D01*
X313188Y198160D01*
X313422Y198725D01*
X362791D01*
X362984Y198259D01*
X363538Y197538D01*
X364259Y196984D01*
X365099Y196636D01*
X366000Y196518D01*
X366901Y196636D01*
X367741Y196984D01*
X368462Y197538D01*
X369016Y198259D01*
X369364Y199099D01*
X369482Y200000D01*
X369364Y200901D01*
X369016Y201741D01*
X368462Y202463D01*
X367741Y203016D01*
X366901Y203364D01*
X366000Y203483D01*
X365099Y203364D01*
X364259Y203016D01*
X363538Y202463D01*
X362984Y201741D01*
X362791Y201274D01*
X313422D01*
X313188Y201840D01*
X312603Y202603D01*
X311841Y203188D01*
X310953Y203556D01*
X310000Y203681D01*
D02*
G37*
G36*
X140500Y203921D02*
Y200500D01*
X143921D01*
X143851Y201032D01*
X143453Y201993D01*
X142819Y202819D01*
X141993Y203453D01*
X141032Y203851D01*
X140500Y203921D01*
D02*
G37*
G36*
X170500D02*
Y200500D01*
X173921D01*
X173851Y201032D01*
X173453Y201993D01*
X172819Y202819D01*
X171993Y203453D01*
X171032Y203851D01*
X170500Y203921D01*
D02*
G37*
G36*
X139500D02*
X138968Y203851D01*
X138007Y203453D01*
X137181Y202819D01*
X136547Y201993D01*
X136149Y201032D01*
X136079Y200500D01*
X139500D01*
Y203921D01*
D02*
G37*
G36*
X169500D02*
X168968Y203851D01*
X168007Y203453D01*
X167181Y202819D01*
X166547Y201993D01*
X166149Y201032D01*
X166079Y200500D01*
X169500D01*
Y203921D01*
D02*
G37*
G36*
X143921Y199500D02*
X140500D01*
Y196079D01*
X141032Y196149D01*
X141993Y196547D01*
X142819Y197181D01*
X143453Y198007D01*
X143851Y198968D01*
X143921Y199500D01*
D02*
G37*
G36*
X173921D02*
X170500D01*
Y196079D01*
X171032Y196149D01*
X171993Y196547D01*
X172819Y197181D01*
X173453Y198007D01*
X173851Y198968D01*
X173921Y199500D01*
D02*
G37*
G36*
X169500D02*
X166079D01*
X166149Y198968D01*
X166547Y198007D01*
X167181Y197181D01*
X168007Y196547D01*
X168968Y196149D01*
X169500Y196079D01*
Y199500D01*
D02*
G37*
G36*
X139500D02*
X136079D01*
X136149Y198968D01*
X136547Y198007D01*
X137181Y197181D01*
X138007Y196547D01*
X138968Y196149D01*
X139500Y196079D01*
Y199500D01*
D02*
G37*
G36*
X120000Y204078D02*
X118945Y203939D01*
X117961Y203532D01*
X117116Y202884D01*
X116468Y202039D01*
X116061Y201056D01*
X115922Y200000D01*
X116061Y198944D01*
X116468Y197961D01*
X117116Y197116D01*
X117961Y196468D01*
X118945Y196061D01*
X120000Y195922D01*
X121055Y196061D01*
X122039Y196468D01*
X122884Y197116D01*
X123532Y197961D01*
X123939Y198944D01*
X124078Y200000D01*
X123939Y201056D01*
X123532Y202039D01*
X122884Y202884D01*
X122039Y203532D01*
X121055Y203939D01*
X120000Y204078D01*
D02*
G37*
G36*
X110000D02*
X108944Y203939D01*
X107961Y203532D01*
X107116Y202884D01*
X106468Y202039D01*
X106061Y201056D01*
X105922Y200000D01*
X106061Y198944D01*
X106468Y197961D01*
X107116Y197116D01*
X107961Y196468D01*
X108944Y196061D01*
X110000Y195922D01*
X111056Y196061D01*
X112039Y196468D01*
X112884Y197116D01*
X113532Y197961D01*
X113939Y198944D01*
X114078Y200000D01*
X113939Y201056D01*
X113532Y202039D01*
X112884Y202884D01*
X112039Y203532D01*
X111056Y203939D01*
X110000Y204078D01*
D02*
G37*
G36*
X100000D02*
X98944Y203939D01*
X97961Y203532D01*
X97116Y202884D01*
X96468Y202039D01*
X96061Y201056D01*
X95922Y200000D01*
X96061Y198944D01*
X96468Y197961D01*
X97116Y197116D01*
X97961Y196468D01*
X98944Y196061D01*
X100000Y195922D01*
X101056Y196061D01*
X102039Y196468D01*
X102884Y197116D01*
X103532Y197961D01*
X103939Y198944D01*
X104078Y200000D01*
X103939Y201056D01*
X103532Y202039D01*
X102884Y202884D01*
X102039Y203532D01*
X101056Y203939D01*
X100000Y204078D01*
D02*
G37*
G36*
X90000D02*
X88945Y203939D01*
X87961Y203532D01*
X87116Y202884D01*
X86468Y202039D01*
X86061Y201056D01*
X85922Y200000D01*
X86061Y198944D01*
X86468Y197961D01*
X87116Y197116D01*
X87961Y196468D01*
X88945Y196061D01*
X90000Y195922D01*
X91056Y196061D01*
X92039Y196468D01*
X92884Y197116D01*
X93532Y197961D01*
X93939Y198944D01*
X94078Y200000D01*
X93939Y201056D01*
X93532Y202039D01*
X92884Y202884D01*
X92039Y203532D01*
X91056Y203939D01*
X90000Y204078D01*
D02*
G37*
G36*
X80000D02*
X78944Y203939D01*
X77961Y203532D01*
X77116Y202884D01*
X76468Y202039D01*
X76061Y201056D01*
X75922Y200000D01*
X76061Y198944D01*
X76468Y197961D01*
X77116Y197116D01*
X77961Y196468D01*
X78944Y196061D01*
X80000Y195922D01*
X81055Y196061D01*
X82039Y196468D01*
X82884Y197116D01*
X83532Y197961D01*
X83939Y198944D01*
X84078Y200000D01*
X83939Y201056D01*
X83532Y202039D01*
X82884Y202884D01*
X82039Y203532D01*
X81055Y203939D01*
X80000Y204078D01*
D02*
G37*
G36*
X70000D02*
X68945Y203939D01*
X67961Y203532D01*
X67116Y202884D01*
X66468Y202039D01*
X66061Y201056D01*
X65922Y200000D01*
X66061Y198944D01*
X66468Y197961D01*
X67116Y197116D01*
X67961Y196468D01*
X68945Y196061D01*
X70000Y195922D01*
X71056Y196061D01*
X72039Y196468D01*
X72884Y197116D01*
X73532Y197961D01*
X73939Y198944D01*
X74078Y200000D01*
X73939Y201056D01*
X73532Y202039D01*
X72884Y202884D01*
X72039Y203532D01*
X71056Y203939D01*
X70000Y204078D01*
D02*
G37*
G36*
X30000Y205043D02*
X28695Y204871D01*
X27478Y204367D01*
X26434Y203566D01*
X25633Y202522D01*
X25129Y201305D01*
X24957Y200000D01*
X25129Y198695D01*
X25633Y197478D01*
X26434Y196434D01*
X27478Y195633D01*
X28695Y195129D01*
X30000Y194957D01*
X31305Y195129D01*
X32522Y195633D01*
X33566Y196434D01*
X34367Y197478D01*
X34871Y198695D01*
X35043Y200000D01*
X34871Y201305D01*
X34367Y202522D01*
X33566Y203566D01*
X32522Y204367D01*
X31305Y204871D01*
X30000Y205043D01*
D02*
G37*
G36*
X60000Y198284D02*
X59150Y198172D01*
X58358Y197844D01*
X57678Y197322D01*
X57156Y196642D01*
X56828Y195850D01*
X56716Y195000D01*
X56828Y194150D01*
X57156Y193358D01*
X57678Y192678D01*
X58358Y192156D01*
X59150Y191828D01*
X60000Y191716D01*
X60850Y191828D01*
X61642Y192156D01*
X62322Y192678D01*
X62844Y193358D01*
X63172Y194150D01*
X63284Y195000D01*
X63172Y195850D01*
X62844Y196642D01*
X62322Y197322D01*
X61642Y197844D01*
X60850Y198172D01*
X60000Y198284D01*
D02*
G37*
G36*
X310000Y193681D02*
X309047Y193556D01*
X308159Y193188D01*
X307397Y192603D01*
X306812Y191841D01*
X306578Y191274D01*
X303422D01*
X303188Y191841D01*
X302603Y192603D01*
X301840Y193188D01*
X300953Y193556D01*
X300000Y193681D01*
X299047Y193556D01*
X298160Y193188D01*
X297397Y192603D01*
X296812Y191841D01*
X296444Y190953D01*
X296319Y190000D01*
X296444Y189047D01*
X296812Y188160D01*
X297397Y187397D01*
X298160Y186812D01*
X299047Y186444D01*
X300000Y186319D01*
X300953Y186444D01*
X301840Y186812D01*
X302603Y187397D01*
X303188Y188160D01*
X303422Y188725D01*
X306578D01*
X306812Y188160D01*
X307397Y187397D01*
X308159Y186812D01*
X309047Y186444D01*
X310000Y186319D01*
X310953Y186444D01*
X311841Y186812D01*
X312603Y187397D01*
X313188Y188160D01*
X313422Y188725D01*
X362791D01*
X362984Y188259D01*
X363538Y187538D01*
X364259Y186984D01*
X365099Y186636D01*
X366000Y186518D01*
X366901Y186636D01*
X367741Y186984D01*
X368462Y187538D01*
X369016Y188259D01*
X369364Y189099D01*
X369482Y190000D01*
X369364Y190901D01*
X369016Y191741D01*
X368462Y192463D01*
X367741Y193016D01*
X366901Y193364D01*
X366000Y193482D01*
X365099Y193364D01*
X364259Y193016D01*
X363538Y192463D01*
X362984Y191741D01*
X362791Y191274D01*
X313422D01*
X313188Y191841D01*
X312603Y192603D01*
X311841Y193188D01*
X310953Y193556D01*
X310000Y193681D01*
D02*
G37*
G36*
X214150Y194150D02*
X210500D01*
Y190500D01*
X214150D01*
Y194150D01*
D02*
G37*
G36*
X209500D02*
X205850D01*
Y190500D01*
X209500D01*
Y194150D01*
D02*
G37*
G36*
X214150Y189500D02*
X210500D01*
Y185850D01*
X214150D01*
Y189500D01*
D02*
G37*
G36*
X209500D02*
X205850D01*
Y185850D01*
X209500D01*
Y189500D01*
D02*
G37*
G36*
X342000Y187887D02*
X341253Y187788D01*
X340557Y187500D01*
X339959Y187041D01*
X339500Y186443D01*
X339212Y185747D01*
X339113Y185000D01*
X339212Y184253D01*
X339500Y183556D01*
X339959Y182959D01*
X340557Y182500D01*
X341253Y182211D01*
X342000Y182113D01*
X342747Y182211D01*
X343443Y182500D01*
X344041Y182959D01*
X344500Y183556D01*
X344789Y184253D01*
X344887Y185000D01*
X344789Y185747D01*
X344500Y186443D01*
X344041Y187041D01*
X343443Y187500D01*
X342747Y187788D01*
X342000Y187887D01*
D02*
G37*
G36*
X120000Y188284D02*
X119150Y188172D01*
X118358Y187844D01*
X117678Y187322D01*
X117156Y186642D01*
X116828Y185850D01*
X116716Y185000D01*
X116828Y184150D01*
X117156Y183358D01*
X117678Y182678D01*
X118358Y182156D01*
X119150Y181828D01*
X120000Y181716D01*
X120850Y181828D01*
X121642Y182156D01*
X122322Y182678D01*
X122844Y183358D01*
X123172Y184150D01*
X123284Y185000D01*
X123172Y185850D01*
X122844Y186642D01*
X122322Y187322D01*
X121642Y187844D01*
X120850Y188172D01*
X120000Y188284D01*
D02*
G37*
G36*
X80000D02*
X79150Y188172D01*
X78358Y187844D01*
X77678Y187322D01*
X77156Y186642D01*
X76828Y185850D01*
X76716Y185000D01*
X76828Y184150D01*
X77156Y183358D01*
X77678Y182678D01*
X78358Y182156D01*
X79150Y181828D01*
X80000Y181716D01*
X80850Y181828D01*
X81642Y182156D01*
X82322Y182678D01*
X82844Y183358D01*
X83172Y184150D01*
X83284Y185000D01*
X83172Y185850D01*
X82844Y186642D01*
X82322Y187322D01*
X81642Y187844D01*
X80850Y188172D01*
X80000Y188284D01*
D02*
G37*
G36*
X332000Y187887D02*
X331253Y187788D01*
X330557Y187500D01*
X329959Y187041D01*
X329500Y186443D01*
X329211Y185747D01*
X329113Y185000D01*
X329211Y184253D01*
X329281Y184084D01*
X326472Y181274D01*
X313422D01*
X313188Y181841D01*
X312603Y182603D01*
X311841Y183188D01*
X310953Y183556D01*
X310000Y183681D01*
X309047Y183556D01*
X308159Y183188D01*
X307397Y182603D01*
X306812Y181841D01*
X306578Y181274D01*
X303422D01*
X303188Y181841D01*
X302603Y182603D01*
X301840Y183188D01*
X300953Y183556D01*
X300000Y183681D01*
X299047Y183556D01*
X298160Y183188D01*
X297397Y182603D01*
X296812Y181841D01*
X296444Y180953D01*
X296319Y180000D01*
X296444Y179047D01*
X296812Y178159D01*
X297397Y177397D01*
X298160Y176812D01*
X299047Y176444D01*
X300000Y176319D01*
X300953Y176444D01*
X301840Y176812D01*
X302603Y177397D01*
X303188Y178159D01*
X303422Y178726D01*
X306578D01*
X306812Y178159D01*
X307397Y177397D01*
X308159Y176812D01*
X309047Y176444D01*
X310000Y176319D01*
X310953Y176444D01*
X311841Y176812D01*
X312603Y177397D01*
X313188Y178159D01*
X313422Y178726D01*
X327000D01*
X327488Y178823D01*
X327901Y179099D01*
X331084Y182281D01*
X331253Y182211D01*
X332000Y182113D01*
X332747Y182211D01*
X332916Y182281D01*
X336099Y179099D01*
X336512Y178823D01*
X337000Y178726D01*
X362791D01*
X362984Y178259D01*
X363538Y177538D01*
X364259Y176984D01*
X365099Y176636D01*
X366000Y176517D01*
X366901Y176636D01*
X367741Y176984D01*
X368462Y177538D01*
X369016Y178259D01*
X369364Y179099D01*
X369482Y180000D01*
X369364Y180901D01*
X369016Y181741D01*
X368462Y182463D01*
X367741Y183016D01*
X366901Y183364D01*
X366000Y183483D01*
X365099Y183364D01*
X364259Y183016D01*
X363538Y182463D01*
X362984Y181741D01*
X362791Y181274D01*
X337528D01*
X334718Y184084D01*
X334788Y184253D01*
X334887Y185000D01*
X334788Y185747D01*
X334500Y186443D01*
X334041Y187041D01*
X333443Y187500D01*
X332747Y187788D01*
X332000Y187887D01*
D02*
G37*
G36*
X30500Y185482D02*
Y180500D01*
X35482D01*
X35358Y181436D01*
X34804Y182774D01*
X33923Y183923D01*
X32774Y184804D01*
X31436Y185358D01*
X30500Y185482D01*
D02*
G37*
G36*
X29500D02*
X28564Y185358D01*
X27226Y184804D01*
X26077Y183923D01*
X25196Y182774D01*
X24642Y181436D01*
X24518Y180500D01*
X29500D01*
Y185482D01*
D02*
G37*
G36*
X35482Y179500D02*
X30500D01*
Y174518D01*
X31436Y174642D01*
X32774Y175196D01*
X33923Y176077D01*
X34804Y177226D01*
X35358Y178564D01*
X35482Y179500D01*
D02*
G37*
G36*
X29500D02*
X24518D01*
X24642Y178564D01*
X25196Y177226D01*
X26077Y176077D01*
X27226Y175196D01*
X28564Y174642D01*
X29500Y174518D01*
Y179500D01*
D02*
G37*
G36*
X173453Y178453D02*
X166547D01*
Y171547D01*
X173453D01*
Y178453D01*
D02*
G37*
G36*
X332000Y175887D02*
X331253Y175788D01*
X330557Y175500D01*
X329959Y175041D01*
X329500Y174443D01*
X329211Y173747D01*
X329113Y173000D01*
X329211Y172253D01*
X329281Y172084D01*
X328472Y171274D01*
X313422D01*
X313188Y171841D01*
X312603Y172603D01*
X311841Y173188D01*
X310953Y173556D01*
X310000Y173681D01*
X309047Y173556D01*
X308159Y173188D01*
X307397Y172603D01*
X306812Y171841D01*
X306578Y171274D01*
X303422D01*
X303188Y171841D01*
X302603Y172603D01*
X301840Y173188D01*
X300953Y173556D01*
X300000Y173681D01*
X299047Y173556D01*
X298160Y173188D01*
X297397Y172603D01*
X296812Y171841D01*
X296444Y170953D01*
X296319Y170000D01*
X296444Y169047D01*
X296812Y168159D01*
X297397Y167397D01*
X298160Y166812D01*
X299047Y166444D01*
X300000Y166319D01*
X300953Y166444D01*
X301840Y166812D01*
X302603Y167397D01*
X303188Y168159D01*
X303422Y168726D01*
X306578D01*
X306812Y168159D01*
X307397Y167397D01*
X308159Y166812D01*
X309047Y166444D01*
X310000Y166319D01*
X310953Y166444D01*
X311841Y166812D01*
X312603Y167397D01*
X313188Y168159D01*
X313422Y168726D01*
X329000D01*
X329488Y168823D01*
X329901Y169099D01*
X331084Y170282D01*
X331253Y170212D01*
X332000Y170113D01*
X332747Y170212D01*
X332916Y170282D01*
X336099Y167099D01*
X336512Y166823D01*
X337000Y166726D01*
X359000D01*
X359488Y166823D01*
X359901Y167099D01*
X361528Y168726D01*
X362791D01*
X362984Y168259D01*
X363538Y167537D01*
X364259Y166984D01*
X365099Y166636D01*
X366000Y166517D01*
X366901Y166636D01*
X367741Y166984D01*
X368462Y167537D01*
X369016Y168259D01*
X369364Y169099D01*
X369482Y170000D01*
X369364Y170901D01*
X369016Y171741D01*
X368462Y172462D01*
X367741Y173016D01*
X366901Y173364D01*
X366000Y173483D01*
X365099Y173364D01*
X364259Y173016D01*
X363538Y172462D01*
X362984Y171741D01*
X362791Y171274D01*
X361000D01*
X360512Y171177D01*
X360099Y170901D01*
X358472Y169274D01*
X337528D01*
X334718Y172084D01*
X334788Y172253D01*
X334887Y173000D01*
X334788Y173747D01*
X334500Y174443D01*
X334041Y175041D01*
X333443Y175500D01*
X332747Y175788D01*
X332000Y175887D01*
D02*
G37*
G36*
X342000D02*
X341253Y175788D01*
X340557Y175500D01*
X339959Y175041D01*
X339500Y174443D01*
X339212Y173747D01*
X339113Y173000D01*
X339212Y172253D01*
X339500Y171556D01*
X339959Y170959D01*
X340557Y170500D01*
X341253Y170212D01*
X342000Y170113D01*
X342747Y170212D01*
X343443Y170500D01*
X344041Y170959D01*
X344500Y171556D01*
X344789Y172253D01*
X344887Y173000D01*
X344789Y173747D01*
X344500Y174443D01*
X344041Y175041D01*
X343443Y175500D01*
X342747Y175788D01*
X342000Y175887D01*
D02*
G37*
G36*
X210000Y173681D02*
X209047Y173556D01*
X208159Y173188D01*
X207397Y172603D01*
X206812Y171841D01*
X206444Y170953D01*
X206319Y170000D01*
X206444Y169047D01*
X206812Y168159D01*
X207397Y167397D01*
X208159Y166812D01*
X209047Y166444D01*
X210000Y166319D01*
X210953Y166444D01*
X211841Y166812D01*
X212603Y167397D01*
X213188Y168159D01*
X213556Y169047D01*
X213681Y170000D01*
X213556Y170953D01*
X213188Y171841D01*
X212603Y172603D01*
X211841Y173188D01*
X210953Y173556D01*
X210000Y173681D01*
D02*
G37*
G36*
X170500Y168921D02*
Y165500D01*
X173921D01*
X173851Y166032D01*
X173453Y166993D01*
X172819Y167819D01*
X171993Y168453D01*
X171032Y168851D01*
X170500Y168921D01*
D02*
G37*
G36*
X169500D02*
X168968Y168851D01*
X168007Y168453D01*
X167181Y167819D01*
X166547Y166993D01*
X166149Y166032D01*
X166079Y165500D01*
X169500D01*
Y168921D01*
D02*
G37*
G36*
X332000Y163887D02*
X331253Y163788D01*
X330557Y163500D01*
X329959Y163041D01*
X329500Y162443D01*
X329430Y162275D01*
X324000D01*
X323512Y162178D01*
X323099Y161901D01*
X322472Y161275D01*
X313422D01*
X313188Y161840D01*
X312603Y162603D01*
X311841Y163188D01*
X310953Y163556D01*
X310000Y163681D01*
X309047Y163556D01*
X308159Y163188D01*
X307397Y162603D01*
X306812Y161840D01*
X306578Y161275D01*
X303422D01*
X303188Y161840D01*
X302603Y162603D01*
X301840Y163188D01*
X300953Y163556D01*
X300000Y163681D01*
X299047Y163556D01*
X298160Y163188D01*
X297397Y162603D01*
X296812Y161840D01*
X296444Y160953D01*
X296319Y160000D01*
X296444Y159047D01*
X296812Y158159D01*
X297397Y157397D01*
X298160Y156812D01*
X299047Y156444D01*
X300000Y156319D01*
X300953Y156444D01*
X301840Y156812D01*
X302603Y157397D01*
X303188Y158159D01*
X303422Y158726D01*
X306578D01*
X306812Y158159D01*
X307397Y157397D01*
X308159Y156812D01*
X309047Y156444D01*
X310000Y156319D01*
X310953Y156444D01*
X311841Y156812D01*
X312603Y157397D01*
X313188Y158159D01*
X313422Y158726D01*
X323000D01*
X323488Y158823D01*
X323901Y159099D01*
X324528Y159725D01*
X329430D01*
X329500Y159556D01*
X329959Y158959D01*
X330557Y158500D01*
X331253Y158212D01*
X332000Y158113D01*
X332747Y158212D01*
X332916Y158282D01*
X336099Y155099D01*
X336512Y154823D01*
X337000Y154726D01*
X356000D01*
X356488Y154823D01*
X356901Y155099D01*
X360528Y158726D01*
X362791D01*
X362984Y158259D01*
X363538Y157537D01*
X364259Y156984D01*
X365099Y156636D01*
X366000Y156518D01*
X366901Y156636D01*
X367741Y156984D01*
X368462Y157537D01*
X369016Y158259D01*
X369364Y159099D01*
X369482Y160000D01*
X369364Y160901D01*
X369016Y161741D01*
X368462Y162462D01*
X367741Y163016D01*
X366901Y163364D01*
X366000Y163482D01*
X365099Y163364D01*
X364259Y163016D01*
X363538Y162462D01*
X362984Y161741D01*
X362791Y161275D01*
X360000D01*
X359512Y161178D01*
X359099Y160901D01*
X355472Y157274D01*
X337528D01*
X334718Y160084D01*
X334788Y160253D01*
X334887Y161000D01*
X334788Y161747D01*
X334500Y162443D01*
X334041Y163041D01*
X333443Y163500D01*
X332747Y163788D01*
X332000Y163887D01*
D02*
G37*
G36*
X173921Y164500D02*
X170500D01*
Y161079D01*
X171032Y161149D01*
X171993Y161547D01*
X172819Y162181D01*
X173453Y163007D01*
X173851Y163968D01*
X173921Y164500D01*
D02*
G37*
G36*
X169500D02*
X166079D01*
X166149Y163968D01*
X166547Y163007D01*
X167181Y162181D01*
X168007Y161547D01*
X168968Y161149D01*
X169500Y161079D01*
Y164500D01*
D02*
G37*
G36*
X94150Y163150D02*
X90500D01*
Y159500D01*
X94150D01*
Y163150D01*
D02*
G37*
G36*
X89500D02*
X85850D01*
Y159500D01*
X89500D01*
Y163150D01*
D02*
G37*
G36*
X342000Y163887D02*
X341253Y163788D01*
X340557Y163500D01*
X339959Y163041D01*
X339500Y162443D01*
X339212Y161747D01*
X339113Y161000D01*
X339212Y160253D01*
X339500Y159556D01*
X339959Y158959D01*
X340557Y158500D01*
X341253Y158212D01*
X342000Y158113D01*
X342747Y158212D01*
X343443Y158500D01*
X344041Y158959D01*
X344500Y159556D01*
X344789Y160253D01*
X344887Y161000D01*
X344789Y161747D01*
X344500Y162443D01*
X344041Y163041D01*
X343443Y163500D01*
X342747Y163788D01*
X342000Y163887D01*
D02*
G37*
G36*
X210000Y163681D02*
X209047Y163556D01*
X208159Y163188D01*
X207397Y162603D01*
X206812Y161840D01*
X206444Y160953D01*
X206319Y160000D01*
X206444Y159047D01*
X206812Y158159D01*
X207397Y157397D01*
X208159Y156812D01*
X209047Y156444D01*
X210000Y156319D01*
X210953Y156444D01*
X211841Y156812D01*
X212603Y157397D01*
X213188Y158159D01*
X213556Y159047D01*
X213681Y160000D01*
X213556Y160953D01*
X213188Y161840D01*
X212603Y162603D01*
X211841Y163188D01*
X210953Y163556D01*
X210000Y163681D01*
D02*
G37*
G36*
X30000Y165043D02*
X28695Y164871D01*
X27478Y164367D01*
X26434Y163566D01*
X25633Y162522D01*
X25129Y161305D01*
X24957Y160000D01*
X25129Y158695D01*
X25633Y157478D01*
X26434Y156434D01*
X27478Y155632D01*
X28695Y155129D01*
X30000Y154957D01*
X31305Y155129D01*
X32522Y155632D01*
X33566Y156434D01*
X34367Y157478D01*
X34871Y158695D01*
X35043Y160000D01*
X34871Y161305D01*
X34367Y162522D01*
X33566Y163566D01*
X32522Y164367D01*
X31305Y164871D01*
X30000Y165043D01*
D02*
G37*
G36*
X94150Y158500D02*
X90500D01*
Y154850D01*
X94150D01*
Y158500D01*
D02*
G37*
G36*
X89500D02*
X85850D01*
Y154850D01*
X89500D01*
Y158500D01*
D02*
G37*
G36*
X60000Y158284D02*
X59150Y158172D01*
X58358Y157844D01*
X57678Y157322D01*
X57156Y156642D01*
X56828Y155850D01*
X56716Y155000D01*
X56828Y154150D01*
X57156Y153358D01*
X57678Y152678D01*
X58358Y152156D01*
X59150Y151828D01*
X60000Y151716D01*
X60850Y151828D01*
X61642Y152156D01*
X62322Y152678D01*
X62844Y153358D01*
X63172Y154150D01*
X63284Y155000D01*
X63172Y155850D01*
X62844Y156642D01*
X62322Y157322D01*
X61642Y157844D01*
X60850Y158172D01*
X60000Y158284D01*
D02*
G37*
G36*
X310000Y153681D02*
X309047Y153556D01*
X308159Y153188D01*
X307397Y152603D01*
X306812Y151840D01*
X306578Y151275D01*
X303422D01*
X303188Y151840D01*
X302603Y152603D01*
X301840Y153188D01*
X300953Y153556D01*
X300000Y153681D01*
X299047Y153556D01*
X298160Y153188D01*
X297397Y152603D01*
X296812Y151840D01*
X296444Y150953D01*
X296319Y150000D01*
X296444Y149047D01*
X296812Y148160D01*
X297397Y147397D01*
X298160Y146812D01*
X299047Y146444D01*
X300000Y146319D01*
X300953Y146444D01*
X301840Y146812D01*
X302603Y147397D01*
X303188Y148160D01*
X303422Y148725D01*
X306578D01*
X306812Y148160D01*
X307397Y147397D01*
X308159Y146812D01*
X309047Y146444D01*
X310000Y146319D01*
X310953Y146444D01*
X311841Y146812D01*
X312603Y147397D01*
X313188Y148160D01*
X313422Y148725D01*
X321472D01*
X322099Y148099D01*
X322512Y147822D01*
X323000Y147725D01*
X329430D01*
X329500Y147556D01*
X329959Y146959D01*
X330557Y146500D01*
X331253Y146212D01*
X332000Y146113D01*
X332747Y146212D01*
X332916Y146282D01*
X335099Y144099D01*
X335512Y143823D01*
X336000Y143726D01*
X361000D01*
X361488Y143823D01*
X361901Y144099D01*
X364632Y146829D01*
X365099Y146636D01*
X366000Y146518D01*
X366901Y146636D01*
X367741Y146984D01*
X368462Y147538D01*
X369016Y148259D01*
X369364Y149099D01*
X369482Y150000D01*
X369364Y150901D01*
X369016Y151741D01*
X368462Y152462D01*
X367741Y153016D01*
X366901Y153364D01*
X366000Y153482D01*
X365099Y153364D01*
X364259Y153016D01*
X363538Y152462D01*
X362984Y151741D01*
X362636Y150901D01*
X362517Y150000D01*
X362636Y149099D01*
X362829Y148632D01*
X360472Y146274D01*
X343971D01*
X343801Y146774D01*
X344041Y146959D01*
X344500Y147556D01*
X344789Y148253D01*
X344887Y149000D01*
X344789Y149747D01*
X344500Y150443D01*
X344041Y151041D01*
X343443Y151500D01*
X342747Y151788D01*
X342000Y151887D01*
X341253Y151788D01*
X340557Y151500D01*
X339959Y151041D01*
X339500Y150443D01*
X339212Y149747D01*
X339113Y149000D01*
X339212Y148253D01*
X339500Y147556D01*
X339959Y146959D01*
X340199Y146774D01*
X340029Y146274D01*
X336528D01*
X334718Y148084D01*
X334788Y148253D01*
X334887Y149000D01*
X334788Y149747D01*
X334500Y150443D01*
X334041Y151041D01*
X333443Y151500D01*
X332747Y151788D01*
X332000Y151887D01*
X331253Y151788D01*
X330557Y151500D01*
X329959Y151041D01*
X329500Y150443D01*
X329430Y150275D01*
X323528D01*
X322901Y150901D01*
X322488Y151178D01*
X322000Y151275D01*
X313422D01*
X313188Y151840D01*
X312603Y152603D01*
X311841Y153188D01*
X310953Y153556D01*
X310000Y153681D01*
D02*
G37*
G36*
X145000Y153284D02*
X144150Y153172D01*
X143358Y152844D01*
X142678Y152322D01*
X142156Y151642D01*
X141828Y150850D01*
X141716Y150000D01*
X141828Y149150D01*
X142156Y148358D01*
X142678Y147678D01*
X143358Y147156D01*
X144150Y146828D01*
X145000Y146716D01*
X145850Y146828D01*
X146642Y147156D01*
X147322Y147678D01*
X147844Y148358D01*
X148172Y149150D01*
X148284Y150000D01*
X148172Y150850D01*
X147844Y151642D01*
X147322Y152322D01*
X146642Y152844D01*
X145850Y153172D01*
X145000Y153284D01*
D02*
G37*
G36*
X310000Y143681D02*
X309047Y143556D01*
X308159Y143188D01*
X307397Y142603D01*
X306812Y141841D01*
X306578Y141274D01*
X303422D01*
X303188Y141841D01*
X302603Y142603D01*
X301840Y143188D01*
X300953Y143556D01*
X300000Y143681D01*
X299047Y143556D01*
X298160Y143188D01*
X297397Y142603D01*
X296812Y141841D01*
X296444Y140953D01*
X296319Y140000D01*
X296444Y139047D01*
X296812Y138160D01*
X297397Y137397D01*
X298160Y136812D01*
X299047Y136444D01*
X300000Y136319D01*
X300953Y136444D01*
X301840Y136812D01*
X302603Y137397D01*
X303188Y138160D01*
X303422Y138725D01*
X306578D01*
X306812Y138160D01*
X307397Y137397D01*
X308159Y136812D01*
X309047Y136444D01*
X310000Y136319D01*
X310953Y136444D01*
X311841Y136812D01*
X312603Y137397D01*
X313188Y138160D01*
X313556Y139047D01*
X313681Y140000D01*
X313556Y140953D01*
X313188Y141841D01*
X312603Y142603D01*
X311841Y143188D01*
X310953Y143556D01*
X310000Y143681D01*
D02*
G37*
G36*
X145000Y143284D02*
X144150Y143172D01*
X143358Y142844D01*
X142678Y142322D01*
X142156Y141642D01*
X141828Y140850D01*
X141716Y140000D01*
X141828Y139150D01*
X142156Y138358D01*
X142678Y137678D01*
X143358Y137156D01*
X144150Y136828D01*
X145000Y136716D01*
X145850Y136828D01*
X146642Y137156D01*
X147322Y137678D01*
X147844Y138358D01*
X148172Y139150D01*
X148284Y140000D01*
X148172Y140850D01*
X147844Y141642D01*
X147322Y142322D01*
X146642Y142844D01*
X145850Y143172D01*
X145000Y143284D01*
D02*
G37*
G36*
X214150Y134150D02*
X210500D01*
Y130500D01*
X214150D01*
Y134150D01*
D02*
G37*
G36*
X209500D02*
X205850D01*
Y130500D01*
X209500D01*
Y134150D01*
D02*
G37*
G36*
X110000Y162681D02*
X109047Y162556D01*
X108159Y162188D01*
X107397Y161603D01*
X106812Y160840D01*
X106444Y159953D01*
X106319Y159000D01*
X106444Y158047D01*
X106812Y157159D01*
X107397Y156397D01*
X107961Y155965D01*
Y132787D01*
X107537Y132463D01*
X106984Y131741D01*
X106636Y130901D01*
X106518Y130000D01*
X106636Y129099D01*
X106984Y128259D01*
X107537Y127538D01*
X108259Y126984D01*
X109099Y126636D01*
X110000Y126517D01*
X110901Y126636D01*
X111741Y126984D01*
X112462Y127538D01*
X113016Y128259D01*
X113364Y129099D01*
X113482Y130000D01*
X113364Y130901D01*
X113016Y131741D01*
X112462Y132463D01*
X112039Y132787D01*
Y155965D01*
X112603Y156397D01*
X113188Y157159D01*
X113556Y158047D01*
X113681Y159000D01*
X113556Y159953D01*
X113188Y160840D01*
X112603Y161603D01*
X111840Y162188D01*
X110953Y162556D01*
X110000Y162681D01*
D02*
G37*
G36*
X100000Y133483D02*
X99099Y133364D01*
X98259Y133016D01*
X97537Y132463D01*
X96984Y131741D01*
X96636Y130901D01*
X96517Y130000D01*
X96636Y129099D01*
X96984Y128259D01*
X97537Y127538D01*
X98259Y126984D01*
X99099Y126636D01*
X100000Y126517D01*
X100901Y126636D01*
X101741Y126984D01*
X102462Y127538D01*
X103016Y128259D01*
X103364Y129099D01*
X103482Y130000D01*
X103364Y130901D01*
X103016Y131741D01*
X102462Y132463D01*
X101741Y133016D01*
X100901Y133364D01*
X100000Y133483D01*
D02*
G37*
G36*
X30000Y225043D02*
X28695Y224871D01*
X27478Y224367D01*
X26434Y223566D01*
X25633Y222522D01*
X25129Y221305D01*
X24957Y220000D01*
X25129Y218695D01*
X25633Y217478D01*
X26434Y216434D01*
X27478Y215633D01*
X28695Y215129D01*
X30000Y214957D01*
X31305Y215129D01*
X31788Y215329D01*
X41961Y205155D01*
Y181000D01*
X42116Y180220D01*
X42558Y179558D01*
X53558Y168558D01*
X54220Y168116D01*
X55000Y167961D01*
X94155D01*
X97961Y164155D01*
Y162036D01*
X97397Y161603D01*
X96812Y160840D01*
X96444Y159953D01*
X96319Y159000D01*
X96444Y158047D01*
X96812Y157159D01*
X97397Y156397D01*
X97961Y155965D01*
Y152845D01*
X88558Y143442D01*
X88116Y142780D01*
X87961Y142000D01*
Y132787D01*
X87537Y132463D01*
X86984Y131741D01*
X86636Y130901D01*
X86518Y130000D01*
X86636Y129099D01*
X86984Y128259D01*
X87537Y127538D01*
X88259Y126984D01*
X89099Y126636D01*
X90000Y126517D01*
X90901Y126636D01*
X91741Y126984D01*
X92462Y127538D01*
X93016Y128259D01*
X93364Y129099D01*
X93483Y130000D01*
X93364Y130901D01*
X93016Y131741D01*
X92462Y132463D01*
X92039Y132787D01*
Y141155D01*
X101442Y150558D01*
X101442Y150558D01*
X101884Y151220D01*
X102039Y152000D01*
X102039Y152000D01*
Y155965D01*
X102603Y156397D01*
X103188Y157159D01*
X103556Y158047D01*
X103681Y159000D01*
X103556Y159953D01*
X103188Y160840D01*
X102603Y161603D01*
X102039Y162036D01*
Y165000D01*
X101884Y165780D01*
X101442Y166442D01*
X96442Y171442D01*
X95780Y171884D01*
X95000Y172039D01*
X55845D01*
X46039Y181845D01*
Y206000D01*
X45884Y206780D01*
X45442Y207442D01*
X34672Y218212D01*
X34871Y218695D01*
X35043Y220000D01*
X34871Y221305D01*
X34367Y222522D01*
X33566Y223566D01*
X32522Y224367D01*
X31305Y224871D01*
X30000Y225043D01*
D02*
G37*
G36*
X214150Y129500D02*
X210500D01*
Y125850D01*
X214150D01*
Y129500D01*
D02*
G37*
G36*
X209500D02*
X205850D01*
Y125850D01*
X209500D01*
Y129500D01*
D02*
G37*
G36*
X380000Y136832D02*
X378667Y136701D01*
X377385Y136312D01*
X376204Y135681D01*
X375169Y134831D01*
X374319Y133796D01*
X373688Y132615D01*
X373299Y131333D01*
X373168Y130000D01*
X373299Y128667D01*
X373688Y127385D01*
X374319Y126204D01*
X375169Y125169D01*
X376204Y124319D01*
X377385Y123688D01*
X378667Y123299D01*
X380000Y123168D01*
X381333Y123299D01*
X382614Y123688D01*
X383796Y124319D01*
X384831Y125169D01*
X385681Y126204D01*
X386312Y127385D01*
X386701Y128667D01*
X386832Y130000D01*
X386701Y131333D01*
X386312Y132615D01*
X385681Y133796D01*
X384831Y134831D01*
X383796Y135681D01*
X382614Y136312D01*
X381333Y136701D01*
X380000Y136832D01*
D02*
G37*
G36*
X20000D02*
X18667Y136701D01*
X17386Y136312D01*
X16204Y135681D01*
X15169Y134831D01*
X14319Y133796D01*
X13688Y132615D01*
X13299Y131333D01*
X13168Y130000D01*
X13299Y128667D01*
X13688Y127385D01*
X14319Y126204D01*
X15169Y125169D01*
X16204Y124319D01*
X17386Y123688D01*
X18667Y123299D01*
X20000Y123168D01*
X21333Y123299D01*
X22614Y123688D01*
X23796Y124319D01*
X24831Y125169D01*
X25681Y126204D01*
X26312Y127385D01*
X26701Y128667D01*
X26832Y130000D01*
X26701Y131333D01*
X26312Y132615D01*
X25681Y133796D01*
X24831Y134831D01*
X23796Y135681D01*
X22614Y136312D01*
X21333Y136701D01*
X20000Y136832D01*
D02*
G37*
%LPD*%
D12*
X310000Y190000D02*
X366000D01*
X310000Y200000D02*
X366000D01*
X310000Y210000D02*
X366000D01*
X361000Y145000D02*
X366000Y150000D01*
X336000Y145000D02*
X361000D01*
X332000Y149000D02*
X336000Y145000D01*
X323000Y149000D02*
X332000D01*
X322000Y150000D02*
X323000Y149000D01*
X310000Y150000D02*
X322000D01*
X324000Y161000D02*
X332000D01*
X323000Y160000D02*
X324000Y161000D01*
X310000Y160000D02*
X323000D01*
X360000D02*
X366000D01*
X356000Y156000D02*
X360000Y160000D01*
X337000Y156000D02*
X356000D01*
X332000Y161000D02*
X337000Y156000D01*
X361000Y170000D02*
X366000D01*
X359000Y168000D02*
X361000Y170000D01*
X337000Y168000D02*
X359000D01*
X332000Y173000D02*
X337000Y168000D01*
X329000Y170000D02*
X332000Y173000D01*
X310000Y170000D02*
X329000D01*
X337000Y180000D02*
X366000D01*
X332000Y185000D02*
X337000Y180000D01*
X327000D02*
X332000Y185000D01*
X310000Y180000D02*
X327000D01*
X140000Y285000D02*
X170000D01*
X188000Y192000D02*
Y245000D01*
X178000Y255000D02*
X188000Y245000D01*
X170000Y255000D02*
X178000D01*
X200000Y180000D02*
X210000D01*
X188000Y192000D02*
X200000Y180000D01*
Y220000D02*
X210000D01*
X197000Y223000D02*
X200000Y220000D01*
X197000Y223000D02*
Y290500D01*
X182500Y305000D02*
X197000Y290500D01*
X180000Y300000D02*
X194000Y286000D01*
Y216000D02*
Y286000D01*
Y216000D02*
X200000Y210000D01*
X177500Y290000D02*
X191000Y276500D01*
Y209000D02*
Y276500D01*
Y209000D02*
X200000Y200000D01*
X210000D01*
X135000Y290000D02*
X177500D01*
X120000Y305000D02*
X135000Y290000D01*
X110000Y305000D02*
X120000D01*
X200000Y210000D02*
X210000D01*
X155000Y300000D02*
X180000D01*
X150000Y305000D02*
X155000Y300000D01*
X140000Y305000D02*
X150000D01*
X170000D02*
X182500D01*
X180000Y145000D02*
Y215000D01*
X175000Y220000D02*
X180000Y215000D01*
X170000Y220000D02*
X175000D01*
X185000Y150000D02*
Y222500D01*
X177500Y230000D02*
X185000Y222500D01*
X170000Y230000D02*
X177500D01*
X180000Y145000D02*
X185000Y140000D01*
X140000Y220000D02*
X170000D01*
X140000Y230000D02*
X170000D01*
X185000Y140000D02*
X210000D01*
X185000Y150000D02*
X210000D01*
X140000Y255000D02*
X170000D01*
X110000D02*
X140000D01*
X80000D02*
X110000D01*
X50000D02*
X80000D01*
X20000D02*
X50000D01*
X140000Y265000D02*
X170000D01*
X110000D02*
X140000D01*
X80000D02*
X110000D01*
X50000D02*
X80000D01*
X20000D02*
X50000D01*
X140000Y275000D02*
X170000D01*
X110000D02*
X140000D01*
X80000D02*
X110000D01*
X50000D02*
X80000D01*
X20000D02*
X50000D01*
X110000Y285000D02*
X140000D01*
X80000D02*
X110000D01*
X50000D02*
X80000D01*
X20000D02*
X50000D01*
X300000Y130000D02*
X310000D01*
X300000Y140000D02*
X310000D01*
X300000Y150000D02*
X310000D01*
X300000Y160000D02*
X310000D01*
X300000Y170000D02*
X310000D01*
X300000Y180000D02*
X310000D01*
X300000Y190000D02*
X310000D01*
X300000Y200000D02*
X310000D01*
X300000Y210000D02*
X310000D01*
X300000Y220000D02*
X310000D01*
X300000Y230000D02*
X310000D01*
X300000Y240000D02*
X310000D01*
X300000Y250000D02*
X310000D01*
X300000Y260000D02*
X310000D01*
X300000Y270000D02*
X310000D01*
X300000Y280000D02*
X310000D01*
X300000Y290000D02*
X310000D01*
X300000Y300000D02*
X310000D01*
X300000Y310000D02*
X310000D01*
D29*
X267843Y228000D02*
Y262158D01*
Y155157D02*
Y228000D01*
X213000Y317000D02*
X267843Y262158D01*
Y155157D02*
X293000Y130000D01*
X44000Y181000D02*
Y206000D01*
X30000Y220000D02*
X44000Y206000D01*
Y181000D02*
X55000Y170000D01*
X95000D01*
X170000Y315000D02*
X204000D01*
X206000Y317000D01*
X213000D01*
X293000Y130000D02*
X300000D01*
X147000Y210000D02*
X155000Y202000D01*
Y117500D02*
Y202000D01*
X140000Y210000D02*
X147000D01*
X163000D02*
X170000D01*
X155000Y202000D02*
X163000Y210000D01*
X140000Y315000D02*
X170000D01*
X110000D02*
X140000D01*
X80000D02*
X110000D01*
X50000D02*
X80000D01*
X20000D02*
X50000D01*
X100000Y159000D02*
Y165000D01*
X95000Y170000D02*
X100000Y165000D01*
Y152000D02*
Y159000D01*
X90000Y142000D02*
X100000Y152000D01*
X90000Y130000D02*
Y142000D01*
X110000Y130000D02*
Y159000D01*
D30*
X248158Y228000D02*
D03*
D31*
X267843Y228000D02*
D03*
D32*
X332000Y149000D02*
D03*
X342000D02*
D03*
X332000Y161000D02*
D03*
X342000D02*
D03*
X332000Y185000D02*
D03*
X342000D02*
D03*
X332000Y173000D02*
D03*
X342000D02*
D03*
X360000Y230000D02*
D03*
X350000D02*
D03*
X360000Y245000D02*
D03*
X350000D02*
D03*
X360000Y260000D02*
D03*
X350000D02*
D03*
D33*
X366000Y190000D02*
D03*
Y200000D02*
D03*
Y180000D02*
D03*
Y170000D02*
D03*
Y160000D02*
D03*
Y150000D02*
D03*
X336000Y255000D02*
D03*
Y245000D02*
D03*
Y235000D02*
D03*
X340000Y285000D02*
D03*
X350000D02*
D03*
X20000Y295000D02*
D03*
Y305000D02*
D03*
Y285000D02*
D03*
Y275000D02*
D03*
Y265000D02*
D03*
Y255000D02*
D03*
X50000Y295000D02*
D03*
Y305000D02*
D03*
Y285000D02*
D03*
Y275000D02*
D03*
Y265000D02*
D03*
Y255000D02*
D03*
X80000Y295000D02*
D03*
Y305000D02*
D03*
Y285000D02*
D03*
Y275000D02*
D03*
Y265000D02*
D03*
Y255000D02*
D03*
X110000Y295000D02*
D03*
Y305000D02*
D03*
Y285000D02*
D03*
Y275000D02*
D03*
Y265000D02*
D03*
Y255000D02*
D03*
X140000Y295000D02*
D03*
Y305000D02*
D03*
Y285000D02*
D03*
Y275000D02*
D03*
Y265000D02*
D03*
Y255000D02*
D03*
X170000Y295000D02*
D03*
Y305000D02*
D03*
Y285000D02*
D03*
Y275000D02*
D03*
Y265000D02*
D03*
Y255000D02*
D03*
Y165000D02*
D03*
Y200000D02*
D03*
Y210000D02*
D03*
Y220000D02*
D03*
X90000Y130000D02*
D03*
X100000D02*
D03*
X110000D02*
D03*
X140000Y200000D02*
D03*
Y210000D02*
D03*
Y220000D02*
D03*
D34*
X366000Y210000D02*
D03*
X20000Y315000D02*
D03*
X50000D02*
D03*
X80000D02*
D03*
X110000D02*
D03*
X140000D02*
D03*
X170000D02*
D03*
Y175000D02*
D03*
Y230000D02*
D03*
X140000D02*
D03*
D35*
X360000Y285000D02*
D03*
D36*
X380000Y240000D02*
D03*
X20000D02*
D03*
X380000Y300000D02*
D03*
Y130000D02*
D03*
X20000D02*
D03*
D37*
X340000Y320000D02*
D03*
X360000D02*
D03*
X30000Y160000D02*
D03*
Y180000D02*
D03*
Y200000D02*
D03*
Y220000D02*
D03*
D38*
X145000Y150000D02*
D03*
X185000D02*
D03*
X145000Y140000D02*
D03*
X185000D02*
D03*
X60000Y195000D02*
D03*
Y155000D02*
D03*
X120000Y185000D02*
D03*
X80000D02*
D03*
D39*
X110000Y159000D02*
D03*
X100000D02*
D03*
D40*
X90000D02*
D03*
D41*
X210000Y310000D02*
D03*
Y300000D02*
D03*
Y250000D02*
D03*
Y240000D02*
D03*
Y230000D02*
D03*
Y220000D02*
D03*
Y210000D02*
D03*
Y200000D02*
D03*
Y180000D02*
D03*
Y170000D02*
D03*
Y160000D02*
D03*
Y150000D02*
D03*
Y140000D02*
D03*
X300000Y130000D02*
D03*
Y140000D02*
D03*
Y150000D02*
D03*
Y160000D02*
D03*
Y170000D02*
D03*
Y180000D02*
D03*
Y190000D02*
D03*
Y200000D02*
D03*
Y210000D02*
D03*
Y220000D02*
D03*
Y230000D02*
D03*
Y240000D02*
D03*
Y250000D02*
D03*
Y270000D02*
D03*
Y280000D02*
D03*
Y290000D02*
D03*
Y300000D02*
D03*
Y310000D02*
D03*
X210000Y290000D02*
D03*
Y280000D02*
D03*
Y270000D02*
D03*
Y260000D02*
D03*
X310000Y130000D02*
D03*
Y140000D02*
D03*
Y150000D02*
D03*
Y160000D02*
D03*
Y170000D02*
D03*
Y180000D02*
D03*
Y190000D02*
D03*
Y200000D02*
D03*
Y210000D02*
D03*
Y220000D02*
D03*
Y230000D02*
D03*
Y240000D02*
D03*
Y250000D02*
D03*
Y270000D02*
D03*
Y280000D02*
D03*
Y290000D02*
D03*
Y300000D02*
D03*
Y310000D02*
D03*
D42*
X210000Y190000D02*
D03*
Y130000D02*
D03*
X300000Y260000D02*
D03*
X310000D02*
D03*
D43*
X70000Y200000D02*
D03*
X60000Y210000D02*
D03*
X50000D02*
D03*
Y220000D02*
D03*
X70000Y210000D02*
D03*
Y220000D02*
D03*
X60000D02*
D03*
X50000Y230000D02*
D03*
X60000D02*
D03*
X70000D02*
D03*
X80000D02*
D03*
Y220000D02*
D03*
Y210000D02*
D03*
Y200000D02*
D03*
X90000D02*
D03*
Y210000D02*
D03*
Y220000D02*
D03*
Y230000D02*
D03*
X100000D02*
D03*
Y220000D02*
D03*
Y210000D02*
D03*
Y200000D02*
D03*
X110000D02*
D03*
Y210000D02*
D03*
Y220000D02*
D03*
Y230000D02*
D03*
X120000Y200000D02*
D03*
Y210000D02*
D03*
Y220000D02*
D03*
Y230000D02*
D03*
Y240000D02*
D03*
X110000D02*
D03*
X100000D02*
D03*
X90000D02*
D03*
X80000D02*
D03*
X70000D02*
D03*
X60000D02*
D03*
X50000D02*
D03*
D44*
X155000Y117500D02*
D03*
M02*
