M48
;Layer_Color=9474304
;FILE_FORMAT=2:5
INCH,LZ
;TYPE=PLATED
T1F00S00C0.01181
T2F00S00C0.01575
T3F00S00C0.02756
T4F00S00C0.03150
T5F00S00C0.03346
T6F00S00C0.03543
T7F00S00C0.03937
T8F00S00C0.04800
T9F00S00C0.12598
%
T01
X001Y012
X003
X004Y014
X0045Y015
X0055
X0065
X0075
X007Y014
X011
X012
X0125Y015
X0115
X0035
X0025
X0015
X001Y014
X016
X017
X0175Y013
X0165
X0195
X0225
X0235
X0245
X0255
X0265
X0275
X027Y014
X026
X025
X024
X0245Y015
X0255
X0265
X0235
X022Y014
X0185Y015
X0325Y013
X034Y014
X035
X037
X0375Y015
X0365Y013
X037Y012
X036
X035Y016
X0375Y017
Y019
Y021
X038Y022
X037
Y026
X038
X0385Y027
X0375
X0365
X0355
X0345
X0335
X0325
X033Y028
X032
X0325Y029
X0335
X0345
X035Y03
X034
X033
X032
Y026
X033
X034
X0345Y025
X0355
X034Y024
X033
X032
X0325Y025
Y023
X037Y028
X038
X0365Y031
X0285
X0275
X0265
X0255
X026Y03
X027
X028
X029
X0285Y029
X0275
X028Y028
X029
Y024
X028
X0275Y025
Y023
X0255
X026Y024
X025
X024
X023
X022
Y026
X024
X025
X026
X0255Y025
X0245
X0235
Y023
X024Y022
X025
X026
X0255Y021
X0245
X0235
X024Y02
X025
X0245Y019
X0235
X023Y02
X022
Y022
X023
X0195Y021
Y019
X019Y018
Y016
X022
X024
X025
X026
X0255Y017
X0245
X025Y018
X026
X028
X029
Y02
X028
X0275Y019
Y017
X028Y016
X029Y022
X024Y028
X022
Y03
X02
X019
X0195Y031
X0185
Y029
X018Y028
X0175Y027
X0165
X016Y028
Y026
X0165Y025
X0175
X018Y024
X017
X016
Y02
X0165Y019
X0175
X022Y018
X0155Y019
X0145
X0135
X013Y02
X015
X0155Y021
X015Y024
X014
X0145Y025
X0135
X013Y026
X012
X0115Y027
X0105
X0095
X0085
X0075
Y029
X0085
X0095
X0105
X0115
X012Y03
X013
X015
Y028
X0145Y027
X0135
X013Y028
X012
X0115Y025
X0105
X0095
X0085
X0075
X008Y024
X011
X015Y026
X006
X0055Y027
X0045
X004Y028
X003
X0025Y029
X0015
X001Y03
X003
X004
X0045Y029
X0055
X006Y03
Y028
X0055Y025
X0045
X005Y024
X004
X0035Y023
X004Y022
X002
X0025Y021
X0015
X002Y02
X0025Y019
X0035
X0055
X0045Y017
X0035
X0025
X0015
X002Y018
X0015Y019
X002Y016
X0075Y017
X0085
X0095
X0105
X0115
X012Y016
X011
X01
X015
X013Y018
X004Y026
X003
X0025Y027
X0015
X001Y028
Y026
Y032
X0015Y033
X0025
X0035
X003Y032
X006
X024
X025
X026
X027
X028
X029
X031
X0305Y033
X0275
X0265
X0315
X0325
X0335
X0345
X0355
X0365
X0375
X0385
X038Y032
X037
X035
X033
X032
T02
X0155Y01175
T03
X0332Y0149
X0342
Y0161
X0332
Y0173
X0342
Y0185
X0332
X035Y0233
X036
Y0245
X035
Y0257
X036
T04
X0083Y0128
X0093
X0103
X0336Y0235
Y0245
Y0255
X0267843Y0228
X0248158Y0228
X024Y033
X023
T05
X006Y0155
X0123Y0128
X0145Y013
Y014
X0185
Y013
X0123Y0168
X006Y0195
X025Y033
X029
T06
X016Y0155
X017
X0366Y015
Y016
Y017
Y018
Y019
Y02
Y021
X036Y0285
X035
X034
X017
Y0295
Y0305
Y0275
Y0265
Y0255
Y0205
Y0195
Y0185
Y0175
X014
Y0185
Y0195
Y0205
X012Y023
X011
X01
X009
X008
X007
X008Y0255
Y0265
Y0275
Y0285
Y0295
Y0305
X005
Y0295
Y0285
Y0275
Y0265
Y0255
X002
Y0265
Y0275
Y0285
Y0295
Y0305
X011
Y0295
Y0285
Y0275
Y0265
Y0255
X014
Y0265
Y0275
Y0285
Y0295
Y0305
Y0315
X011
X008
X005
X002
X017
T07
X0083Y0153
X0093
X0103
X021Y015
Y014
Y013
X03
Y014
Y015
X031
Y014
Y013
Y016
X03
Y017
Y018
Y019
Y02
Y021
Y022
Y023
Y024
Y025
Y026
Y027
Y028
Y029
Y03
Y031
X031
Y03
Y029
Y028
Y027
Y026
Y025
Y024
Y023
Y022
Y021
Y02
Y019
Y018
Y017
X021
Y018
Y019
Y02
Y021
Y022
Y023
Y024
Y025
Y026
Y027
Y028
Y029
Y03
Y031
X018Y023
X017
Y022
X018
X016
Y023
X021Y016
X012Y018
X011
X01
X009
X008
X007
Y019
X008
X009
X01
X011
X012
Y02
X011
X01
X009
X008
X007
Y021
X006
X005
Y022
Y023
X006
Y022
X007
X008
X009
X01
X011
X012
X013
X014
X015
Y023
X014
X013
X012Y021
X011
X01
X009
X008
T08
X003Y016
Y018
Y02
Y022
X034Y032
X036
T09
X002Y013
X038
Y024
Y03
X002Y024
M30
