G04*
G04 #@! TF.GenerationSoftware,Altium Limited,Altium Designer,18.0.7 (293)*
G04*
G04 Layer_Color=65535*
%FSLAX25Y25*%
%MOIN*%
G70*
G01*
G75*
%ADD10C,0.01000*%
%ADD11C,0.00787*%
%ADD12C,0.00000*%
%ADD13C,0.01500*%
%ADD14C,0.00600*%
D10*
X240552Y334368D02*
G03*
X228959Y336049I-6552J-4368D01*
G01*
Y323951D02*
G03*
X240552Y325632I5041J6049D01*
G01*
X229000Y334500D02*
Y336000D01*
X228959Y323951D02*
Y325500D01*
X51000Y165000D02*
X54000D01*
X51000Y151000D02*
Y165000D01*
X130000Y139000D02*
X133000D01*
X130000Y123000D02*
X133000D01*
X130000Y129000D02*
X133000D01*
X130000Y123000D02*
Y139000D01*
D11*
X83437Y123697D02*
G03*
X102477Y123511I9563J4303D01*
G01*
X250839Y224726D02*
G03*
X264640Y223768I7161J3274D01*
G01*
Y232232D02*
G03*
X250839Y231274I-6640J-4232D01*
G01*
X331697Y254563D02*
G03*
X331511Y235523I4303J-9563D01*
G01*
X282000Y326000D02*
Y334000D01*
X258000Y326000D02*
X282000D01*
X258000D02*
Y334000D01*
X282000D01*
Y330000D02*
X286000D01*
X254000D02*
X258000D01*
X65000Y225000D02*
Y235000D01*
X125000Y225000D02*
Y235000D01*
X65000Y225000D02*
X125000D01*
X65000Y235000D02*
X125000D01*
X135000Y170000D02*
X145000D01*
X135000D02*
Y210000D01*
X145000Y170000D02*
Y210000D01*
X135000D02*
X145000D01*
X165000Y170000D02*
X175000D01*
X165000D02*
Y210000D01*
X175000Y170000D02*
Y210000D01*
X165000D02*
X175000D01*
X84910Y133000D02*
X100500D01*
X71937Y159890D02*
X114063D01*
X71937Y161858D02*
X114063D01*
X71937Y142961D02*
X114063D01*
X71937D02*
Y161858D01*
X114063Y142961D02*
Y161858D01*
X327000Y154000D02*
X347000D01*
X327000Y144000D02*
Y154000D01*
Y144000D02*
X347000D01*
Y154000D01*
X327000Y166000D02*
X347000D01*
X327000Y156000D02*
Y166000D01*
Y156000D02*
X347000D01*
Y166000D01*
X327000Y190000D02*
X347000D01*
X327000Y180000D02*
Y190000D01*
Y180000D02*
X347000D01*
Y190000D01*
X327000Y178000D02*
X347000D01*
X327000Y168000D02*
Y178000D01*
Y168000D02*
X347000D01*
Y178000D01*
X361000Y145000D02*
X371000D01*
X361000D02*
Y215000D01*
X371000D01*
Y145000D02*
Y215000D01*
X341000Y237500D02*
Y253090D01*
X365000Y280000D02*
Y290000D01*
X335000Y280000D02*
X365000D01*
X335000D02*
Y290000D01*
X365000D01*
X332500Y312500D02*
Y327500D01*
X367500D01*
Y312500D02*
Y327500D01*
X332500Y312500D02*
X367500D01*
X15000Y250000D02*
X25000D01*
X15000D02*
Y320000D01*
X25000D01*
Y250000D02*
Y320000D01*
X45000Y250000D02*
X55000D01*
X45000D02*
Y320000D01*
X55000D01*
Y250000D02*
Y320000D01*
X75000Y250000D02*
X85000D01*
X75000D02*
Y320000D01*
X85000D01*
Y250000D02*
Y320000D01*
X105000Y250000D02*
X115000D01*
X105000D02*
Y320000D01*
X115000D01*
Y250000D02*
Y320000D01*
X135000Y250000D02*
X145000D01*
X135000D02*
Y320000D01*
X145000D01*
Y250000D02*
Y320000D01*
X165000Y250000D02*
X175000D01*
X165000D02*
Y320000D01*
X175000D01*
Y250000D02*
Y320000D01*
X155000Y150000D02*
X175000D01*
Y160000D01*
X155000D02*
X175000D01*
X155000Y150000D02*
Y160000D01*
X149000Y140000D02*
X153000D01*
X177000D02*
X181000D01*
X153000Y144000D02*
X177000D01*
X153000Y136000D02*
Y144000D01*
Y136000D02*
X177000D01*
Y144000D01*
X149000Y130000D02*
X153000D01*
X177000D02*
X181000D01*
X153000Y134000D02*
X177000D01*
X153000Y126000D02*
Y134000D01*
Y126000D02*
X177000D01*
Y134000D01*
X60000Y187000D02*
Y191000D01*
Y159000D02*
Y163000D01*
X64000D02*
Y187000D01*
X56000D02*
X64000D01*
X56000Y163000D02*
Y187000D01*
Y163000D02*
X64000D01*
X123000Y160000D02*
Y164000D01*
Y132000D02*
Y136000D01*
X127000D02*
Y160000D01*
X119000D02*
X127000D01*
X119000Y136000D02*
Y160000D01*
Y136000D02*
X127000D01*
X22500Y152500D02*
Y187500D01*
Y152500D02*
X37500D01*
Y187500D01*
X22500D02*
X37500D01*
X22500Y192500D02*
Y227500D01*
Y192500D02*
X37500D01*
Y227500D01*
X22500D02*
X37500D01*
X365000Y228000D02*
Y238000D01*
X345000Y228000D02*
X365000D01*
X345000D02*
Y238000D01*
X365000D01*
Y240000D02*
Y250000D01*
X345000Y240000D02*
X365000D01*
X345000D02*
Y250000D01*
X365000D01*
Y252000D02*
Y262000D01*
X345000Y252000D02*
X365000D01*
X345000D02*
Y262000D01*
X365000D01*
D12*
X60000Y147000D02*
Y151000D01*
D13*
X285000Y125000D02*
Y150000D01*
X225000Y125000D02*
Y155000D01*
Y125000D02*
X235000D01*
Y155000D01*
Y125000D02*
X245000D01*
Y135000D01*
X255000D01*
Y125000D02*
Y135000D01*
Y125000D02*
X265000D01*
Y135000D01*
X275000D01*
Y125000D02*
Y135000D01*
Y125000D02*
X285000D01*
D14*
X275000Y300000D02*
Y320000D01*
X245000Y300000D02*
X275000D01*
X245000D02*
Y320000D01*
X200000Y120000D02*
Y320000D01*
X320000D01*
X320000Y120000D01*
X200000D02*
X320000D01*
X152733Y176267D02*
X152200Y176800D01*
X151133D01*
X150600Y176267D01*
Y174133D01*
X151133Y173600D01*
X152200D01*
X152733Y174133D01*
Y175200D01*
X151667D01*
X153800Y173600D02*
Y176800D01*
X155933Y173600D01*
Y176800D01*
X157000D02*
Y173600D01*
X158599D01*
X159133Y174133D01*
Y176267D01*
X158599Y176800D01*
X157000D01*
X124400Y145200D02*
X121200D01*
X122800Y143600D01*
Y145733D01*
X121200Y146800D02*
Y148933D01*
X121733D01*
X123867Y146800D01*
X124400D01*
X121733Y149999D02*
X121200Y150533D01*
Y151599D01*
X121733Y152133D01*
X123867D01*
X124400Y151599D01*
Y150533D01*
X123867Y149999D01*
X121733D01*
X375600Y178600D02*
Y181800D01*
X377200D01*
X377733Y181266D01*
Y180200D01*
X377200Y179667D01*
X375600D01*
X376667D02*
X377733Y178600D01*
X380400Y181800D02*
X379333D01*
X378800Y181266D01*
Y179133D01*
X379333Y178600D01*
X380400D01*
X380933Y179133D01*
Y181266D01*
X380400Y181800D01*
X381999D02*
Y178600D01*
X383066Y179667D01*
X384133Y178600D01*
Y181800D01*
X385199Y178600D02*
X386266D01*
X385733D01*
Y181800D01*
X385199Y181266D01*
X327600Y246800D02*
Y243600D01*
X329200D01*
X329733Y244133D01*
Y244667D01*
X329200Y245200D01*
X327600D01*
X329200D01*
X329733Y245733D01*
Y246267D01*
X329200Y246800D01*
X327600D01*
X4600Y201800D02*
Y198600D01*
X6733D01*
X9400Y201800D02*
X8333D01*
X7800Y201267D01*
Y199133D01*
X8333Y198600D01*
X9400D01*
X9933Y199133D01*
Y201267D01*
X9400Y201800D01*
X11000Y198600D02*
Y200733D01*
X12066Y201800D01*
X13133Y200733D01*
Y198600D01*
Y200200D01*
X11000D01*
X14199Y201800D02*
Y198600D01*
X15799D01*
X16332Y199133D01*
Y201267D01*
X15799Y201800D01*
X14199D01*
X17399Y200200D02*
X19532D01*
X18466Y201267D02*
Y199133D01*
X45200Y149426D02*
X44133D01*
X43600Y148892D01*
Y146759D01*
X44133Y146226D01*
X45200D01*
X45733Y146759D01*
Y148892D01*
X45200Y149426D01*
X46800Y145159D02*
Y148359D01*
X48400D01*
X48933Y147826D01*
Y146759D01*
X48400Y146226D01*
X46800D01*
X50533Y148892D02*
Y148359D01*
X49999D01*
X51066D01*
X50533D01*
Y146759D01*
X51066Y146226D01*
X52666D02*
X53733D01*
X53199D01*
Y148359D01*
X52666D01*
X55866Y146226D02*
X56932D01*
X57466Y146759D01*
Y147826D01*
X56932Y148359D01*
X55866D01*
X55332Y147826D01*
Y146759D01*
X55866Y146226D01*
X58532D02*
Y148359D01*
X60132D01*
X60665Y147826D01*
Y146226D01*
X62265Y148359D02*
X63332D01*
X63865Y147826D01*
Y146226D01*
X62265D01*
X61732Y146759D01*
X62265Y147293D01*
X63865D01*
X64932Y146226D02*
X65998D01*
X65465D01*
Y149426D01*
X64932D01*
X43600Y143079D02*
Y139880D01*
X45733D01*
X47333D02*
X48400D01*
X48933Y140413D01*
Y141480D01*
X48400Y142013D01*
X47333D01*
X46800Y141480D01*
Y140413D01*
X47333Y139880D01*
X50533Y142013D02*
X51599D01*
X52133Y141480D01*
Y139880D01*
X50533D01*
X49999Y140413D01*
X50533Y140946D01*
X52133D01*
X55332Y143079D02*
Y139880D01*
X53733D01*
X53199Y140413D01*
Y141480D01*
X53733Y142013D01*
X55332D01*
X43600Y134600D02*
Y137800D01*
X45200D01*
X45733Y137267D01*
Y136200D01*
X45200Y135667D01*
X43600D01*
X44667D02*
X45733Y134600D01*
X48400D02*
X47333D01*
X46800Y135133D01*
Y136200D01*
X47333Y136733D01*
X48400D01*
X48933Y136200D01*
Y135667D01*
X46800D01*
X49999Y134600D02*
X51599D01*
X52133Y135133D01*
X51599Y135667D01*
X50533D01*
X49999Y136200D01*
X50533Y136733D01*
X52133D01*
X53199Y134600D02*
X54266D01*
X53733D01*
Y136733D01*
X53199D01*
X55866Y134600D02*
X57466D01*
X57999Y135133D01*
X57466Y135667D01*
X56399D01*
X55866Y136200D01*
X56399Y136733D01*
X57999D01*
X59599Y137267D02*
Y136733D01*
X59066D01*
X60132D01*
X59599D01*
Y135133D01*
X60132Y134600D01*
X62265D02*
X63332D01*
X63865Y135133D01*
Y136200D01*
X63332Y136733D01*
X62265D01*
X61732Y136200D01*
Y135133D01*
X62265Y134600D01*
X64932Y136733D02*
Y134600D01*
Y135667D01*
X65465Y136200D01*
X65998Y136733D01*
X66532D01*
X28600Y313600D02*
Y316800D01*
X30200D01*
X30733Y316266D01*
Y315200D01*
X30200Y314667D01*
X28600D01*
X29667D02*
X30733Y313600D01*
X33933Y316266D02*
X33400Y316800D01*
X32333D01*
X31800Y316266D01*
Y315733D01*
X32333Y315200D01*
X33400D01*
X33933Y314667D01*
Y314133D01*
X33400Y313600D01*
X32333D01*
X31800Y314133D01*
X34999Y316800D02*
X37133D01*
X36066D01*
Y313600D01*
X40332Y316800D02*
X39266Y316266D01*
X38199Y315200D01*
Y314133D01*
X38733Y313600D01*
X39799D01*
X40332Y314133D01*
Y314667D01*
X39799Y315200D01*
X38199D01*
X356600Y221866D02*
Y218667D01*
Y219733D01*
X358733Y221866D01*
X357133Y220267D01*
X358733Y218667D01*
X361400D02*
X360333D01*
X359800Y219200D01*
Y220267D01*
X360333Y220800D01*
X361400D01*
X361933Y220267D01*
Y219733D01*
X359800D01*
X363000Y220800D02*
Y219200D01*
X363533Y218667D01*
X365133D01*
Y218133D01*
X364599Y217600D01*
X364066D01*
X365133Y218667D02*
Y220800D01*
X366199Y217600D02*
Y220800D01*
X367799D01*
X368333Y220267D01*
Y219200D01*
X367799Y218667D01*
X366199D01*
X369932Y220800D02*
X370999D01*
X371532Y220267D01*
Y218667D01*
X369932D01*
X369399Y219200D01*
X369932Y219733D01*
X371532D01*
X374732Y221866D02*
Y218667D01*
X373132D01*
X372599Y219200D01*
Y220267D01*
X373132Y220800D01*
X374732D01*
X103733Y138800D02*
X101600D01*
Y135600D01*
X103733D01*
X101600Y137200D02*
X102667D01*
X359733Y297800D02*
X357600D01*
Y296200D01*
X358667Y296733D01*
X359200D01*
X359733Y296200D01*
Y295133D01*
X359200Y294600D01*
X358133D01*
X357600Y295133D01*
X360800Y297800D02*
Y295667D01*
X361866Y294600D01*
X362933Y295667D01*
Y297800D01*
X5600Y161800D02*
Y159667D01*
X6667Y158600D01*
X7733Y159667D01*
Y161800D01*
X8800D02*
Y158600D01*
X10933D01*
X13599Y161800D02*
X12533D01*
X11999Y161267D01*
Y159133D01*
X12533Y158600D01*
X13599D01*
X14133Y159133D01*
Y161267D01*
X13599Y161800D01*
X15199Y158600D02*
Y160733D01*
X16266Y161800D01*
X17333Y160733D01*
Y158600D01*
Y160200D01*
X15199D01*
X18399Y161800D02*
Y158600D01*
X19999D01*
X20532Y159133D01*
Y161267D01*
X19999Y161800D01*
X18399D01*
X375600Y148600D02*
Y151800D01*
X377200D01*
X377733Y151267D01*
Y150200D01*
X377200Y149667D01*
X375600D01*
X376667D02*
X377733Y148600D01*
X380400Y151800D02*
X379333D01*
X378800Y151267D01*
Y149133D01*
X379333Y148600D01*
X380400D01*
X380933Y149133D01*
Y151267D01*
X380400Y151800D01*
X381999D02*
Y148600D01*
X383066Y149667D01*
X384133Y148600D01*
Y151800D01*
X386799Y148600D02*
Y151800D01*
X385199Y150200D01*
X387333D01*
X4600Y220800D02*
Y217600D01*
X6733D01*
X9400Y220800D02*
X8333D01*
X7800Y220267D01*
Y218133D01*
X8333Y217600D01*
X9400D01*
X9933Y218133D01*
Y220267D01*
X9400Y220800D01*
X11000Y217600D02*
Y219733D01*
X12066Y220800D01*
X13133Y219733D01*
Y217600D01*
Y219200D01*
X11000D01*
X14199Y220800D02*
Y217600D01*
X15799D01*
X16332Y218133D01*
Y220267D01*
X15799Y220800D01*
X14199D01*
X17399Y219200D02*
X19532D01*
X350733Y297267D02*
X350200Y297800D01*
X349133D01*
X348600Y297267D01*
Y296733D01*
X349133Y296200D01*
X350200D01*
X350733Y295667D01*
Y295133D01*
X350200Y294600D01*
X349133D01*
X348600Y295133D01*
X166600Y165800D02*
X168733D01*
X167667D01*
Y162600D01*
X169800Y165800D02*
X171933Y162600D01*
Y165800D02*
X169800Y162600D01*
X173000Y165800D02*
Y162600D01*
X174599D01*
X175133Y163133D01*
Y165267D01*
X174599Y165800D01*
X173000D01*
X71400Y236600D02*
X68200D01*
Y238200D01*
X68734Y238733D01*
X69800D01*
X70333Y238200D01*
Y236600D01*
Y237667D02*
X71400Y238733D01*
X68734Y241933D02*
X68200Y241400D01*
Y240333D01*
X68734Y239800D01*
X69267D01*
X69800Y240333D01*
Y241400D01*
X70333Y241933D01*
X70867D01*
X71400Y241400D01*
Y240333D01*
X70867Y239800D01*
X68200Y243000D02*
Y245133D01*
Y244066D01*
X71400D01*
X68200Y248333D02*
X68734Y247266D01*
X69800Y246199D01*
X70867D01*
X71400Y246733D01*
Y247799D01*
X70867Y248333D01*
X70333D01*
X69800Y247799D01*
Y246199D01*
X375600Y168600D02*
Y171800D01*
X377200D01*
X377733Y171266D01*
Y170200D01*
X377200Y169667D01*
X375600D01*
X376667D02*
X377733Y168600D01*
X380400Y171800D02*
X379333D01*
X378800Y171266D01*
Y169133D01*
X379333Y168600D01*
X380400D01*
X380933Y169133D01*
Y171266D01*
X380400Y171800D01*
X381999D02*
Y168600D01*
X383066Y169667D01*
X384133Y168600D01*
Y171800D01*
X387333Y168600D02*
X385199D01*
X387333Y170733D01*
Y171266D01*
X386799Y171800D01*
X385733D01*
X385199Y171266D01*
X28600Y283600D02*
Y286800D01*
X29667Y285733D01*
X30733Y286800D01*
Y283600D01*
X31800Y286800D02*
X32866D01*
X32333D01*
Y283600D01*
X31800D01*
X32866D01*
X36599Y286266D02*
X36066Y286800D01*
X34999D01*
X34466Y286266D01*
Y285733D01*
X34999Y285200D01*
X36066D01*
X36599Y284667D01*
Y284133D01*
X36066Y283600D01*
X34999D01*
X34466Y284133D01*
X39266Y286800D02*
X38199D01*
X37666Y286266D01*
Y284133D01*
X38199Y283600D01*
X39266D01*
X39799Y284133D01*
Y286266D01*
X39266Y286800D01*
X377733Y211266D02*
X377200Y211800D01*
X376133D01*
X375600Y211266D01*
Y209133D01*
X376133Y208600D01*
X377200D01*
X377733Y209133D01*
X380400Y211800D02*
X379333D01*
X378800Y211266D01*
Y209133D01*
X379333Y208600D01*
X380400D01*
X380933Y209133D01*
Y211266D01*
X380400Y211800D01*
X381999D02*
Y208600D01*
X384133D01*
X385199D02*
X386266D01*
X385733D01*
Y211800D01*
X385199Y211266D01*
X30733Y296267D02*
X30200Y296800D01*
X29133D01*
X28600Y296267D01*
Y294133D01*
X29133Y293600D01*
X30200D01*
X30733Y294133D01*
Y295200D01*
X29667D01*
X31800Y293600D02*
Y296800D01*
X33933Y293600D01*
Y296800D01*
X34999D02*
Y293600D01*
X36599D01*
X37133Y294133D01*
Y296267D01*
X36599Y296800D01*
X34999D01*
X8600Y323600D02*
Y326800D01*
X10200D01*
X10733Y326267D01*
Y325200D01*
X10200Y324667D01*
X8600D01*
X9667D02*
X10733Y323600D01*
X13400D02*
X12333D01*
X11800Y324133D01*
Y325200D01*
X12333Y325733D01*
X13400D01*
X13933Y325200D01*
Y324667D01*
X11800D01*
X15533Y325733D02*
X16599D01*
X17133Y325200D01*
Y323600D01*
X15533D01*
X14999Y324133D01*
X15533Y324667D01*
X17133D01*
X20333Y326800D02*
Y323600D01*
X18733D01*
X18199Y324133D01*
Y325200D01*
X18733Y325733D01*
X20333D01*
X22999Y323600D02*
X21932D01*
X21399Y324133D01*
Y325200D01*
X21932Y325733D01*
X22999D01*
X23532Y325200D01*
Y324667D01*
X21399D01*
X24599Y325733D02*
Y323600D01*
Y324667D01*
X25132Y325200D01*
X25665Y325733D01*
X26199D01*
X33132Y326800D02*
X32065Y326267D01*
X30998Y325200D01*
Y324133D01*
X31532Y323600D01*
X32598D01*
X33132Y324133D01*
Y324667D01*
X32598Y325200D01*
X30998D01*
X209600Y329600D02*
Y332800D01*
X211200D01*
X211733Y332266D01*
Y331200D01*
X211200Y330667D01*
X209600D01*
X213333Y329600D02*
X214400D01*
X214933Y330133D01*
Y331200D01*
X214400Y331733D01*
X213333D01*
X212800Y331200D01*
Y330133D01*
X213333Y329600D01*
X216000Y331733D02*
Y330133D01*
X216533Y329600D01*
X217066Y330133D01*
X217599Y329600D01*
X218133Y330133D01*
Y331733D01*
X220799Y329600D02*
X219733D01*
X219199Y330133D01*
Y331200D01*
X219733Y331733D01*
X220799D01*
X221333Y331200D01*
Y330667D01*
X219199D01*
X222399Y331733D02*
Y329600D01*
Y330667D01*
X222932Y331200D01*
X223466Y331733D01*
X223999D01*
X325733Y236800D02*
X323600D01*
Y233600D01*
X325733D01*
X323600Y235200D02*
X324667D01*
X330200Y192600D02*
Y195800D01*
X328600Y194200D01*
X330733D01*
X331800Y194733D02*
X333933Y192600D01*
X332866Y193667D01*
X333933Y194733D01*
X331800Y192600D01*
X338199D02*
X339266D01*
X338733D01*
Y195800D01*
X338199Y195266D01*
X340866D02*
X341399Y195800D01*
X342466D01*
X342999Y195266D01*
Y193133D01*
X342466Y192600D01*
X341399D01*
X340866Y193133D01*
Y195266D01*
X344065Y192600D02*
Y195800D01*
Y193667D02*
X345665Y194733D01*
X344065Y193667D02*
X345665Y192600D01*
X81400Y236600D02*
X78200D01*
Y238200D01*
X78733Y238733D01*
X79800D01*
X80333Y238200D01*
Y236600D01*
Y237667D02*
X81400Y238733D01*
X78733Y241933D02*
X78200Y241400D01*
Y240333D01*
X78733Y239800D01*
X79267D01*
X79800Y240333D01*
Y241400D01*
X80333Y241933D01*
X80867D01*
X81400Y241400D01*
Y240333D01*
X80867Y239800D01*
X78200Y243000D02*
Y245133D01*
Y244066D01*
X81400D01*
X78200Y248333D02*
Y246199D01*
X79800D01*
X79267Y247266D01*
Y247799D01*
X79800Y248333D01*
X80867D01*
X81400Y247799D01*
Y246733D01*
X80867Y246199D01*
X121400Y236600D02*
X118200D01*
Y238200D01*
X118734Y238733D01*
X119800D01*
X120333Y238200D01*
Y236600D01*
Y237667D02*
X121400Y238733D01*
X118734Y241933D02*
X118200Y241400D01*
Y240333D01*
X118734Y239800D01*
X119267D01*
X119800Y240333D01*
Y241400D01*
X120333Y241933D01*
X120867D01*
X121400Y241400D01*
Y240333D01*
X120867Y239800D01*
X118200Y243000D02*
Y245133D01*
Y244066D01*
X121400D01*
Y246199D02*
Y247266D01*
Y246733D01*
X118200D01*
X118734Y246199D01*
X156733Y165267D02*
X156200Y165800D01*
X155133D01*
X154600Y165267D01*
Y163133D01*
X155133Y162600D01*
X156200D01*
X156733Y163133D01*
Y164200D01*
X155667D01*
X157800Y162600D02*
Y165800D01*
X159933Y162600D01*
Y165800D01*
X161000D02*
Y162600D01*
X162599D01*
X163133Y163133D01*
Y165267D01*
X162599Y165800D01*
X161000D01*
X99600Y166800D02*
Y163600D01*
X101200D01*
X101733Y164133D01*
Y164667D01*
X101200Y165200D01*
X99600D01*
X101200D01*
X101733Y165733D01*
Y166267D01*
X101200Y166800D01*
X99600D01*
X102800D02*
Y163600D01*
X104400D01*
X104933Y164133D01*
Y166267D01*
X104400Y166800D01*
X102800D01*
X106000Y163600D02*
X107066D01*
X106533D01*
Y166800D01*
X106000Y166267D01*
X108666D02*
X109199Y166800D01*
X110266D01*
X110799Y166267D01*
Y165733D01*
X110266Y165200D01*
X109733D01*
X110266D01*
X110799Y164667D01*
Y164133D01*
X110266Y163600D01*
X109199D01*
X108666Y164133D01*
X111866D02*
X112399Y163600D01*
X113466D01*
X113999Y164133D01*
Y166267D01*
X113466Y166800D01*
X112399D01*
X111866Y166267D01*
Y165733D01*
X112399Y165200D01*
X113999D01*
X101400Y236600D02*
X98200D01*
Y238200D01*
X98734Y238733D01*
X99800D01*
X100333Y238200D01*
Y236600D01*
Y237667D02*
X101400Y238733D01*
X98734Y241933D02*
X98200Y241400D01*
Y240333D01*
X98734Y239800D01*
X99267D01*
X99800Y240333D01*
Y241400D01*
X100333Y241933D01*
X100867D01*
X101400Y241400D01*
Y240333D01*
X100867Y239800D01*
X98200Y243000D02*
Y245133D01*
Y244066D01*
X101400D01*
X98734Y246199D02*
X98200Y246733D01*
Y247799D01*
X98734Y248333D01*
X99267D01*
X99800Y247799D01*
Y247266D01*
Y247799D01*
X100333Y248333D01*
X100867D01*
X101400Y247799D01*
Y246733D01*
X100867Y246199D01*
X91600Y138800D02*
Y135600D01*
X93200D01*
X93733Y136133D01*
Y136667D01*
X93200Y137200D01*
X91600D01*
X93200D01*
X93733Y137733D01*
Y138267D01*
X93200Y138800D01*
X91600D01*
X30733Y266266D02*
X30200Y266800D01*
X29133D01*
X28600Y266266D01*
Y265733D01*
X29133Y265200D01*
X30200D01*
X30733Y264667D01*
Y264133D01*
X30200Y263600D01*
X29133D01*
X28600Y264133D01*
X33933Y266266D02*
X33400Y266800D01*
X32333D01*
X31800Y266266D01*
Y264133D01*
X32333Y263600D01*
X33400D01*
X33933Y264133D01*
X34999Y266800D02*
Y263600D01*
Y264667D01*
X37133Y266800D01*
X35533Y265200D01*
X37133Y263600D01*
X162200Y138600D02*
Y141800D01*
X160600Y140200D01*
X162733D01*
X163800Y138600D02*
Y141800D01*
Y139667D02*
X165400Y140733D01*
X163800Y139667D02*
X165400Y138600D01*
X166999Y141800D02*
X169133D01*
Y141267D01*
X166999Y139133D01*
Y138600D01*
X337733Y297267D02*
X337200Y297800D01*
X336133D01*
X335600Y297267D01*
Y295133D01*
X336133Y294600D01*
X337200D01*
X337733Y295133D01*
Y296200D01*
X336667D01*
X338800Y294600D02*
Y297800D01*
X340933Y294600D01*
Y297800D01*
X342000D02*
Y294600D01*
X343599D01*
X344133Y295133D01*
Y297267D01*
X343599Y297800D01*
X342000D01*
X111400Y236600D02*
X108200D01*
Y238200D01*
X108733Y238733D01*
X109800D01*
X110333Y238200D01*
Y236600D01*
Y237667D02*
X111400Y238733D01*
X108733Y241933D02*
X108200Y241400D01*
Y240333D01*
X108733Y239800D01*
X109267D01*
X109800Y240333D01*
Y241400D01*
X110333Y241933D01*
X110867D01*
X111400Y241400D01*
Y240333D01*
X110867Y239800D01*
X108200Y243000D02*
Y245133D01*
Y244066D01*
X111400D01*
Y248333D02*
Y246199D01*
X109267Y248333D01*
X108733D01*
X108200Y247799D01*
Y246733D01*
X108733Y246199D01*
X222733Y277325D02*
X220600D01*
Y275726D01*
X221666D01*
X220600D01*
Y274126D01*
X224332D02*
X225398D01*
X225932Y274660D01*
Y275726D01*
X225398Y276259D01*
X224332D01*
X223799Y275726D01*
Y274660D01*
X224332Y274126D01*
X227531D02*
X228597D01*
X229131Y274660D01*
Y275726D01*
X228597Y276259D01*
X227531D01*
X226998Y275726D01*
Y274660D01*
X227531Y274126D01*
X230730Y276792D02*
Y276259D01*
X230197D01*
X231263D01*
X230730D01*
Y274660D01*
X231263Y274126D01*
X232863Y273060D02*
Y276259D01*
X234462D01*
X234995Y275726D01*
Y274660D01*
X234462Y274126D01*
X232863D01*
X236062Y276259D02*
Y274126D01*
Y275193D01*
X236595Y275726D01*
X237128Y276259D01*
X237661D01*
X239261Y274126D02*
X240327D01*
X239794D01*
Y276259D01*
X239261D01*
X241927Y274126D02*
Y276259D01*
X243526D01*
X244059Y275726D01*
Y274126D01*
X245659Y276792D02*
Y276259D01*
X245125D01*
X246192D01*
X245659D01*
Y274660D01*
X246192Y274126D01*
X253123Y277325D02*
Y274126D01*
X251523D01*
X250990Y274660D01*
Y275726D01*
X251523Y276259D01*
X253123D01*
X255789Y274126D02*
X254722D01*
X254189Y274660D01*
Y275726D01*
X254722Y276259D01*
X255789D01*
X256322Y275726D01*
Y275193D01*
X254189D01*
X257388Y274126D02*
X258988D01*
X259521Y274660D01*
X258988Y275193D01*
X257921D01*
X257388Y275726D01*
X257921Y276259D01*
X259521D01*
X260587Y274126D02*
X261653D01*
X261120D01*
Y276259D01*
X260587D01*
X264319Y273060D02*
X264852D01*
X265386Y273593D01*
Y276259D01*
X263786D01*
X263253Y275726D01*
Y274660D01*
X263786Y274126D01*
X265386D01*
X266452D02*
Y276259D01*
X268051D01*
X268584Y275726D01*
Y274126D01*
X271250D02*
X270184D01*
X269651Y274660D01*
Y275726D01*
X270184Y276259D01*
X271250D01*
X271783Y275726D01*
Y275193D01*
X269651D01*
X274983Y277325D02*
Y274126D01*
X273383D01*
X272850Y274660D01*
Y275726D01*
X273383Y276259D01*
X274983D01*
X279781Y274126D02*
Y276792D01*
Y275726D01*
X279248D01*
X280314D01*
X279781D01*
Y276792D01*
X280314Y277325D01*
X282447Y274126D02*
X283513D01*
X284046Y274660D01*
Y275726D01*
X283513Y276259D01*
X282447D01*
X281913Y275726D01*
Y274660D01*
X282447Y274126D01*
X285113Y276259D02*
Y274126D01*
Y275193D01*
X285646Y275726D01*
X286179Y276259D01*
X286712D01*
X220600Y270447D02*
X222733Y268315D01*
X220600D02*
X222733Y270447D01*
X220600Y269381D02*
X222733D01*
X221666Y268315D02*
Y270447D01*
X229131D02*
X228597Y270980D01*
X227531D01*
X226998Y270447D01*
Y268315D01*
X227531Y267781D01*
X228597D01*
X229131Y268315D01*
Y269381D01*
X228064D01*
X230730Y267781D02*
X231796D01*
X232330Y268315D01*
Y269381D01*
X231796Y269914D01*
X230730D01*
X230197Y269381D01*
Y268315D01*
X230730Y267781D01*
X233929D02*
X234995D01*
X235528Y268315D01*
Y269381D01*
X234995Y269914D01*
X233929D01*
X233396Y269381D01*
Y268315D01*
X233929Y267781D01*
X236595Y269914D02*
Y268315D01*
X237128Y267781D01*
X238727D01*
Y269914D01*
X239794D02*
Y268315D01*
X240327Y267781D01*
X241927D01*
Y269914D01*
X242993D02*
Y268315D01*
X243526Y267781D01*
X245125D01*
Y269914D01*
X246192Y269381D02*
X248324D01*
X251523Y270980D02*
X249391D01*
Y267781D01*
X251523D01*
X249391Y269381D02*
X250457D01*
X254722Y270447D02*
X254189Y270980D01*
X253123D01*
X252590Y270447D01*
Y269914D01*
X253123Y269381D01*
X254189D01*
X254722Y268848D01*
Y268315D01*
X254189Y267781D01*
X253123D01*
X252590Y268315D01*
X255789Y267781D02*
Y270980D01*
X257388D01*
X257921Y270447D01*
Y269381D01*
X257388Y268848D01*
X255789D01*
X258988Y270447D02*
X259521Y270980D01*
X260587D01*
X261120Y270447D01*
Y269914D01*
X260587Y269381D01*
X260054D01*
X260587D01*
X261120Y268848D01*
Y268315D01*
X260587Y267781D01*
X259521D01*
X258988Y268315D01*
X264319Y267781D02*
X262187D01*
X264319Y269914D01*
Y270447D01*
X263786Y270980D01*
X262720D01*
X262187Y270447D01*
X220600Y265168D02*
X222733Y263036D01*
X220600D02*
X222733Y265168D01*
X220600Y264102D02*
X222733D01*
X221666Y263036D02*
Y265168D01*
X226998Y262503D02*
Y265702D01*
X229131Y262503D01*
Y265702D01*
X230730Y262503D02*
X231796D01*
X232330Y263036D01*
Y264102D01*
X231796Y264635D01*
X230730D01*
X230197Y264102D01*
Y263036D01*
X230730Y262503D01*
X235528Y265702D02*
Y262503D01*
X233929D01*
X233396Y263036D01*
Y264102D01*
X233929Y264635D01*
X235528D01*
X238194Y262503D02*
X237128D01*
X236595Y263036D01*
Y264102D01*
X237128Y264635D01*
X238194D01*
X238727Y264102D01*
Y263569D01*
X236595D01*
X239794Y262503D02*
Y265702D01*
X240860Y264635D01*
X241927Y265702D01*
Y262503D01*
X245125Y265168D02*
X244592Y265702D01*
X243526D01*
X242993Y265168D01*
Y263036D01*
X243526Y262503D01*
X244592D01*
X245125Y263036D01*
X246192Y265702D02*
Y263036D01*
X246725Y262503D01*
X247791D01*
X248324Y263036D01*
Y265702D01*
X249391Y264102D02*
X251523D01*
X252590Y265168D02*
X253123Y265702D01*
X254189D01*
X254722Y265168D01*
Y264635D01*
X254189Y264102D01*
X253656D01*
X254189D01*
X254722Y263569D01*
Y263036D01*
X254189Y262503D01*
X253123D01*
X252590Y263036D01*
X257921Y262503D02*
X255789D01*
X257921Y264635D01*
Y265168D01*
X257388Y265702D01*
X256322D01*
X255789Y265168D01*
X261120D02*
X260587Y265702D01*
X259521D01*
X258988Y265168D01*
Y264635D01*
X259521Y264102D01*
X260587D01*
X261120Y263569D01*
Y263036D01*
X260587Y262503D01*
X259521D01*
X258988Y263036D01*
X222733Y254611D02*
X222200Y255144D01*
X221133D01*
X220600Y254611D01*
Y252478D01*
X221133Y251945D01*
X222200D01*
X222733Y252478D01*
X223799Y255144D02*
Y251945D01*
Y253545D01*
X224332Y254078D01*
X225398D01*
X225932Y253545D01*
Y251945D01*
X228597D02*
X227531D01*
X226998Y252478D01*
Y253545D01*
X227531Y254078D01*
X228597D01*
X229131Y253545D01*
Y253011D01*
X226998D01*
X232330Y254078D02*
X230730D01*
X230197Y253545D01*
Y252478D01*
X230730Y251945D01*
X232330D01*
X233396D02*
Y255144D01*
Y253011D02*
X234995Y254078D01*
X233396Y253011D02*
X234995Y251945D01*
X239794Y250879D02*
Y254078D01*
X241393D01*
X241927Y253545D01*
Y252478D01*
X241393Y251945D01*
X239794D01*
X242993D02*
X244059D01*
X243526D01*
Y254078D01*
X242993D01*
X245659Y251945D02*
Y254078D01*
X247258D01*
X247791Y253545D01*
Y251945D01*
X254189Y254078D02*
X252590D01*
X252057Y253545D01*
Y252478D01*
X252590Y251945D01*
X254189D01*
X255789D02*
X256855D01*
X257388Y252478D01*
Y253545D01*
X256855Y254078D01*
X255789D01*
X255256Y253545D01*
Y252478D01*
X255789Y251945D01*
X258454D02*
Y254078D01*
X258988D01*
X259521Y253545D01*
Y251945D01*
Y253545D01*
X260054Y254078D01*
X260587Y253545D01*
Y251945D01*
X261653Y250879D02*
Y254078D01*
X263253D01*
X263786Y253545D01*
Y252478D01*
X263253Y251945D01*
X261653D01*
X265386Y254078D02*
X266452D01*
X266985Y253545D01*
Y251945D01*
X265386D01*
X264852Y252478D01*
X265386Y253011D01*
X266985D01*
X268584Y254611D02*
Y254078D01*
X268051D01*
X269118D01*
X268584D01*
Y252478D01*
X269118Y251945D01*
X270717D02*
X271783D01*
X271250D01*
Y254078D01*
X270717D01*
X273383Y255144D02*
Y251945D01*
X274983D01*
X275516Y252478D01*
Y253011D01*
Y253545D01*
X274983Y254078D01*
X273383D01*
X276582Y251945D02*
X277648D01*
X277115D01*
Y254078D01*
X276582D01*
X279248Y251945D02*
X280314D01*
X279781D01*
Y255144D01*
X279248D01*
X281913Y251945D02*
X282980D01*
X282447D01*
Y254078D01*
X281913D01*
X285113Y254611D02*
Y254078D01*
X284579D01*
X285646D01*
X285113D01*
Y252478D01*
X285646Y251945D01*
X287245Y254078D02*
Y252478D01*
X287778Y251945D01*
X289378D01*
Y251412D01*
X288845Y250879D01*
X288312D01*
X289378Y251945D02*
Y254078D01*
X221133Y245600D02*
Y248266D01*
Y247200D01*
X220600D01*
X221666D01*
X221133D01*
Y248266D01*
X221666Y248799D01*
X223799Y245600D02*
X224865D01*
X225398Y246133D01*
Y247200D01*
X224865Y247733D01*
X223799D01*
X223266Y247200D01*
Y246133D01*
X223799Y245600D01*
X226465Y247733D02*
Y245600D01*
Y246666D01*
X226998Y247200D01*
X227531Y247733D01*
X228064D01*
X233396Y245600D02*
X234462D01*
X234995Y246133D01*
Y247200D01*
X234462Y247733D01*
X233396D01*
X232863Y247200D01*
Y246133D01*
X233396Y245600D01*
X236595Y248266D02*
Y247733D01*
X236062D01*
X237128D01*
X236595D01*
Y246133D01*
X237128Y245600D01*
X238727Y248799D02*
Y245600D01*
Y247200D01*
X239261Y247733D01*
X240327D01*
X240860Y247200D01*
Y245600D01*
X243526D02*
X242460D01*
X241927Y246133D01*
Y247200D01*
X242460Y247733D01*
X243526D01*
X244059Y247200D01*
Y246666D01*
X241927D01*
X245125Y247733D02*
Y245600D01*
Y246666D01*
X245659Y247200D01*
X246192Y247733D01*
X246725D01*
X251523Y248799D02*
Y245600D01*
X253123D01*
X253656Y246133D01*
Y246666D01*
Y247200D01*
X253123Y247733D01*
X251523D01*
X255256Y245600D02*
X256322D01*
X256855Y246133D01*
Y247200D01*
X256322Y247733D01*
X255256D01*
X254722Y247200D01*
Y246133D01*
X255256Y245600D01*
X258454Y247733D02*
X259521D01*
X260054Y247200D01*
Y245600D01*
X258454D01*
X257921Y246133D01*
X258454Y246666D01*
X260054D01*
X261120Y247733D02*
Y245600D01*
Y246666D01*
X261653Y247200D01*
X262187Y247733D01*
X262720D01*
X266452Y248799D02*
Y245600D01*
X264852D01*
X264319Y246133D01*
Y247200D01*
X264852Y247733D01*
X266452D01*
X267518Y245600D02*
X269118D01*
X269651Y246133D01*
X269118Y246666D01*
X268051D01*
X267518Y247200D01*
X268051Y247733D01*
X269651D01*
X330600Y134506D02*
Y137706D01*
X331667Y136639D01*
X332733Y137706D01*
Y134506D01*
X333800Y136639D02*
Y135039D01*
X334333Y134506D01*
X335933D01*
Y136639D01*
X337000Y134506D02*
X338066D01*
X337533D01*
Y137706D01*
X337000D01*
X340199Y137172D02*
Y136639D01*
X339666D01*
X340733D01*
X340199D01*
Y135039D01*
X340733Y134506D01*
X342332D02*
X343399D01*
X342866D01*
Y136639D01*
X342332D01*
X344999Y136106D02*
X347132D01*
X348199Y134506D02*
Y137706D01*
X349798D01*
X350332Y137172D01*
Y136106D01*
X349798Y135572D01*
X348199D01*
X349265D02*
X350332Y134506D01*
X353532Y137172D02*
X352998Y137706D01*
X351932D01*
X351398Y137172D01*
Y135039D01*
X351932Y134506D01*
X352998D01*
X353532Y135039D01*
X356731Y137706D02*
X354598D01*
Y136106D01*
X355665Y136639D01*
X356198D01*
X356731Y136106D01*
Y135039D01*
X356198Y134506D01*
X355132D01*
X354598Y135039D01*
X359931Y134506D02*
X357798D01*
X359931Y136639D01*
Y137172D01*
X359398Y137706D01*
X358331D01*
X357798Y137172D01*
X363131Y134506D02*
X360998D01*
X363131Y136639D01*
Y137172D01*
X362598Y137706D01*
X361531D01*
X360998Y137172D01*
X332733Y132426D02*
X331667D01*
X332200D01*
Y129759D01*
X331667Y129226D01*
X331133D01*
X330600Y129759D01*
X333800Y131359D02*
Y129759D01*
X334333Y129226D01*
X335933D01*
Y131359D01*
X337000Y129226D02*
X338599D01*
X339133Y129759D01*
X338599Y130293D01*
X337533D01*
X337000Y130826D01*
X337533Y131359D01*
X339133D01*
X340733Y131893D02*
Y131359D01*
X340199D01*
X341266D01*
X340733D01*
Y129759D01*
X341266Y129226D01*
X342866D02*
X343932D01*
X343399D01*
Y131359D01*
X342866D01*
X345532Y129226D02*
Y131359D01*
X347132D01*
X347665Y130826D01*
Y129226D01*
X353532Y132426D02*
X352465D01*
X351932Y131893D01*
Y129759D01*
X352465Y129226D01*
X353532D01*
X354065Y129759D01*
Y131893D01*
X353532Y132426D01*
X355132Y129226D02*
Y131359D01*
X356731D01*
X357265Y130826D01*
Y129226D01*
X359398Y128159D02*
X359931D01*
X360464Y128693D01*
Y131359D01*
X358864D01*
X358331Y130826D01*
Y129759D01*
X358864Y129226D01*
X360464D01*
X332733Y126079D02*
X331667D01*
X332200D01*
Y123413D01*
X331667Y122880D01*
X331133D01*
X330600Y123413D01*
X334333Y125013D02*
X335400D01*
X335933Y124480D01*
Y122880D01*
X334333D01*
X333800Y123413D01*
X334333Y123946D01*
X335933D01*
X337000Y122880D02*
Y125013D01*
X338599D01*
X339133Y124480D01*
Y122880D01*
X345532D02*
X343399D01*
X345532Y125013D01*
Y125546D01*
X344999Y126079D01*
X343932D01*
X343399Y125546D01*
X346599D02*
X347132Y126079D01*
X348199D01*
X348732Y125546D01*
Y123413D01*
X348199Y122880D01*
X347132D01*
X346599Y123413D01*
Y125546D01*
X330600Y117600D02*
Y120800D01*
X332200D01*
X332733Y120266D01*
Y119200D01*
X332200Y118667D01*
X330600D01*
X331667D02*
X332733Y117600D01*
X335400D02*
X334333D01*
X333800Y118133D01*
Y119200D01*
X334333Y119733D01*
X335400D01*
X335933Y119200D01*
Y118667D01*
X333800D01*
X337000Y119733D02*
X338066Y117600D01*
X339133Y119733D01*
X343399Y117600D02*
X344466D01*
X343932D01*
Y120800D01*
X343399Y120266D01*
X366600Y285800D02*
Y282600D01*
X367667Y283667D01*
X368733Y282600D01*
Y285800D01*
X371933Y285266D02*
X371400Y285800D01*
X370333D01*
X369800Y285266D01*
Y284733D01*
X370333Y284200D01*
X371400D01*
X371933Y283667D01*
Y283133D01*
X371400Y282600D01*
X370333D01*
X369800Y283133D01*
X375133Y282600D02*
X373000D01*
X375133Y284733D01*
Y285266D01*
X374599Y285800D01*
X373533D01*
X373000Y285266D01*
X376199D02*
X376733Y285800D01*
X377799D01*
X378332Y285266D01*
Y284733D01*
X377799Y284200D01*
X378332Y283667D01*
Y283133D01*
X377799Y282600D01*
X376733D01*
X376199Y283133D01*
Y283667D01*
X376733Y284200D01*
X376199Y284733D01*
Y285266D01*
X376733Y284200D02*
X377799D01*
X379399Y282600D02*
X380466D01*
X379932D01*
Y285800D01*
X379399Y285266D01*
X384199Y282600D02*
X382066D01*
X384199Y284733D01*
Y285266D01*
X383665Y285800D01*
X382599D01*
X382066Y285266D01*
X385265Y285800D02*
Y282600D01*
X386865D01*
X387398Y283133D01*
Y283667D01*
X386865Y284200D01*
X385265D01*
X386865D01*
X387398Y284733D01*
Y285266D01*
X386865Y285800D01*
X385265D01*
X162200Y128600D02*
Y131800D01*
X160600Y130200D01*
X162733D01*
X163800Y128600D02*
Y131800D01*
Y129667D02*
X165400Y130733D01*
X163800Y129667D02*
X165400Y128600D01*
X166999Y131800D02*
X169133D01*
Y131266D01*
X166999Y129133D01*
Y128600D01*
X158600Y323600D02*
Y326800D01*
X160200D01*
X160733Y326267D01*
Y325200D01*
X160200Y324667D01*
X158600D01*
X159667D02*
X160733Y323600D01*
X163400D02*
X162333D01*
X161800Y324133D01*
Y325200D01*
X162333Y325733D01*
X163400D01*
X163933Y325200D01*
Y324667D01*
X161800D01*
X165533Y325733D02*
X166599D01*
X167133Y325200D01*
Y323600D01*
X165533D01*
X164999Y324133D01*
X165533Y324667D01*
X167133D01*
X170332Y326800D02*
Y323600D01*
X168733D01*
X168199Y324133D01*
Y325200D01*
X168733Y325733D01*
X170332D01*
X172999Y323600D02*
X171932D01*
X171399Y324133D01*
Y325200D01*
X171932Y325733D01*
X172999D01*
X173532Y325200D01*
Y324667D01*
X171399D01*
X174599Y325733D02*
Y323600D01*
Y324667D01*
X175132Y325200D01*
X175665Y325733D01*
X176199D01*
X180998Y323600D02*
X182065D01*
X181532D01*
Y326800D01*
X180998Y326267D01*
X83702Y147615D02*
X81568D01*
Y144415D01*
X83702D01*
X81568Y146015D02*
X82635D01*
X358733Y333800D02*
X356600D01*
Y332200D01*
X357667Y332733D01*
X358200D01*
X358733Y332200D01*
Y331133D01*
X358200Y330600D01*
X357133D01*
X356600Y331133D01*
X359800Y333800D02*
Y331667D01*
X360866Y330600D01*
X361933Y331667D01*
Y333800D01*
X91568Y147615D02*
Y144415D01*
X93168D01*
X93702Y144948D01*
Y145482D01*
X93168Y146015D01*
X91568D01*
X93168D01*
X93702Y146548D01*
Y147081D01*
X93168Y147615D01*
X91568D01*
X346600Y267267D02*
X347133Y267800D01*
X348200D01*
X348733Y267267D01*
Y266733D01*
X348200Y266200D01*
X347667D01*
X348200D01*
X348733Y265667D01*
Y265133D01*
X348200Y264600D01*
X347133D01*
X346600Y265133D01*
X349800Y266733D02*
X351933Y264600D01*
X350866Y265667D01*
X351933Y266733D01*
X349800Y264600D01*
X356199D02*
X357266D01*
X356733D01*
Y267800D01*
X356199Y267267D01*
X358866D02*
X359399Y267800D01*
X360466D01*
X360999Y267267D01*
Y265133D01*
X360466Y264600D01*
X359399D01*
X358866Y265133D01*
Y267267D01*
X362066Y264600D02*
Y267800D01*
Y265667D02*
X363665Y266733D01*
X362066Y265667D02*
X363665Y264600D01*
X83733Y138267D02*
X83200Y138800D01*
X82133D01*
X81600Y138267D01*
Y136133D01*
X82133Y135600D01*
X83200D01*
X83733Y136133D01*
X237733Y186800D02*
X236667D01*
X237200D01*
Y184133D01*
X236667Y183600D01*
X236133D01*
X235600Y184133D01*
X238800Y186800D02*
Y183600D01*
X240933D01*
X244133Y186267D02*
X243599Y186800D01*
X242533D01*
X242000Y186267D01*
Y184133D01*
X242533Y183600D01*
X243599D01*
X244133Y184133D01*
X247333Y186800D02*
X246266D01*
X246799D01*
Y184133D01*
X246266Y183600D01*
X245733D01*
X245199Y184133D01*
X248399Y186800D02*
Y183600D01*
X250532D01*
X253732Y186267D02*
X253199Y186800D01*
X252132D01*
X251599Y186267D01*
Y184133D01*
X252132Y183600D01*
X253199D01*
X253732Y184133D01*
X256932Y186800D02*
X255865D01*
X256398D01*
Y184133D01*
X255865Y183600D01*
X255332D01*
X254799Y184133D01*
X257998Y186800D02*
Y183600D01*
X260132D01*
X263331Y186267D02*
X262798Y186800D01*
X261731D01*
X261198Y186267D01*
Y184133D01*
X261731Y183600D01*
X262798D01*
X263331Y184133D01*
X266531Y186800D02*
X265464D01*
X265998D01*
Y184133D01*
X265464Y183600D01*
X264931D01*
X264398Y184133D01*
X267598Y186800D02*
Y183600D01*
X269731D01*
X272931Y186267D02*
X272397Y186800D01*
X271331D01*
X270797Y186267D01*
Y184133D01*
X271331Y183600D01*
X272397D01*
X272931Y184133D01*
X30733Y256266D02*
X30200Y256800D01*
X29133D01*
X28600Y256266D01*
Y255733D01*
X29133Y255200D01*
X30200D01*
X30733Y254667D01*
Y254133D01*
X30200Y253600D01*
X29133D01*
X28600Y254133D01*
X33933Y256266D02*
X33400Y256800D01*
X32333D01*
X31800Y256266D01*
Y255733D01*
X32333Y255200D01*
X33400D01*
X33933Y254667D01*
Y254133D01*
X33400Y253600D01*
X32333D01*
X31800Y254133D01*
X325733Y256266D02*
X325200Y256800D01*
X324133D01*
X323600Y256266D01*
Y254133D01*
X324133Y253600D01*
X325200D01*
X325733Y254133D01*
X7733Y181266D02*
X7200Y181800D01*
X6133D01*
X5600Y181266D01*
Y179133D01*
X6133Y178600D01*
X7200D01*
X7733Y179133D01*
Y180200D01*
X6667D01*
X8800Y178600D02*
Y181800D01*
X10933Y178600D01*
Y181800D01*
X11999D02*
Y178600D01*
X13599D01*
X14133Y179133D01*
Y181266D01*
X13599Y181800D01*
X11999D01*
X28600Y273600D02*
Y276800D01*
X29667Y275733D01*
X30733Y276800D01*
Y273600D01*
X33400Y276800D02*
X32333D01*
X31800Y276267D01*
Y274133D01*
X32333Y273600D01*
X33400D01*
X33933Y274133D01*
Y276267D01*
X33400Y276800D01*
X37133Y276267D02*
X36599Y276800D01*
X35533D01*
X34999Y276267D01*
Y275733D01*
X35533Y275200D01*
X36599D01*
X37133Y274667D01*
Y274133D01*
X36599Y273600D01*
X35533D01*
X34999Y274133D01*
X38199Y276800D02*
X39266D01*
X38733D01*
Y273600D01*
X38199D01*
X39266D01*
X28600Y306266D02*
X29133Y306800D01*
X30200D01*
X30733Y306266D01*
Y305733D01*
X30200Y305200D01*
X29667D01*
X30200D01*
X30733Y304667D01*
Y304133D01*
X30200Y303600D01*
X29133D01*
X28600Y304133D01*
X31800Y306800D02*
Y304667D01*
X32866Y303600D01*
X33933Y304667D01*
Y306800D01*
X34999Y306266D02*
X35533Y306800D01*
X36599D01*
X37133Y306266D01*
Y305733D01*
X36599Y305200D01*
X36066D01*
X36599D01*
X37133Y304667D01*
Y304133D01*
X36599Y303600D01*
X35533D01*
X34999Y304133D01*
X152733Y206266D02*
X152200Y206800D01*
X151133D01*
X150600Y206266D01*
Y205733D01*
X151133Y205200D01*
X152200D01*
X152733Y204667D01*
Y204133D01*
X152200Y203600D01*
X151133D01*
X150600Y204133D01*
X155933Y206266D02*
X155400Y206800D01*
X154333D01*
X153800Y206266D01*
Y204133D01*
X154333Y203600D01*
X155400D01*
X155933Y204133D01*
X157000Y206800D02*
Y203600D01*
X159133D01*
X103733Y147266D02*
X103200Y147800D01*
X102133D01*
X101600Y147266D01*
Y145133D01*
X102133Y144600D01*
X103200D01*
X103733Y145133D01*
X152733Y186800D02*
X150600D01*
Y185200D01*
X151667Y185733D01*
X152200D01*
X152733Y185200D01*
Y184133D01*
X152200Y183600D01*
X151133D01*
X150600Y184133D01*
X153800Y186800D02*
Y184667D01*
X154866Y183600D01*
X155933Y184667D01*
Y186800D01*
X91400Y236600D02*
X88200D01*
Y238200D01*
X88734Y238733D01*
X89800D01*
X90333Y238200D01*
Y236600D01*
Y237667D02*
X91400Y238733D01*
X88734Y241933D02*
X88200Y241400D01*
Y240333D01*
X88734Y239800D01*
X89267D01*
X89800Y240333D01*
Y241400D01*
X90333Y241933D01*
X90867D01*
X91400Y241400D01*
Y240333D01*
X90867Y239800D01*
X88200Y243000D02*
Y245133D01*
Y244066D01*
X91400D01*
Y247799D02*
X88200D01*
X89800Y246199D01*
Y248333D01*
X377733Y201267D02*
X377200Y201800D01*
X376133D01*
X375600Y201267D01*
Y199133D01*
X376133Y198600D01*
X377200D01*
X377733Y199133D01*
X380400Y201800D02*
X379333D01*
X378800Y201267D01*
Y199133D01*
X379333Y198600D01*
X380400D01*
X380933Y199133D01*
Y201267D01*
X380400Y201800D01*
X381999D02*
Y198600D01*
X384133D01*
X387333D02*
X385199D01*
X387333Y200733D01*
Y201267D01*
X386799Y201800D01*
X385733D01*
X385199Y201267D01*
X152733Y196266D02*
X152200Y196800D01*
X151133D01*
X150600Y196266D01*
Y195733D01*
X151133Y195200D01*
X152200D01*
X152733Y194667D01*
Y194133D01*
X152200Y193600D01*
X151133D01*
X150600Y194133D01*
X153800Y196800D02*
Y193600D01*
X155400D01*
X155933Y194133D01*
Y196266D01*
X155400Y196800D01*
X153800D01*
X157000Y193600D02*
Y195733D01*
X158066Y196800D01*
X159133Y195733D01*
Y193600D01*
Y195200D01*
X157000D01*
X336733Y333266D02*
X336200Y333800D01*
X335133D01*
X334600Y333266D01*
Y331133D01*
X335133Y330600D01*
X336200D01*
X336733Y331133D01*
Y332200D01*
X335667D01*
X337800Y330600D02*
Y333800D01*
X339933Y330600D01*
Y333800D01*
X341000D02*
Y330600D01*
X342599D01*
X343133Y331133D01*
Y333266D01*
X342599Y333800D01*
X341000D01*
X137200Y124866D02*
X136133D01*
X135600Y124333D01*
Y122200D01*
X136133Y121667D01*
X137200D01*
X137733Y122200D01*
Y124333D01*
X137200Y124866D01*
X138800Y120600D02*
Y123800D01*
X140400D01*
X140933Y123266D01*
Y122200D01*
X140400Y121667D01*
X138800D01*
X142533Y124333D02*
Y123800D01*
X141999D01*
X143066D01*
X142533D01*
Y122200D01*
X143066Y121667D01*
X144666D02*
X145733D01*
X145199D01*
Y123800D01*
X144666D01*
X147866Y121667D02*
X148932D01*
X149466Y122200D01*
Y123266D01*
X148932Y123800D01*
X147866D01*
X147332Y123266D01*
Y122200D01*
X147866Y121667D01*
X150532D02*
Y123800D01*
X152132D01*
X152665Y123266D01*
Y121667D01*
X154265Y123800D02*
X155332D01*
X155865Y123266D01*
Y121667D01*
X154265D01*
X153732Y122200D01*
X154265Y122733D01*
X155865D01*
X156932Y121667D02*
X157998D01*
X157465D01*
Y124866D01*
X156932D01*
X162798D02*
X163865D01*
X163331D01*
Y121667D01*
X162798D01*
X163865D01*
X167598D02*
X165464D01*
X167598Y123800D01*
Y124333D01*
X167064Y124866D01*
X165998D01*
X165464Y124333D01*
X170797D02*
X170264Y124866D01*
X169197D01*
X168664Y124333D01*
Y122200D01*
X169197Y121667D01*
X170264D01*
X170797Y122200D01*
X175064Y121667D02*
Y124866D01*
X176664D01*
X177197Y124333D01*
Y123266D01*
X176664Y122733D01*
X175064D01*
X178263Y123800D02*
Y122200D01*
X178797Y121667D01*
X180397D01*
Y123800D01*
X181463Y121667D02*
X182530D01*
X181997D01*
Y124866D01*
X181463D01*
X184130Y121667D02*
X185196D01*
X184663D01*
Y124866D01*
X184130D01*
X186796Y123800D02*
Y122200D01*
X187329Y121667D01*
X188929D01*
Y123800D01*
X189996Y120600D02*
Y123800D01*
X191596D01*
X192129Y123266D01*
Y122200D01*
X191596Y121667D01*
X189996D01*
X193196D02*
X194796D01*
X195329Y122200D01*
X194796Y122733D01*
X193729D01*
X193196Y123266D01*
X193729Y123800D01*
X195329D01*
X375600Y158600D02*
Y161800D01*
X377200D01*
X377733Y161267D01*
Y160200D01*
X377200Y159667D01*
X375600D01*
X376667D02*
X377733Y158600D01*
X380400Y161800D02*
X379333D01*
X378800Y161267D01*
Y159133D01*
X379333Y158600D01*
X380400D01*
X380933Y159133D01*
Y161267D01*
X380400Y161800D01*
X381999D02*
Y158600D01*
X383066Y159667D01*
X384133Y158600D01*
Y161800D01*
X385199Y161267D02*
X385733Y161800D01*
X386799D01*
X387333Y161267D01*
Y160733D01*
X386799Y160200D01*
X386266D01*
X386799D01*
X387333Y159667D01*
Y159133D01*
X386799Y158600D01*
X385733D01*
X385199Y159133D01*
X92733Y113600D02*
X90600D01*
X92733Y115733D01*
Y116267D01*
X92200Y116800D01*
X91133D01*
X90600Y116267D01*
X93800Y113600D02*
Y116800D01*
X95933Y113600D01*
Y116800D01*
X97000Y116267D02*
X97533Y116800D01*
X98599D01*
X99133Y116267D01*
Y115733D01*
X98599Y115200D01*
X98066D01*
X98599D01*
X99133Y114667D01*
Y114133D01*
X98599Y113600D01*
X97533D01*
X97000Y114133D01*
X100199D02*
X100733Y113600D01*
X101799D01*
X102332Y114133D01*
Y116267D01*
X101799Y116800D01*
X100733D01*
X100199Y116267D01*
Y115733D01*
X100733Y115200D01*
X102332D01*
X103399Y116267D02*
X103932Y116800D01*
X104999D01*
X105532Y116267D01*
Y114133D01*
X104999Y113600D01*
X103932D01*
X103399Y114133D01*
Y116267D01*
X108199Y113600D02*
Y116800D01*
X106599Y115200D01*
X108732D01*
X377733Y191267D02*
X377200Y191800D01*
X376133D01*
X375600Y191267D01*
Y189133D01*
X376133Y188600D01*
X377200D01*
X377733Y189133D01*
X380400Y191800D02*
X379333D01*
X378800Y191267D01*
Y189133D01*
X379333Y188600D01*
X380400D01*
X380933Y189133D01*
Y191267D01*
X380400Y191800D01*
X381999D02*
Y188600D01*
X384133D01*
X385199Y191267D02*
X385733Y191800D01*
X386799D01*
X387333Y191267D01*
Y190733D01*
X386799Y190200D01*
X386266D01*
X386799D01*
X387333Y189667D01*
Y189133D01*
X386799Y188600D01*
X385733D01*
X385199Y189133D01*
X247000Y335000D02*
Y338199D01*
X248600D01*
X249133Y337666D01*
Y336599D01*
X248600Y336066D01*
X247000D01*
X248066D02*
X249133Y335000D01*
X250199D02*
X251265D01*
X250732D01*
Y338199D01*
X250199Y337666D01*
X254997Y335000D02*
X252865D01*
X254997Y337133D01*
Y337666D01*
X254464Y338199D01*
X253398D01*
X252865Y337666D01*
X220000Y338199D02*
Y335000D01*
X221600D01*
X222133Y335533D01*
Y337666D01*
X221600Y338199D01*
X220000D01*
X223199Y335000D02*
X224265D01*
X223732D01*
Y338199D01*
X223199Y337666D01*
X56000Y237000D02*
Y240199D01*
X57600D01*
X58133Y239666D01*
Y238599D01*
X57600Y238066D01*
X56000D01*
X59199Y237000D02*
X60265D01*
X59732D01*
Y240199D01*
X59199Y239666D01*
X63997Y240199D02*
X61865D01*
Y238599D01*
X62931Y239133D01*
X63464D01*
X63997Y238599D01*
Y237533D01*
X63464Y237000D01*
X62398D01*
X61865Y237533D01*
X79133Y118533D02*
Y120666D01*
X78600Y121199D01*
X77533D01*
X77000Y120666D01*
Y118533D01*
X77533Y118000D01*
X78600D01*
X78066Y119066D02*
X79133Y118000D01*
X78600D02*
X79133Y118533D01*
X80199Y118000D02*
X81265D01*
X80732D01*
Y121199D01*
X80199Y120666D01*
X74133Y163533D02*
Y165666D01*
X73599Y166199D01*
X72533D01*
X72000Y165666D01*
Y163533D01*
X72533Y163000D01*
X73599D01*
X73066Y164066D02*
X74133Y163000D01*
X73599D02*
X74133Y163533D01*
X77332Y163000D02*
X75199D01*
X77332Y165133D01*
Y165666D01*
X76798Y166199D01*
X75732D01*
X75199Y165666D01*
X247133Y236666D02*
X246600Y237199D01*
X245533D01*
X245000Y236666D01*
Y234533D01*
X245533Y234000D01*
X246600D01*
X247133Y234533D01*
X248199Y234000D02*
X249265D01*
X248732D01*
Y237199D01*
X248199Y236666D01*
X349000Y144000D02*
Y147199D01*
X350600D01*
X351133Y146666D01*
Y145599D01*
X350600Y145066D01*
X349000D01*
X350066D02*
X351133Y144000D01*
X352199D02*
X353265D01*
X352732D01*
Y147199D01*
X352199Y146666D01*
X354865Y144000D02*
X355931D01*
X355398D01*
Y147199D01*
X354865Y146666D01*
X349000Y156000D02*
Y159199D01*
X350600D01*
X351133Y158666D01*
Y157599D01*
X350600Y157066D01*
X349000D01*
X350066D02*
X351133Y156000D01*
X352199D02*
X353265D01*
X352732D01*
Y159199D01*
X352199Y158666D01*
X354865D02*
X355398Y159199D01*
X356464D01*
X356997Y158666D01*
Y156533D01*
X356464Y156000D01*
X355398D01*
X354865Y156533D01*
Y158666D01*
X349000Y168000D02*
Y171199D01*
X350600D01*
X351133Y170666D01*
Y169599D01*
X350600Y169066D01*
X349000D01*
X350066D02*
X351133Y168000D01*
X352199Y168533D02*
X352732Y168000D01*
X353799D01*
X354332Y168533D01*
Y170666D01*
X353799Y171199D01*
X352732D01*
X352199Y170666D01*
Y170133D01*
X352732Y169599D01*
X354332D01*
X349000Y180000D02*
Y183199D01*
X350600D01*
X351133Y182666D01*
Y181599D01*
X350600Y181066D01*
X349000D01*
X350066D02*
X351133Y180000D01*
X352199Y182666D02*
X352732Y183199D01*
X353799D01*
X354332Y182666D01*
Y182133D01*
X353799Y181599D01*
X354332Y181066D01*
Y180533D01*
X353799Y180000D01*
X352732D01*
X352199Y180533D01*
Y181066D01*
X352732Y181599D01*
X352199Y182133D01*
Y182666D01*
X352732Y181599D02*
X353799D01*
X177000Y206000D02*
Y209199D01*
X178600D01*
X179133Y208666D01*
Y207599D01*
X178600Y207066D01*
X177000D01*
X180199Y206000D02*
X181265D01*
X180732D01*
Y209199D01*
X180199Y208666D01*
X184464Y206000D02*
Y209199D01*
X182865Y207599D01*
X184997D01*
X371000Y313000D02*
Y316199D01*
X372600D01*
X373133Y315666D01*
Y314599D01*
X372600Y314066D01*
X371000D01*
X374199Y313000D02*
X375265D01*
X374732D01*
Y316199D01*
X374199Y315666D01*
X376865D02*
X377398Y316199D01*
X378464D01*
X378997Y315666D01*
Y315133D01*
X378464Y314599D01*
X377931D01*
X378464D01*
X378997Y314066D01*
Y313533D01*
X378464Y313000D01*
X377398D01*
X376865Y313533D01*
X144000Y151000D02*
Y154199D01*
X145599D01*
X146133Y153666D01*
Y152600D01*
X145599Y152066D01*
X144000D01*
X147199Y151000D02*
X148265D01*
X147732D01*
Y154199D01*
X147199Y153666D01*
X151997Y151000D02*
X149865D01*
X151997Y153133D01*
Y153666D01*
X151464Y154199D01*
X150398D01*
X149865Y153666D01*
X332133Y260533D02*
Y262666D01*
X331599Y263199D01*
X330533D01*
X330000Y262666D01*
Y260533D01*
X330533Y260000D01*
X331599D01*
X331066Y261066D02*
X332133Y260000D01*
X331599D02*
X332133Y260533D01*
X333199Y262666D02*
X333732Y263199D01*
X334799D01*
X335332Y262666D01*
Y262133D01*
X334799Y261599D01*
X334265D01*
X334799D01*
X335332Y261066D01*
Y260533D01*
X334799Y260000D01*
X333732D01*
X333199Y260533D01*
X325000Y281000D02*
Y284199D01*
X326600D01*
X327133Y283666D01*
Y282599D01*
X326600Y282066D01*
X325000D01*
X328199Y281000D02*
X329265D01*
X328732D01*
Y284199D01*
X328199Y283666D01*
X330865Y281000D02*
X331931D01*
X331398D01*
Y284199D01*
X330865Y283666D01*
X200300Y326099D02*
Y323433D01*
X200833Y322900D01*
X201900D01*
X202433Y323433D01*
Y326099D01*
X203499Y322900D02*
X204565D01*
X204032D01*
Y326099D01*
X203499Y325566D01*
X370000Y252000D02*
X366801D01*
Y253600D01*
X367334Y254133D01*
X368401D01*
X368934Y253600D01*
Y252000D01*
Y253066D02*
X370000Y254133D01*
X366801Y255199D02*
Y257332D01*
X367334D01*
X369467Y255199D01*
X370000D01*
Y240000D02*
X366801D01*
Y241599D01*
X367334Y242133D01*
X368401D01*
X368934Y241599D01*
Y240000D01*
Y241066D02*
X370000Y242133D01*
X366801Y245332D02*
X367334Y244265D01*
X368401Y243199D01*
X369467D01*
X370000Y243732D01*
Y244798D01*
X369467Y245332D01*
X368934D01*
X368401Y244798D01*
Y243199D01*
X370000Y228000D02*
X366801D01*
Y229599D01*
X367334Y230133D01*
X368401D01*
X368934Y229599D01*
Y228000D01*
Y229066D02*
X370000Y230133D01*
X366801Y233332D02*
Y231199D01*
X368401D01*
X367867Y232265D01*
Y232799D01*
X368401Y233332D01*
X369467D01*
X370000Y232799D01*
Y231732D01*
X369467Y231199D01*
X135000Y127500D02*
Y130699D01*
X136600D01*
X137133Y130166D01*
Y129100D01*
X136600Y128566D01*
X135000D01*
X136066D02*
X137133Y127500D01*
X138199D02*
X139265D01*
X138732D01*
Y130699D01*
X138199Y130166D01*
X135000Y137500D02*
Y140699D01*
X136600D01*
X137133Y140166D01*
Y139100D01*
X136600Y138566D01*
X135000D01*
X136066D02*
X137133Y137500D01*
X140332D02*
X138199D01*
X140332Y139633D01*
Y140166D01*
X139798Y140699D01*
X138732D01*
X138199Y140166D01*
X64000Y157000D02*
Y160199D01*
X65600D01*
X66133Y159666D01*
Y158599D01*
X65600Y158066D01*
X64000D01*
X65066D02*
X66133Y157000D01*
X67199Y159666D02*
X67732Y160199D01*
X68799D01*
X69332Y159666D01*
Y159133D01*
X68799Y158599D01*
X68265D01*
X68799D01*
X69332Y158066D01*
Y157533D01*
X68799Y157000D01*
X67732D01*
X67199Y157533D01*
X117000Y131000D02*
X113801D01*
Y132599D01*
X114334Y133133D01*
X115401D01*
X115934Y132599D01*
Y131000D01*
Y132066D02*
X117000Y133133D01*
Y135799D02*
X113801D01*
X115401Y134199D01*
Y136332D01*
X7000Y250000D02*
Y253199D01*
X8600D01*
X9133Y252666D01*
Y251600D01*
X8600Y251066D01*
X7000D01*
X12332Y253199D02*
X11265Y252666D01*
X10199Y251600D01*
Y250533D01*
X10732Y250000D01*
X11798D01*
X12332Y250533D01*
Y251066D01*
X11798Y251600D01*
X10199D01*
X37000Y250000D02*
Y253199D01*
X38600D01*
X39133Y252666D01*
Y251600D01*
X38600Y251066D01*
X37000D01*
X42332Y253199D02*
X40199D01*
Y251600D01*
X41265Y252133D01*
X41798D01*
X42332Y251600D01*
Y250533D01*
X41798Y250000D01*
X40732D01*
X40199Y250533D01*
X67000Y250000D02*
Y253199D01*
X68599D01*
X69133Y252666D01*
Y251600D01*
X68599Y251066D01*
X67000D01*
X71798Y250000D02*
Y253199D01*
X70199Y251600D01*
X72332D01*
X97000Y250000D02*
Y253199D01*
X98599D01*
X99133Y252666D01*
Y251600D01*
X98599Y251066D01*
X97000D01*
X100199Y252666D02*
X100732Y253199D01*
X101798D01*
X102332Y252666D01*
Y252133D01*
X101798Y251600D01*
X101265D01*
X101798D01*
X102332Y251066D01*
Y250533D01*
X101798Y250000D01*
X100732D01*
X100199Y250533D01*
X127000Y250000D02*
Y253199D01*
X128600D01*
X129133Y252666D01*
Y251600D01*
X128600Y251066D01*
X127000D01*
X132332Y250000D02*
X130199D01*
X132332Y252133D01*
Y252666D01*
X131799Y253199D01*
X130732D01*
X130199Y252666D01*
X158000Y250000D02*
Y253199D01*
X159599D01*
X160133Y252666D01*
Y251600D01*
X159599Y251066D01*
X158000D01*
X161199Y250000D02*
X162265D01*
X161732D01*
Y253199D01*
X161199Y252666D01*
X29000Y147000D02*
Y150199D01*
X30599D01*
X31133Y149666D01*
Y148600D01*
X30599Y148066D01*
X29000D01*
X32199Y147000D02*
X33265D01*
X32732D01*
Y150199D01*
X32199Y149666D01*
X34865D02*
X35398Y150199D01*
X36464D01*
X36997Y149666D01*
Y147533D01*
X36464Y147000D01*
X35398D01*
X34865Y147533D01*
Y149666D01*
X32000Y230000D02*
Y233199D01*
X33599D01*
X34133Y232666D01*
Y231599D01*
X33599Y231066D01*
X32000D01*
X35199Y230533D02*
X35732Y230000D01*
X36799D01*
X37332Y230533D01*
Y232666D01*
X36799Y233199D01*
X35732D01*
X35199Y232666D01*
Y232133D01*
X35732Y231599D01*
X37332D01*
X366000Y140000D02*
Y143199D01*
X367600D01*
X368133Y142666D01*
Y141600D01*
X367600Y141066D01*
X366000D01*
X369199Y143199D02*
X371332D01*
Y142666D01*
X369199Y140533D01*
Y140000D01*
X127000Y206000D02*
Y209199D01*
X128600D01*
X129133Y208666D01*
Y207599D01*
X128600Y207066D01*
X127000D01*
X130199Y208666D02*
X130732Y209199D01*
X131799D01*
X132332Y208666D01*
Y208133D01*
X131799Y207599D01*
X132332Y207066D01*
Y206533D01*
X131799Y206000D01*
X130732D01*
X130199Y206533D01*
Y207066D01*
X130732Y207599D01*
X130199Y208133D01*
Y208666D01*
X130732Y207599D02*
X131799D01*
M02*
